<?xml version="1.0" encoding="UTF-8" standalone="no"?>
<svg
   xmlns:dc="http://purl.org/dc/elements/1.1/"
   xmlns:cc="http://creativecommons.org/ns#"
   xmlns:rdf="http://www.w3.org/1999/02/22-rdf-syntax-ns#"
   xmlns:svg="http://www.w3.org/2000/svg"
   xmlns="http://www.w3.org/2000/svg"
   xmlns:sodipodi="http://sodipodi.sourceforge.net/DTD/sodipodi-0.dtd"
   xmlns:inkscape="http://www.inkscape.org/namespaces/inkscape"
   height="100"
   width="100"
   id="svg2"
   version="1.1"
   inkscape:version="0.48.5 r10040"
   sodipodi:docname="warning.svg">
  <metadata
     id="metadata10">
    <rdf:RDF>
      <cc:Work
         rdf:about="">
        <dc:format>image/svg+xml</dc:format>
        <dc:type
           rdf:resource="http://purl.org/dc/dcmitype/StillImage" />
        <dc:title></dc:title>
      </cc:Work>
    </rdf:RDF>
  </metadata>
  <defs
     id="defs8" />
  <sodipodi:namedview
     pagecolor="#ffffff"
     bordercolor="#666666"
     borderopacity="1"
     objecttolerance="10"
     gridtolerance="10"
     guidetolerance="10"
     inkscape:pageopacity="0"
     inkscape:pageshadow="2"
     inkscape:window-width="959"
     inkscape:window-height="1014"
     id="namedview6"
     showgrid="false"
     inkscape:zoom="2.36"
     inkscape:cx="28.754555"
     inkscape:cy="-0.84745763"
     inkscape:window-x="960"
     inkscape:window-y="27"
     inkscape:window-maximized="0"
     inkscape:current-layer="svg2" />
  <path
     id="path4"
     style="stroke:none"
     d="m 47.812,-2.5e-4 v 17.062 h 4.469 v -17.062 h -4.469 z m -19.718,4.8749998 -3.782,2.375 9,14.4380002 3.782,-2.344 -9,-14.4690002 z m 44.187,0.4375 -8.25,14.9060002 3.938,2.187 8.219,-14.9060002 -3.907,-2.1875 z M 8.656,21.56225 l -2.1874,3.938 14.843,8.25 2.188,-3.906 -14.8439999,-8.282 z m 41.4065,4.8125 c 12.9523,0 23.4375,10.5558 23.4375,23.5625 0,13.0067 -10.4835,23.5625 -23.4375,23.5625 -12.9625,0.0025 -23.46875,-10.5575 -23.46875,-23.5625 0,-13.0067 10.50625,-23.5625 23.46875,-23.5625 z m 0,-4.15625 c -15.25,0 -27.625,12.41675 -27.625,27.71875 0,15.3 12.375,27.72175 27.625,27.71875 15.24,0 27.59375,-12.41675 27.59375,-27.71875 0,-15.302 -12.35575,-27.71875 -27.59375,-27.71875 z m 41.7495,0.53175 -14.718,8.531 2.218,3.907 14.719,-8.532 -2.219,-3.906 z m -91.81199995,23.688 v 4.468 H 17 v -4.468 H 5.0000001e-8 z M 83,46.68825 v 4.5 h 17 v -4.5 H 83 z m -63.594,15.687 -14.4059999,9.031 2.3438,3.813 14.4059999,-9.063 -2.344,-3.781 z m 60.5,0.969 -2.187,3.906 14.875,8.281 2.187,-3.937 -14.875,-8.25 z m -11.312,13.625 -3.875,2.219 8.5,14.781 3.875,-2.25 -8.5,-14.75 z m -37.156,0.093 -8.25,14.938 3.906,2.156 8.25,-14.937 -3.906,-2.157 z m 16.093,5.876 v 17.062 H 52 v -17.062 h -4.469 z"
     inkscape:connector-curvature="0" />
</svg>
