<?xml version="1.0" encoding="UTF-8" standalone="no"?>
<svg
   xmlns:dc="http://purl.org/dc/elements/1.1/"
   xmlns:cc="http://creativecommons.org/ns#"
   xmlns:rdf="http://www.w3.org/1999/02/22-rdf-syntax-ns#"
   xmlns:svg="http://www.w3.org/2000/svg"
   xmlns="http://www.w3.org/2000/svg"
   xmlns:sodipodi="http://sodipodi.sourceforge.net/DTD/sodipodi-0.dtd"
   xmlns:inkscape="http://www.inkscape.org/namespaces/inkscape"
   height="100"
   width="100"
   id="svg2"
   version="1.1"
   inkscape:version="0.48.5 r10040"
   sodipodi:docname="101.svg">
  <metadata
     id="metadata10">
    <rdf:RDF>
      <cc:Work
         rdf:about="">
        <dc:format>image/svg+xml</dc:format>
        <dc:type
           rdf:resource="http://purl.org/dc/dcmitype/StillImage" />
      </cc:Work>
    </rdf:RDF>
  </metadata>
  <defs
     id="defs8" />
  <sodipodi:namedview
     pagecolor="#ffffff"
     bordercolor="#666666"
     borderopacity="1"
     objecttolerance="10"
     gridtolerance="10"
     guidetolerance="10"
     inkscape:pageopacity="0"
     inkscape:pageshadow="2"
     inkscape:window-width="1638"
     inkscape:window-height="865"
     id="namedview6"
     showgrid="false"
     inkscape:zoom="2.36"
     inkscape:cx="221.76303"
     inkscape:cy="50"
     inkscape:window-x="0"
     inkscape:window-y="27"
     inkscape:window-maximized="0"
     inkscape:current-layer="svg2" />
  <path
     id="path4"
     d="m 47.531,82.9385 v 17.062 H 52 v -17.062 h -4.469 z m -16.093,-5.876 -8.25,14.938 3.906,2.156 8.25,-14.937 -3.906,-2.157 z m 37.156,-0.093 -3.875,2.219 8.5,14.781 3.875,-2.25 -8.5,-14.75 z m 11.312,-13.625 -2.187,3.906 14.875,8.281 2.187,-3.937 -14.875,-8.25 z m -60.5,-0.969 -14.406,9.031 2.3438,3.813 14.406,-9.063 -2.344,-3.781 z M 83,46.6885 v 4.5 h 17 v -4.5 H 83 z m -83,-0.25 v 4.468 h 17 v -4.468 H 0 z m 91.812,-23.688 -14.718,8.531 2.218,3.907 14.719,-8.532 -2.219,-3.906 z M 50.0625,22.21875 c -15.25,0 -27.625,12.41675 -27.625,27.71875 0,15.3 12.375,27.72175 27.625,27.71875 15.24,0 27.59375,-12.41675 27.59375,-27.71875 0,-15.302 -12.35575,-27.71875 -27.59375,-27.71875 z m 0,4.15625 C 63.0148,26.375 73.5,36.9308 73.5,49.9375 73.5,62.9442 63.0165,73.5 50.0625,73.5 37.1,73.50255 26.59375,62.9425 26.59375,49.9375 26.59375,36.9308 37.1,26.375 50.0625,26.375 z M 8.656,21.5625 l -2.1874,3.938 14.843,8.25 2.188,-3.906 -14.844,-8.282 z m 63.625,-16.25 -8.25,14.906 3.938,2.187 L 76.188,7.4995 72.281,5.312 z M 28.094,4.875 24.312,7.25 l 9,14.438 3.782,-2.344 -9,-14.469 z M 47.812,0 v 17.062 h 4.469 V 0 h -4.469 z" />
</svg>
