<?xml version="1.0" encoding="UTF-8" standalone="no"?>
<svg
   xmlns:dc="http://purl.org/dc/elements/1.1/"
   xmlns:cc="http://creativecommons.org/ns#"
   xmlns:rdf="http://www.w3.org/1999/02/22-rdf-syntax-ns#"
   xmlns:svg="http://www.w3.org/2000/svg"
   xmlns="http://www.w3.org/2000/svg"
   xmlns:sodipodi="http://sodipodi.sourceforge.net/DTD/sodipodi-0.dtd"
   xmlns:inkscape="http://www.inkscape.org/namespaces/inkscape"
   height="100"
   width="100"
   id="svg2"
   version="1.1"
   inkscape:version="0.48.5 r10040"
   sodipodi:docname="102.svg">
  <metadata
     id="metadata10">
    <rdf:RDF>
      <cc:Work
         rdf:about="">
        <dc:format>image/svg+xml</dc:format>
        <dc:type
           rdf:resource="http://purl.org/dc/dcmitype/StillImage" />
        <dc:title />
      </cc:Work>
    </rdf:RDF>
  </metadata>
  <defs
     id="defs8" />
  <sodipodi:namedview
     pagecolor="#ffffff"
     bordercolor="#666666"
     borderopacity="1"
     objecttolerance="10"
     gridtolerance="10"
     guidetolerance="10"
     inkscape:pageopacity="0"
     inkscape:pageshadow="2"
     inkscape:window-width="959"
     inkscape:window-height="1013"
     id="namedview6"
     showgrid="false"
     inkscape:zoom="3.337544"
     inkscape:cx="44.125504"
     inkscape:cy="20.316284"
     inkscape:window-x="959"
     inkscape:window-y="27"
     inkscape:window-maximized="0"
     inkscape:current-layer="svg2" />
  <path
     id="path3806-7"
     d="m 23.805828,52.255011 c -5.32458,0 -9.598332,4.228948 -9.909534,9.474678 -2.601781,0.250057 -4.621851,2.208772 -5.086545,4.743927 -0.152649,-0.01602 -0.273355,-0.06589 -0.43486,-0.06589 -2.828393,0 -5.152432,2.313139 -5.152432,5.139255 0,1.413902 0.671445,2.603468 1.660374,3.268039 0.989942,0.664994 2.216047,0.882898 3.492058,0.882898 l 13.138039,0 7.15543,0 6.58879,0 c 4.47784,0 8.13056,-3.651876 8.13056,-8.130565 0,-4.478689 -3.65187,-8.130565 -8.13056,-8.130565 -0.67975,0 -1.29214,0.183221 -1.91075,0.342617 -1.13138,-4.288933 -4.90332,-7.524396 -9.54057,-7.524396 z m 10e-7,1.917335 c 4.05111,0 7.35973,3.002169 7.97244,6.878696 l 0.18448,1.159626 1.10692,-0.448037 c 0.69578,-0.263974 1.42423,-0.395328 2.18748,-0.395328 3.44556,0 6.21981,2.761915 6.21981,6.206639 0,3.445567 -2.77425,6.206639 -6.21981,6.206639 l -6.58879,0 -7.15543,0 -13.138039,0 c -1.03523,0 -1.900438,-0.214109 -2.424674,-0.566636 -0.524109,-0.351262 -0.81701,-0.762613 -0.81701,-1.660375 0,-1.791728 1.447425,-3.228506 3.241684,-3.228506 0.297286,0 0.577811,0.05904 0.909253,0.158131 l 1.25187,0.38215 0,-1.291403 c 0,-0.05903 -0.0234,-0.05893 -0.02636,-0.09224 0,-0.05398 -0.0051,-0.05366 0,-0.06589 -8.44e-4,-0.0051 8.43e-4,-0.02467 0,-0.02635 0.05018,-2.13287 1.769063,-3.834675 3.91374,-3.834675 -0.0312,0 0.07316,0.02435 0.289907,0.03953 l 1.067384,0.05271 -0.03951,-1.067384 c -0.01181,-0.261864 -0.06589,-0.337873 -0.06589,-0.276729 0,-4.488809 3.638385,-8.130565 8.130565,-8.130565 z M 47.8125,0 l 0,17.0625 4.46875,0 0,-17.0625 -4.46875,0 z M 28.09375,4.875 24.3125,7.25 l 9,14.4375 3.78125,-2.34375 -9,-14.46875 z m 44.1875,0.4375 -8.25,14.90625 3.9375,2.1875 L 76.1875,7.5 72.28125,5.3125 z M 8.65625,21.5625 6.46875,25.5 21.3125,33.75 23.5,29.84375 8.65625,21.5625 z m 41.40625,0.65625 c -15.25,0 -27.625,12.41675 -27.625,27.71875 0,0.807729 0.05742,1.615969 0.125,2.40625 0.406357,-0.05127 0.82907,-0.09375 1.25,-0.09375 1.044054,0 2.032682,0.196889 2.96875,0.5 -0.109496,-0.922843 -0.1875,-1.860253 -0.1875,-2.8125 0,-13.0067 10.50625,-23.5625 23.46875,-23.5625 10.44363,0 19.280083,6.866919 22.3125,16.34375 -2.662346,1.685934 -4.457971,4.626489 -4.65625,7.96875 -2.601781,0.250057 -4.629056,2.214845 -5.09375,4.75 -0.152649,-0.01602 -0.275995,-0.0625 -0.4375,-0.0625 -2.828393,0 -5.15625,2.298884 -5.15625,5.125 0,1.413902 0.667321,2.616679 1.65625,3.28125 0.989942,0.664994 2.223989,0.875 3.5,0.875 l 6.1875,0 C 64.081719,70.051463 57.475915,73.5 50.0625,73.5 c -2.825191,5.45e-4 -5.52276,-0.518594 -8.03125,-1.4375 -0.880199,1.324671 -2.145578,2.372487 -3.625,3 3.544836,1.66087 7.487776,2.59457 11.65625,2.59375 9.855896,0 18.494135,-5.191785 23.375,-13 l 1.875,0 3.84375,0 -1.4375,2.59375 14.875,8.28125 2.1875,-3.9375 -12.5,-6.9375 0.1875,0 6.59375,0 c 4.477846,0 8.125,-3.646311 8.125,-8.125 0,-2.039338 -0.752375,-3.913982 -2,-5.34375 l 4.8125,0 0,-4.5 -13.625,0 c -1.63521,-3.230971 -4.885632,-5.46875 -8.75,-5.46875 -0.455108,0 -0.905814,0.03397 -1.34375,0.09375 C 72.671993,30.226799 62.30435,22.21875 50.0625,22.21875 z M 91.8125,22.75 77.09375,31.28125 79.3125,35.1875 94.03125,26.65625 91.8125,22.75 z M 77.625,43.125 c 4.051103,0 7.356045,2.998473 7.96875,6.875 l 0.1875,1.15625 1.09375,-0.4375 c 0.695776,-0.263974 1.424255,-0.40625 2.1875,-0.40625 3.445567,0 6.21875,2.774026 6.21875,6.21875 0,3.445567 -2.773183,6.21875 -6.21875,6.21875 l -6.59375,0 -7.15625,0 -13.125,0 c -1.03523,0 -1.913264,-0.241223 -2.4375,-0.59375 -0.524109,-0.351262 -0.8125,-0.758488 -0.8125,-1.65625 0,-1.791728 1.455741,-3.21875 3.25,-3.21875 0.297286,0 0.574808,0.05716 0.90625,0.15625 l 1.25,0.375 0,-1.28125 c 0,-0.05903 -0.02829,-0.06044 -0.03125,-0.09375 0,-0.05398 -0.0051,-0.05027 0,-0.0625 -8.44e-4,-0.0051 8.43e-4,-0.02957 0,-0.03125 C 64.36268,54.21088 66.105323,52.5 68.25,52.5 c -0.0312,0 0.0645,0.04732 0.28125,0.0625 l 1.0625,0.03125 -0.03125,-1.0625 C 69.55069,51.269386 69.5,51.188856 69.5,51.25 c 0,-4.488809 3.632817,-8.125 8.125,-8.125 z M 0,46.4375 l 0,4.46875 17,0 0,-4.46875 -17,0 z m 68.59375,30.53125 -3.875,2.21875 8.5,14.78125 3.875,-2.25 -8.5,-14.75 z M 31.4375,77.0625 23.1875,92 l 3.90625,2.15625 8.25,-14.9375 -3.90625,-2.15625 z m 16.09375,5.875 0,17.0625 4.46875,0 0,-17.0625 -4.46875,0 z" />
</svg>
