<?xml version="1.0" encoding="UTF-8" standalone="no"?>
<svg
   xmlns:dc="http://purl.org/dc/elements/1.1/"
   xmlns:cc="http://creativecommons.org/ns#"
   xmlns:rdf="http://www.w3.org/1999/02/22-rdf-syntax-ns#"
   xmlns:svg="http://www.w3.org/2000/svg"
   xmlns="http://www.w3.org/2000/svg"
   xmlns:sodipodi="http://sodipodi.sourceforge.net/DTD/sodipodi-0.dtd"
   xmlns:inkscape="http://www.inkscape.org/namespaces/inkscape"
   height="100"
   width="100"
   id="svg2"
   version="1.1"
   inkscape:version="0.48.5 r10040"
   sodipodi:docname="102.svg">
  <metadata
     id="metadata10">
    <rdf:RDF>
      <cc:Work
         rdf:about="">
        <dc:format>image/svg+xml</dc:format>
        <dc:type
           rdf:resource="http://purl.org/dc/dcmitype/StillImage" />
      </cc:Work>
    </rdf:RDF>
  </metadata>
  <defs
     id="defs8" />
  <sodipodi:namedview
     pagecolor="#ffffff"
     bordercolor="#666666"
     borderopacity="1"
     objecttolerance="10"
     gridtolerance="10"
     guidetolerance="10"
     inkscape:pageopacity="0"
     inkscape:pageshadow="2"
     inkscape:window-width="1316"
     inkscape:window-height="788"
     id="namedview6"
     showgrid="false"
     inkscape:zoom="2.36"
     inkscape:cx="58.262712"
     inkscape:cy="50"
     inkscape:window-x="179"
     inkscape:window-y="117"
     inkscape:window-maximized="0"
     inkscape:current-layer="svg2" />
  <path
     id="path2989"
     d="m 80.5,76.65625 c -5.303,0 -9.565,4.2125 -9.875,9.4375 -2.591,0.249 -4.5995,2.19375 -5.0625,4.71875 C 65.4105,90.7965 65.286,90.75 65.125,90.75 62.308,90.75 60,93.06 60,95.875 c 0,1.408 0.67125,2.588 1.65625,3.25 0.986,0.662 2.19775,0.875 3.46875,0.875 l 13.09375,0 7.125,0 6.5625,0 c 4.46,0 8.09375,-3.63275 8.09375,-8.09375 0,-4.461 -3.63275,-8.09375 -8.09375,-8.09375 -0.677,0 -1.29025,0.18475 -1.90625,0.34375 -1.127,-4.272 -4.881,-7.5 -9.5,-7.5 z m 0,1.90625 c 4.035,0 7.3275,2.98275 7.9375,6.84375 l 0.1875,1.15625 1.09375,-0.4375 c 0.693,-0.263 1.4275,-0.40625 2.1875,-0.40625 3.432,0 6.1875,2.7565 6.1875,6.1875 0,3.432 -2.7555,6.1875 -6.1875,6.1875 l -6.5625,0 -7.125,0 -13.09375,0 c -1.031,0 -1.88425,-0.2115 -2.40625,-0.5625 -0.522,-0.35 -0.8125,-0.76225 -0.8125,-1.65625 0,-1.785 1.43175,-3.21875 3.21875,-3.21875 0.296,0 0.57625,0.05725 0.90625,0.15625 l 1.25,0.375 0,-1.28125 c 0,-0.059 -0.02825,-0.06075 -0.03125,-0.09375 0,-0.054 -0.005,-0.0505 0,-0.0625 -0.001,-0.005 0.001,-0.02925 0,-0.03125 0.05,-2.124 1.77025,-3.8125 3.90625,-3.8125 -0.031,0 0.06525,0.01625 0.28125,0.03125 L 72.5,88 72.46875,86.9375 c -0.012,-0.261 -0.0625,-0.34225 -0.0625,-0.28125 0,-4.471 3.61975,-8.09375 8.09375,-8.09375 z M 42.781,74.6562 v 15.344 h 4.031 v -15.344 h -4.031 z m -14.5,-5.312 -7.406,13.437 3.5,1.969 7.437,-13.438 -3.531,-1.968 z m 33.438,-0.094 -3.469,2 7.656,13.312 3.469,-2 -7.656,-13.312 z m 10.187,-12.25 -1.968,3.531 13.406,7.438 1.937,-3.531 -13.375,-7.438 z m -54.437,-0.875 -12.969,8.156 2.0938,3.407 13,-8.126 -2.125,-3.437 z m 57.219,-14.094 v 4.031 H 90 v -4.031 H 74.688 z M 0,41.7812 v 4.031 h 15.312 v -4.031 H 0 z m 82.625,-21.281 -13.25,7.656 2.031,3.5 13.25,-7.656 -2.031,-3.5 z M 45.0625,20 c -13.724,0 -24.875,11.1655 -24.875,24.9375 0,13.77 11.151,24.9405 24.875,24.9375 13.716,0 24.8125,-11.1655 24.8125,-24.9375 C 69.875,31.1655 58.7765,20 45.0625,20 z m 0,3.75 c 11.6569,0 21.09375,9.4813 21.09375,21.1875 0,11.7062 -9.43515,21.1875 -21.09375,21.1875 C 33.397097,66.12755 23.90625,56.642 23.90625,44.9375 23.90625,33.2313 33.397097,23.75 45.0625,23.75 z M 7.781,19.4062 l -1.9687,3.532 13.376,7.437 1.968,-3.531 -13.375,-7.438 z m 57.281,-14.625 -7.437,13.407 3.531,1.968 7.406,-13.406 -3.5,-1.9688 z M 25.281,4.375 l -3.406,2.1562 8.125,13 3.406,-2.125 -8.125,-13.031 z M 43.031,0 v 15.344 h 4 V 0 h -4 z" />
</svg>
