<?xml version="1.0" encoding="UTF-8" standalone="no"?>
<svg
   xmlns:dc="http://purl.org/dc/elements/1.1/"
   xmlns:cc="http://creativecommons.org/ns#"
   xmlns:rdf="http://www.w3.org/1999/02/22-rdf-syntax-ns#"
   xmlns:svg="http://www.w3.org/2000/svg"
   xmlns="http://www.w3.org/2000/svg"
   xmlns:sodipodi="http://sodipodi.sourceforge.net/DTD/sodipodi-0.dtd"
   xmlns:inkscape="http://www.inkscape.org/namespaces/inkscape"
   height="100"
   width="100"
   id="svg2"
   version="1.1"
   inkscape:version="0.48.5 r10040"
   sodipodi:docname="103.svg">
  <metadata
     id="metadata10">
    <rdf:RDF>
      <cc:Work
         rdf:about="">
        <dc:format>image/svg+xml</dc:format>
        <dc:type
           rdf:resource="http://purl.org/dc/dcmitype/StillImage" />
      </cc:Work>
    </rdf:RDF>
  </metadata>
  <defs
     id="defs8" />
  <sodipodi:namedview
     pagecolor="#ffffff"
     bordercolor="#666666"
     borderopacity="1"
     objecttolerance="10"
     gridtolerance="10"
     guidetolerance="10"
     inkscape:pageopacity="0"
     inkscape:pageshadow="2"
     inkscape:window-width="1569"
     inkscape:window-height="842"
     id="namedview6"
     showgrid="false"
     inkscape:zoom="4.72"
     inkscape:cx="58.623001"
     inkscape:cy="30.280474"
     inkscape:window-x="21"
     inkscape:window-y="106"
     inkscape:window-maximized="0"
     inkscape:current-layer="svg2" />
  <path
     id="path4"
     d="m 21.999,68.938 -5.75,10.468 2.719,1.5 5.781,-10.437 -2.75,-1.531 z M 13.561,58.656 3.499,65 5.124,67.656 15.218,61.312 13.561,58.656 z M -0.001,47.5 v 3.125 H 11.905 V 47.5 H -0.001 z m 64.25,-16.562 -10.281,5.968 1.562,2.719 10.313,-5.969 -1.594,-2.718 z m -58.187,-0.844 -1.5313,2.75 10.407,5.781 1.5,-2.75 -10.376,-5.781 z m 44.532,-11.375 -5.782,10.437 2.75,1.532 5.782,-10.438 -2.75,-1.531 z M 19.656,18.406 17,20.062 23.312,30.188 25.969,28.531 19.656,18.406 z M 33.469,15 v 11.938 h 3.125 V 15 h -3.125 z m 1.56225,15.5625 c -10.675,0 -19.3125,8.69425 -19.3125,19.40625 0,9.054 6.17325,16.619 14.53125,18.75 C 27.146,70.31175 25,73.538 25,77.25 c 0,2.64 1.2145,4.85275 3.0625,6.09375 1.508,1.012 3.30975,1.45675 5.21875,1.59375 l 0,0.0625 1.3125,0 1.8125,0 22.75,0 13.375,0 12.28125,0 C 93.1755,85 100,78.1775 100,69.8125 100,61.4485 93.1765,54.65625 84.8125,54.65625 83.6085,54.65625 82.477,54.854 81.375,55.125 79.227,47.166 72.0615,41.25 63.4375,41.25 c -3.692,0 -7.108,1.0805 -10,2.9375 -2.449,-7.888 -9.74725,-13.625 -18.40625,-13.625 z m 0,2.6875 c 7.832529,0 14.403315,5.348507 16.28125,12.59375 -3.696828,3.233718 -6.127333,7.899848 -6.4375,13.125 -4.531932,0.435304 -8.114515,3.638444 -9.28125,7.90625 -0.18862,0.0063 -0.372358,0.03125 -0.5625,0.03125 -9.295344,0 -16.84375,-7.517156 -16.84375,-16.8125 0,-9.295344 7.548406,-16.84375 16.84375,-16.84375 z m 28.6875,11.84375 c 7.565,0 13.76225,5.5715 14.90625,12.8125 L 78.9375,60.0625 81,59.28125 C 82.3,58.78825 83.66875,58.5 85.09375,58.5 c 6.436,0 11.625,5.15975 11.625,11.59375 0,6.435 -5.19,11.625 -11.625,11.625 l -12.28125,0 -13.375,0 -24.5625,0 c -1.933,0 -3.55225,-0.4055 -4.53125,-1.0625 -0.978,-0.657 -1.5,-1.449 -1.5,-3.125 0,-3.347 2.68025,-6.03125 6.03125,-6.03125 0.554,0 1.13,0.1265 1.75,0.3125 l 2.28125,0.6875 0,-2.40625 0,-0.1875 c 0,-4.067 3.2455,-7.3125 7.3125,-7.3125 -0.059,0 0.097,0.0355 0.5,0.0625 l 2,0.125 -0.09375,-2 C 48.603,60.29325 48.5625,60.135 48.5625,60.25 c 0,-8.384 6.76625,-15.15625 15.15625,-15.15625 z" />
</svg>
