<?xml version="1.0" encoding="UTF-8" standalone="no"?>
<svg
   xmlns:dc="http://purl.org/dc/elements/1.1/"
   xmlns:cc="http://creativecommons.org/ns#"
   xmlns:rdf="http://www.w3.org/1999/02/22-rdf-syntax-ns#"
   xmlns:svg="http://www.w3.org/2000/svg"
   xmlns="http://www.w3.org/2000/svg"
   xmlns:sodipodi="http://sodipodi.sourceforge.net/DTD/sodipodi-0.dtd"
   xmlns:inkscape="http://www.inkscape.org/namespaces/inkscape"
   height="100"
   width="100"
   id="svg2"
   version="1.1"
   inkscape:version="0.48.5 r10040"
   sodipodi:docname="101.svg">
  <metadata
     id="metadata10">
    <rdf:RDF>
      <cc:Work
         rdf:about="">
        <dc:format>image/svg+xml</dc:format>
        <dc:type
           rdf:resource="http://purl.org/dc/dcmitype/StillImage" />
        <dc:title></dc:title>
      </cc:Work>
    </rdf:RDF>
  </metadata>
  <defs
     id="defs8" />
  <sodipodi:namedview
     pagecolor="#ffffff"
     bordercolor="#666666"
     borderopacity="1"
     objecttolerance="10"
     gridtolerance="10"
     guidetolerance="10"
     inkscape:pageopacity="0"
     inkscape:pageshadow="2"
     inkscape:window-width="1638"
     inkscape:window-height="865"
     id="namedview6"
     showgrid="false"
     inkscape:zoom="2.36"
     inkscape:cx="171.28369"
     inkscape:cy="-34.840858"
     inkscape:window-x="0"
     inkscape:window-y="27"
     inkscape:window-maximized="0"
     inkscape:current-layer="svg2" />
  <path
     id="path3042"
     d="m 53,32.875 c -12.627,0 -22.762,10.02875 -23.5,22.46875 -6.17,0.593 -10.9605,5.238 -12.0625,11.25 -0.362,-0.038 -0.64825,-0.15625 -1.03125,-0.15625 -6.7074006,0 -12.21875,5.4855 -12.21875,12.1875 0,3.353 1.5923,6.174 3.9375,7.75 2.3476,1.577 5.25525,2.09375 8.28125,2.09375 l 31.15625,0 16.96875,0 15.625,0 c 10.619,0 19.28125,-8.66025 19.28125,-19.28125 0,-10.620995 -8.66025,-19.28125 -19.28125,-19.28125 -1.612,0 -3.06425,0.4345 -4.53125,0.8125 C 72.942,40.54775 63.997,32.875 53,32.875 z m -1,4.53125 c 0.32875,-0.01667 0.667094,0 1,0 9.607,0 17.45325,7.1195 18.90625,16.3125 l 0.4375,2.75 2.625,-1.0625 c 1.65,-0.626 3.3775,-0.9375 5.1875,-0.9375 8.171,0 14.75,6.54975 14.75,14.71875 0,8.171 -6.579,14.71875 -14.75,14.71875 l -15.625,0 -16.96875,0 -31.15625,0 c -2.455,0 -4.5068,-0.50775 -5.75,-1.34375 -1.2429006,-0.833 -1.9375,-1.8085 -1.9375,-3.9375 0,-4.249 3.4325,-7.65625 7.6875,-7.65625 0.705,0 1.37025,0.14 2.15625,0.375 l 2.96875,0.90625 0,-3.0625 c 0,-0.14 -0.0555,-0.13975 -0.0625,-0.21875 0,-0.128 -0.012,-0.12725 0,-0.15625 -0.002,-0.012 0.002,-0.0585 0,-0.0625 0.119,-5.058 4.19525,-9.09375 9.28125,-9.09375 -0.074,0 0.1735,0.05775 0.6875,0.09375 L 33.96875,59.875 33.875,57.34375 C 33.847,56.72275 33.71875,56.5425 33.71875,56.6875 33.71875,46.375156 41.808746,37.922878 52,37.40625 z M 42.946054,6.339008 v 15.3558 h 4.0221 v -15.3558 h -4.0221 z m -17.7462,4.3875 -3.4038,2.1375 8.1,12.9942 3.4038,-2.1096 -8.1,-13.0221 z m 39.7683,0.39375 -7.425,13.4154 3.5442,1.9683 7.3971,-13.4154 -3.5163,-1.96875 z m -57.2624998,14.625 -1.96866,3.5442 13.3586998,7.425 1.9692,-3.5154 -13.3595998,-7.4538 z M 44.96875,26.34375 c -13.725,0 -24.875,11.1657 -24.875,24.9375 0,2.746264 0.462278,5.372312 1.28125,7.84375 0.938964,-0.92176 2.010362,-1.697512 3.1875,-2.3125 -0.471741,-1.760732 -0.71875,-3.622318 -0.71875,-5.53125 0,-11.70603 9.45875,-21.21875 21.125,-21.21875 3.91749,0 7.576675,1.09787 10.71875,2.96875 3.244842,0.378071 6.260263,1.44995 8.9375,3.03125 -4.54461,-5.903476 -11.653419,-9.71875 -19.65625,-9.71875 z m 37.577304,0.470708 -13.2462,7.6779 1.9962,3.5163 13.2471,-7.6788 -1.9971,-3.5154 z m -82.6307998,21.3192 v 4.0212 H 15.215254 v -4.0212 H -0.0847458 z" />
</svg>
