<?xml version="1.0" encoding="UTF-8" standalone="no"?>
<svg
   xmlns:dc="http://purl.org/dc/elements/1.1/"
   xmlns:cc="http://creativecommons.org/ns#"
   xmlns:rdf="http://www.w3.org/1999/02/22-rdf-syntax-ns#"
   xmlns:svg="http://www.w3.org/2000/svg"
   xmlns="http://www.w3.org/2000/svg"
   xmlns:sodipodi="http://sodipodi.sourceforge.net/DTD/sodipodi-0.dtd"
   xmlns:inkscape="http://www.inkscape.org/namespaces/inkscape"
   height="100"
   width="100"
   id="svg2"
   version="1.1"
   inkscape:version="0.48.5 r10040"
   sodipodi:docname="104.svg">
  <metadata
     id="metadata10">
    <rdf:RDF>
      <cc:Work
         rdf:about="">
        <dc:format>image/svg+xml</dc:format>
        <dc:type
           rdf:resource="http://purl.org/dc/dcmitype/StillImage" />
        <dc:title />
      </cc:Work>
    </rdf:RDF>
  </metadata>
  <defs
     id="defs8" />
  <sodipodi:namedview
     pagecolor="#ffffff"
     bordercolor="#666666"
     borderopacity="1"
     objecttolerance="10"
     gridtolerance="10"
     guidetolerance="10"
     inkscape:pageopacity="0"
     inkscape:pageshadow="2"
     inkscape:window-width="959"
     inkscape:window-height="1013"
     id="namedview6"
     showgrid="false"
     inkscape:zoom="3.337544"
     inkscape:cx="55.774647"
     inkscape:cy="-1.7125999"
     inkscape:window-x="959"
     inkscape:window-y="27"
     inkscape:window-maximized="0"
     inkscape:current-layer="svg2" />
  <path
     id="path3806"
     d="m 53.562511,22.046599 c -12.627,0 -22.762,10.028749 -23.5,22.468749 -6.17,0.593 -10.9605,5.238002 -12.0625,11.250002 -0.362,-0.038 -0.64825,-0.15625 -1.03125,-0.15625 -6.7074,0 -12.21875,5.4855 -12.21875,12.1875 0,3.353 1.5923,6.174 3.9375,7.75 2.3476,1.577 5.25525,2.09375 8.28125,2.09375 l 31.15625,0 16.96875,0 15.625005,0 C 91.337764,77.64035 100,68.9801 100,58.3591 100,47.738098 91.339764,39.077848 80.718766,39.077848 c -1.612,0 -3.06425,0.4345 -4.531255,0.8125 -2.683,-10.171 -11.628,-17.84375 -22.625,-17.84375 z m -6e-6,4.5469 c 9.607,0 17.45325,7.119499 18.90625,16.312499 l 0.4375,2.75 2.625,-1.0625 c 1.650005,-0.626 3.377505,-0.9375 5.187505,-0.9375 8.171,0 14.75,6.549752 14.75,14.718752 0,8.171 -6.579,14.71875 -14.75,14.71875 l -15.625005,0 -16.96875,0 -31.15625,0 c -2.455,0 -4.5068,-0.50775 -5.75,-1.34375 -1.2429,-0.833 -1.9375,-1.8085 -1.9375,-3.9375 0,-4.249 3.4325,-7.65625 7.6875,-7.65625 0.705,0 1.37025,0.14 2.15625,0.375 l 2.96875,0.90625 0,-3.0625 c 0,-0.14 -0.0555,-0.13975 -0.0625,-0.21875 0,-0.128 -0.012,-0.12725 0,-0.15625 -0.002,-0.012 0.002,-0.0585 0,-0.0625 0.119,-5.058 4.19525,-9.09375 9.28125,-9.09375 -0.074,0 0.1735,0.0578 0.6875,0.0937 l 2.53125,0.125 -0.0937,-2.531252 c -0.028,-0.621 -0.15625,-0.80125 -0.15625,-0.65625 0,-10.645 8.62825,-19.28125 19.28125,-19.28125 z M 47.8125,0 l 0,17.0625 4.46875,0 0,-17.0625 -4.46875,0 z M 28.09375,4.875 24.3125,7.25 l 9,14.4375 3.78125,-2.34375 -9,-14.46875 z m 44.1875,0.4375 -8.25,14.90625 3.9375,2.1875 L 76.1875,7.5 72.28125,5.3125 z M 8.65625,21.5625 6.46875,25.5 21.3125,33.75 23.5,29.84375 8.65625,21.5625 z m 41.40625,0.65625 c -14.519395,0 -26.423081,11.246386 -27.53125,25.53125 1.306923,-1.135392 2.846324,-1.998265 4.53125,-2.5625 0.974555,-4.780584 3.397654,-9.032466 6.78125,-12.28125 C 33.85145,32.89424 33.86725,32.887 33.875,32.875 37.586783,27.127987 43.676863,23.096567 50.78125,22.25 50.539261,22.2437 50.306,22.21875 50.0625,22.21875 z M 91.8125,22.75 77.09375,31.28125 79.3125,35.1875 94.03125,26.65625 91.8125,22.75 z M 0,46.4375 l 0,4.46875 17,0 0,-4.46875 -17,0 z" />
</svg>
