<?xml version="1.0" encoding="UTF-8" standalone="no"?>
<svg
   xmlns:dc="http://purl.org/dc/elements/1.1/"
   xmlns:cc="http://creativecommons.org/ns#"
   xmlns:rdf="http://www.w3.org/1999/02/22-rdf-syntax-ns#"
   xmlns:svg="http://www.w3.org/2000/svg"
   xmlns="http://www.w3.org/2000/svg"
   xmlns:sodipodi="http://sodipodi.sourceforge.net/DTD/sodipodi-0.dtd"
   xmlns:inkscape="http://www.inkscape.org/namespaces/inkscape"
   height="100"
   width="100"
   id="svg2"
   version="1.1"
   inkscape:version="0.48.5 r10040"
   sodipodi:docname="105.svg">
  <metadata
     id="metadata10">
    <rdf:RDF>
      <cc:Work
         rdf:about="">
        <dc:format>image/svg+xml</dc:format>
        <dc:type
           rdf:resource="http://purl.org/dc/dcmitype/StillImage" />
        <dc:title></dc:title>
      </cc:Work>
    </rdf:RDF>
  </metadata>
  <defs
     id="defs8" />
  <sodipodi:namedview
     pagecolor="#ffffff"
     bordercolor="#666666"
     borderopacity="1"
     objecttolerance="10"
     gridtolerance="10"
     guidetolerance="10"
     inkscape:pageopacity="0"
     inkscape:pageshadow="2"
     inkscape:window-width="959"
     inkscape:window-height="1013"
     id="namedview6"
     showgrid="false"
     inkscape:zoom="3.337544"
     inkscape:cx="56.075451"
     inkscape:cy="34.241983"
     inkscape:window-x="959"
     inkscape:window-y="27"
     inkscape:window-maximized="0"
     inkscape:current-layer="svg2" />
  <path
     inkscape:connector-curvature="0"
     d="m 51.249663,22.125 c -4.936823,0 -9.500266,1.660399 -13.215029,4.4475 H 64.406588 C 60.711829,23.785399 56.175057,22.125 51.249663,22.125 z m -17.442237,8.524375 c -1.081092,1.358958 -2.002162,2.857272 -2.767974,4.4475 h 40.302314 c -0.76772,-1.59517 -1.686885,-3.084588 -2.767977,-4.4475 H 33.807426 z m -4.286264,8.524374 c -0.390527,1.434072 -0.653418,2.915584 -0.773434,4.447501 h 60.691588 c -2.79273,-1.874868 -6.09887,-2.965 -9.67362,-2.965 -2.22886,0 -4.35103,0.464517 -6.31033,1.235416 -0.14287,-0.936939 -0.35052,-1.821498 -0.59531,-2.717917 H 29.521162 z m -7.084719,8.524376 c -1.944058,1.024901 -3.594746,2.5499 -4.762516,4.447499 h 78.611989 c -0.63627,-1.60703 -1.47733,-3.104354 -2.50032,-4.447499 H 22.436443 z m -6.398916,8.524376 c -0.18288,0.86874 -0.268605,1.79284 -0.268605,2.71792 0,0.086 0.03048,0.16109 0.03048,0.24708 -0.960124,-0.29848 -1.956441,-0.52481 -3.006102,-0.52481 -2.251047,0 -4.340174,0.74917 -6.042868,2.00732 h 90.815454 c 0.0371,-0.49319 0.0591,-0.97945 0.0591,-1.48251 0,-1.01304 -0.0876,-1.99644 -0.23812,-2.965 H 16.037359 z m -12.620665,8.52438 c -0.633957,1.35006 -1.00308,2.85529 -1.041848,4.447491 h 92.422332 c 0.85059,-1.368831 1.51352,-2.862211 1.99454,-4.447491 H 3.417052 z m -0.238174,8.524371 c 1.580965,3.15673 5.297251,4.4475 9.614566,4.4475 h 66.972392 c 4.43105,0 8.48681,-1.67819 11.60912,-4.4475 H 3.178688 z"
     id="path3140" />
</svg>
