<?xml version="1.0" encoding="UTF-8" standalone="no"?>
<svg
   xmlns:dc="http://purl.org/dc/elements/1.1/"
   xmlns:cc="http://creativecommons.org/ns#"
   xmlns:rdf="http://www.w3.org/1999/02/22-rdf-syntax-ns#"
   xmlns:svg="http://www.w3.org/2000/svg"
   xmlns="http://www.w3.org/2000/svg"
   xmlns:sodipodi="http://sodipodi.sourceforge.net/DTD/sodipodi-0.dtd"
   xmlns:inkscape="http://www.inkscape.org/namespaces/inkscape"
   height="100"
   width="100"
   id="svg2"
   version="1.1"
   inkscape:version="0.48.5 r10040"
   sodipodi:docname="118.svg">
  <metadata
     id="metadata10">
    <rdf:RDF>
      <cc:Work
         rdf:about="">
        <dc:format>image/svg+xml</dc:format>
        <dc:type
           rdf:resource="http://purl.org/dc/dcmitype/StillImage" />
        <dc:title></dc:title>
      </cc:Work>
    </rdf:RDF>
  </metadata>
  <defs
     id="defs8" />
  <sodipodi:namedview
     pagecolor="#ffffff"
     bordercolor="#666666"
     borderopacity="1"
     objecttolerance="10"
     gridtolerance="10"
     guidetolerance="10"
     inkscape:pageopacity="0"
     inkscape:pageshadow="2"
     inkscape:window-width="959"
     inkscape:window-height="1013"
     id="namedview6"
     showgrid="false"
     inkscape:zoom="4.72"
     inkscape:cx="83.905413"
     inkscape:cy="39.336149"
     inkscape:window-x="959"
     inkscape:window-y="27"
     inkscape:window-maximized="0"
     inkscape:current-layer="svg2" />
  <path
     id="path3008-6"
     style="stroke:none"
     d="m 73.823599,78.385555 -5.448467,14.95056 1.168606,0.43378 5.599897,-15.38434 h -1.320036 z m 6.230957,0 -5.448467,14.95056 1.168606,0.43378 5.599897,-15.38434 h -1.320036 z m 6.212559,0 -5.429764,14.95056 1.168606,0.43378 5.599293,-15.38434 h -1.338135 z m -18.674467,0 -5.448467,14.95056 1.168606,0.43378 5.599897,-15.38434 h -1.320036 z m -6.230351,0 -5.449069,14.95056 1.169209,0.43378 5.599293,-15.38434 h -1.319433 z m -6.240911,0 -5.448466,14.95056 1.168606,0.43378 5.618599,-15.38434 H 55.121386 z M 31.4375,77.0625 23.1875,92 l 3.90625,2.15625 8.25,-14.9375 L 31.4375,77.0625 z M 19.40625,62.375 5,71.40625 7.34375,75.21875 21.75,66.15625 19.40625,62.375 z M 83,46.6875 l 0,1.75 c 0.637897,0.850728 1.168086,1.76635 1.625,2.75 l 15.375,0 0,-4.5 -17,0 z m -83,-0.25 0,4.46875 17,0 0,-4.46875 -17,0 z M 91.8125,22.75 77.09375,31.28125 79.3125,35.1875 94.03125,26.65625 91.8125,22.75 z m -41.75,-0.53125 c -15.25,0 -27.625,12.41675 -27.625,27.71875 0,15.193802 12.208439,27.550902 27.3125,27.71875 -1.768409,-0.01854 -3.468512,-0.351982 -4.84375,-1.3125 -1.230844,-0.860002 -2.102559,-2.314914 -2.3125,-4.0625 -0.0032,-0.0011 0.0032,-0.03017 0,-0.03125 -9.291412,-3.138195 -16,-11.933555 -16,-22.3125 0,-13.0067 10.50625,-23.5625 23.46875,-23.5625 10.478336,0 19.340002,6.911807 22.34375,16.4375 1.609684,0.05119 3.144889,0.36614 4.5625,0.9375 C 74.17298,31.418561 63.186364,22.21875 50.0625,22.21875 z M 8.65625,21.5625 6.46875,25.5 21.3125,33.75 23.5,29.84375 8.65625,21.5625 z m 63.625,-16.25 -8.25,14.90625 3.9375,2.1875 L 76.1875,7.5 72.28125,5.3125 z M 28.09375,4.875 24.3125,7.25 l 9,14.4375 3.78125,-2.34375 -9,-14.46875 z M 47.8125,0 l 0,17.0625 4.46875,0 0,-17.0625 -4.46875,0 z m 24.17148,45.6258 c 5.79596,0 10.529649,4.465881 11.406253,10.232415 l 0.263946,1.725004 1.583678,-0.666479 c 0.995455,-0.392673 2.037666,-0.588069 3.12965,-0.588069 4.929613,0 8.898763,4.10849 8.898763,9.232695 0,5.12546 -3.96915,9.232696 -8.898763,9.232696 l -9.426656,0 -10.237348,0 -18.796752,0 c -1.481116,0 -2.718979,-0.318498 -3.469009,-0.8429 -0.749849,-0.52252 -1.168905,-1.134426 -1.168905,-2.469893 0,-2.665289 2.070847,-4.80257 4.637914,-4.80257 0.425331,0 0.82668,0.08782 1.300879,0.235228 l 1.791064,0.568467 0,-1.921028 c 0,-0.08782 -0.03348,-0.08766 -0.03771,-0.137216 0,-0.08029 -0.0072,-0.07982 0,-0.09801 -0.0012,-0.0075 0.0012,-0.03669 0,-0.0392 0.07179,-3.172754 2.531019,-5.704277 5.599433,-5.704277 -0.04464,0 0.104674,0.03623 0.414773,0.05881 l 1.527119,0.07841 -0.05653,-1.587788 c -0.01689,-0.389538 -0.09427,-0.502604 -0.09427,-0.411649 0,-6.677337 5.205475,-12.094636 11.632494,-12.094636 z m 2e-6,-2.852139 c -7.617945,0 -13.732451,6.290779 -14.177691,14.094073 -3.722397,0.371973 -6.612535,3.285663 -7.277377,7.056837 -0.218398,-0.02384 -0.391093,-0.09801 -0.622161,-0.09801 -4.046613,0 -7.371645,3.440914 -7.371645,7.644907 0,2.103251 0.960645,3.872792 2.375518,4.861377 1.416322,0.989212 3.170524,1.313356 4.996127,1.313356 l 18.796753,0 10.237348,0 9.426655,0 c 6.406506,-1e-6 11.63249,-5.432355 11.63249,-12.094637 0,-6.662282 -5.224777,-12.094635 -11.632489,-12.094635 -0.972529,0 -1.84868,0.272551 -2.73373,0.50966 C 84.01511,47.586581 78.618538,42.773661 71.983983,42.773661 z" />
</svg>
