<?xml version="1.0" encoding="UTF-8" standalone="no"?>
<svg
   xmlns:dc="http://purl.org/dc/elements/1.1/"
   xmlns:cc="http://creativecommons.org/ns#"
   xmlns:rdf="http://www.w3.org/1999/02/22-rdf-syntax-ns#"
   xmlns:svg="http://www.w3.org/2000/svg"
   xmlns="http://www.w3.org/2000/svg"
   xmlns:sodipodi="http://sodipodi.sourceforge.net/DTD/sodipodi-0.dtd"
   xmlns:inkscape="http://www.inkscape.org/namespaces/inkscape"
   height="100"
   width="100"
   id="svg2"
   version="1.1"
   inkscape:version="0.48.5 r10040"
   sodipodi:docname="104.svg">
  <metadata
     id="metadata10">
    <rdf:RDF>
      <cc:Work
         rdf:about="">
        <dc:format>image/svg+xml</dc:format>
        <dc:type
           rdf:resource="http://purl.org/dc/dcmitype/StillImage" />
        <dc:title></dc:title>
      </cc:Work>
    </rdf:RDF>
  </metadata>
  <defs
     id="defs8" />
  <sodipodi:namedview
     pagecolor="#ffffff"
     bordercolor="#666666"
     borderopacity="1"
     objecttolerance="10"
     gridtolerance="10"
     guidetolerance="10"
     inkscape:pageopacity="0"
     inkscape:pageshadow="2"
     inkscape:window-width="959"
     inkscape:window-height="1013"
     id="namedview6"
     showgrid="false"
     inkscape:zoom="2.36"
     inkscape:cx="45.827891"
     inkscape:cy="28.40452"
     inkscape:window-x="959"
     inkscape:window-y="27"
     inkscape:window-maximized="0"
     inkscape:current-layer="svg2" />
  <g
     id="g3975"
     transform="translate(0.543697,0)">
    <path
       id="path3200"
       style="fill:#000000;fill-opacity:1;stroke:none"
       d="m 83.841236,79.707711 -5.819018,16.00231 1.750637,0 5.819018,-16.00231 -1.750637,0 z m -16.293098,0.006 -5.819018,16.00231 1.750637,0 5.819018,-16.00231 -1.750637,0 z m -24.439637,0 -5.819018,16.00231 1.750637,0 5.819018,-16.00231 -1.750637,0 z m 8.146548,0 -5.819019,16.00231 1.750637,0 5.819019,-16.00231 -1.750637,0 z m 24.439635,0 -5.819018,16.00231 1.750637,0 5.819018,-16.00231 -1.750637,0 z m -16.293088,0 -5.819019,16.00231 1.750637,0 5.819019,-16.00231 -1.750637,0 z M 47.268303,-2.5e-4 v 17.062 h 4.469 v -17.062 h -4.469 z m -19.718,4.8749998 -3.782,2.375 9,14.4380002 3.782,-2.344 -9,-14.4690002 z M 62.362553,37.59375 c 7.580015,0 13.791069,5.62163 14.9375,12.875 l 0.34375,2.15625 2.0625,-0.84375 c 1.301866,-0.49392 2.665643,-0.71875 4.09375,-0.71875 6.446997,0 11.65625,5.14833 11.65625,11.59375 0,6.447 -5.209253,11.625 -11.65625,11.625 l -12.3125,0 -13.40625,0 -24.5625,0 c -1.937018,0 -3.581603,-0.40289 -4.5625,-1.0625 -0.98066,-0.65724 -1.53125,-1.41395 -1.53125,-3.09375 0,-3.3525 2.736514,-6.0625 6.09375,-6.0625 0.556252,0 1.067338,0.12708 1.6875,0.3125 l 2.34375,0.71875 0,-2.4375 c 0,-0.11046 -0.05698,-0.09392 -0.0625,-0.15625 0,-0.10099 -0.0095,-0.10212 0,-0.125 -0.0016,-0.01 0.0016,-0.0594 0,-0.0625 0.09389,-3.99081 3.330847,-7.15625 7.34375,-7.15625 -0.05839,0 0.125699,0.0341 0.53125,0.0625 l 2,0.09375 -0.0625,-2 c -0.01325,-0.293982 -0.09374,-0.436716 -0.125,-0.5 0,-0.0286 -0.0098,-0.0674 0,-0.0625 0.03387,-8.370121 6.80316,-15.15625 15.1875,-15.15625 z M 49.518803,26.375 c 6.984193,0 13.238866,3.069772 17.53125,7.9375 -1.353965,-0.324113 -2.757002,-0.53125 -4.21875,-0.53125 -9.962824,0 -17.980211,7.93472 -18.5625,17.75 -4.868189,0.46788 -8.630511,4.13147 -9.5,8.875 -0.285621,-0.03 -0.510309,-0.125 -0.8125,-0.125 -1.74526,0 -3.394616,0.46065 -4.8125,1.28125 -1.948463,-3.434955 -3.09375,-7.392104 -3.09375,-11.625 0,-13.0067 10.50625,-23.5625 23.46875,-23.5625 z m 0,-4.15625 c -15.25,0 -27.625,12.41675 -27.625,27.71875 0,5.32461 1.496607,10.306208 4.09375,14.53125 -0.01288,0.01867 -0.0185,0.04373 -0.03125,0.0625 -0.118043,0.174633 -0.236964,0.348774 -0.34375,0.53125 -0.04798,0.08184 -0.0794,0.166664 -0.125,0.25 -0.117352,0.214264 -0.242522,0.432626 -0.34375,0.65625 -0.02836,0.06268 -0.06671,0.124129 -0.09375,0.1875 -0.02562,0.06001 -0.03808,0.126887 -0.0625,0.1875 -0.02483,0.06174 -0.03893,0.125149 -0.0625,0.1875 -0.06043,0.159508 -0.135471,0.305423 -0.1875,0.46875 -0.003,0.0095 0.003,0.02173 0,0.03125 -0.08128,0.25797 -0.159351,0.51469 -0.21875,0.78125 -0.0368,0.164066 -0.03431,0.332967 -0.0625,0.5 -0.0054,0.03204 -0.0262,0.0616 -0.03125,0.09375 -0.0267,0.16892 -0.04484,0.32836 -0.0625,0.5 -0.03259,0.318071 -0.0625,0.642727 -0.0625,0.96875 0,0.330694 0.02403,0.651994 0.0625,0.96875 0.0011,0.0099 -0.0012,0.0214 0,0.03125 0.197057,1.571071 0.838143,2.942347 1.78125,4 0.193679,0.219249 0.376292,0.4347 0.59375,0.625 0.216707,0.19068 0.450419,0.340679 0.6875,0.5 0.231535,0.155534 0.442837,0.307271 0.6875,0.4375 0.0077,0.0042 0.02349,-0.0041 0.03125,0 0.236652,0.124932 0.47115,0.240821 0.71875,0.34375 0.520653,0.21887 1.064089,0.36851 1.625,0.5 0.27588,0.06437 0.528938,0.141738 0.8125,0.1875 0.859454,0.141568 1.750388,0.1875 2.65625,0.1875 l 15.5625,0 9,0 13.40625,0 12.3125,0 c 4.704752,0 8.954058,-2.156523 11.75,-5.53125 0.0053,-0.0064 -0.0053,-0.02483 0,-0.03125 2.174544,-2.632621 3.46875,-5.989969 3.46875,-9.65625 0,-0.513317 -0.04365,-1.030718 -0.09375,-1.53125 -0.001,-0.01021 0.0011,-0.02105 0,-0.03125 -0.103226,-1.010643 -0.301242,-1.994249 -0.59375,-2.9375 -0.0029,-0.0094 0.0029,-0.02187 0,-0.03125 -0.887424,-2.841751 -2.603791,-5.326762 -4.84375,-7.1875 -0.01114,-0.0092 -0.02009,-0.02208 -0.03125,-0.03125 -0.752177,-0.621239 -1.543827,-1.155392 -2.40625,-1.625 -0.862423,-0.469608 -1.766773,-0.858966 -2.71875,-1.15625 -1.427966,-0.445926 -2.959987,-0.6875 -4.53125,-0.6875 -0.317971,0 -0.634324,0.02721 -0.9375,0.0625 -0.909528,0.105879 -1.756892,0.338812 -2.625,0.5625 C 80.542448,47.341055 80.377047,46.860569 80.206303,46.375 80.040769,45.902845 79.87486,45.454764 79.675053,45 c -0.0056,-0.01276 -0.02562,-0.01851 -0.03125,-0.03125 -0.20711,-0.468939 -0.414064,-0.926936 -0.65625,-1.375 -0.216314,-0.400989 -0.444554,-0.804486 -0.6875,-1.1875 -0.02787,-0.04367 -0.06554,-0.08157 -0.09375,-0.125 -0.271222,-0.417559 -0.573222,-0.824898 -0.875,-1.21875 -0.307881,-0.401818 -0.630767,-0.812189 -0.96875,-1.1875 -0.332204,-0.368894 -0.671609,-0.720984 -1.03125,-1.0625 C 75.037961,38.533586 74.735782,38.259193 74.425053,38 69.98091,28.676054 60.495893,22.21875 49.518803,22.21875 z m 22.2185,-16.9065002 -8.25,14.9060002 3.938,2.187 8.219,-14.9060002 -3.907,-2.1875 z m -63.625,16.2500002 -2.1874,3.938 14.843,8.25 2.188,-3.906 -14.8439999,-8.282 z m 83.156,1.188 -14.718,8.531 2.218,3.907 14.719,-8.532 -2.219,-3.906 z m -91.81199995,23.688 v 4.468 H 16.456303 v -4.468 H -0.54369695 z m 19.40599995,15.937 -14.4059999,9.031 2.3438,3.813 14.4059999,-9.063 -2.344,-3.781 z" />
  </g>
</svg>
