<?xml version="1.0" encoding="UTF-8" standalone="no"?>
<svg
   xmlns:dc="http://purl.org/dc/elements/1.1/"
   xmlns:cc="http://creativecommons.org/ns#"
   xmlns:rdf="http://www.w3.org/1999/02/22-rdf-syntax-ns#"
   xmlns:svg="http://www.w3.org/2000/svg"
   xmlns="http://www.w3.org/2000/svg"
   xmlns:sodipodi="http://sodipodi.sourceforge.net/DTD/sodipodi-0.dtd"
   xmlns:inkscape="http://www.inkscape.org/namespaces/inkscape"
   height="100"
   width="100"
   id="svg2"
   version="1.1"
   inkscape:version="0.48.5 r10040"
   sodipodi:docname="108.svg">
  <metadata
     id="metadata10">
    <rdf:RDF>
      <cc:Work
         rdf:about="">
        <dc:format>image/svg+xml</dc:format>
        <dc:type
           rdf:resource="http://purl.org/dc/dcmitype/StillImage" />
        <dc:title></dc:title>
      </cc:Work>
    </rdf:RDF>
  </metadata>
  <defs
     id="defs8" />
  <sodipodi:namedview
     pagecolor="#ffffff"
     bordercolor="#666666"
     borderopacity="1"
     objecttolerance="10"
     gridtolerance="10"
     guidetolerance="10"
     inkscape:pageopacity="0"
     inkscape:pageshadow="2"
     inkscape:window-width="1663"
     inkscape:window-height="821"
     id="namedview6"
     showgrid="false"
     inkscape:zoom="4.72"
     inkscape:cx="24.611551"
     inkscape:cy="45.989562"
     inkscape:window-x="66"
     inkscape:window-y="53"
     inkscape:window-maximized="0"
     inkscape:current-layer="svg2" />
  <path
     id="path4-7-5"
     d="m 30.043789,88.90417 0.67818,1.001585 1.26291,0 0.58268,-1.001585 -0.61389,-1.066575 -1.26531,0 z m 0.52008,8.054863 0,-2.264666 -1.26531,0.711626 -0.64458,-0.369019 0,-0.797874 1.87645,-1.066574 0,-1.488403 -1.36134,0.874865 0,-1.576884 -1.30132,0.750032 0,2.13795 -0.71179,0.441034 -0.60154,-0.397994 0,-1.432846 -1.97505,1.114245 -0.84348,-0.354953 0,-0.903673 2.07296,-1.133278 -1.29652,-0.651777 0,-0.826853 0.7358,-0.402794 1.85964,1.095039 1.29172,-0.74523 -0.0312,-0.02384 -1.32053,-0.757405 1.28212,-0.795644 -1.28692,-0.74523 -1.85947,1.092638 -0.69756,-0.347408 0,-0.824452 1.25845,-0.706992 -2.00849,-1.090581 0,-0.903501 0.77164,-0.397651 1.97951,1.143052 0,-1.457022 0.59673,-0.402624 0.73117,0.421829 -0.005,2.180819 1.32996,0.759634 -0.005,-1.540874 1.39478,0.750202 0,-1.488403 -1.87645,-1.068803 0,-0.790842 0.64457,-0.373816 1.26532,0.711792 0,-2.260041 0.72397,-0.474643 0.73065,0.474643 0,2.260041 1.3111,-0.726196 0.65932,0.436233 0,0.711792 -1.94144,1.09984 0,1.488403 1.3279,-0.810047 0,1.620095 1.3682,-0.745573 0,-2.331717 0.65915,-0.306768 0.69242,0.306768 0,1.490804 2.03695,-1.100184 0.71213,0.433832 0,0.843486 -1.98928,1.13122 1.24388,0.697217 0,0.805419 -0.64474,0.357182 -1.90989,-1.12882 -1.3207,0.838856 1.27732,0.795987 -1.31573,0.757234 1.35911,0.711621 1.90989,-1.066748 0.61353,0.433832 0,0.769409 -1.19826,0.673382 1.90783,1.13345 0,0.889612 -0.80765,0.369014 -1.87439,-1.066745 0,1.411582 -0.67338,0.376216 -0.65898,-0.376216 0,-2.142752 -1.38758,-0.790672 0,1.488403 -1.3279,-0.810218 0,1.488403 1.87662,1.066574 0,0.843657 -0.64749,0.323402 -1.25811,-0.711621 0,2.264671 -0.73048,0.4695 z M 73.078,1.875 l 0,8.5312 2.2188,0 0,-8.5312 -2.2188,0 z M 63.203,4.2812 61.328,5.5 l 4.5,7.2188 1.9062,-1.1875 -4.5312,-7.25 z m 22.125,0.25 -4.125,7.4375 1.9375,1.0938 4.125,-7.4688 -1.9375,-1.0625 z m -31.844,8.125 -1.0625,1.9375 7.4062,4.1562 1.0938,-1.9688 -7.4375,-4.125 z m 20.7035,0.31255 c -7.625,0 -13.78125,6.224 -13.78125,13.875 0,7.65 6.15675,13.84475 13.78125,13.84375 7.619,0 13.78125,-6.19255 13.78125,-13.84375 0,-7.65 -6.16245,-13.875 -13.78125,-13.875 z m 0,2.09375 c 6.47598,0 11.71875,5.27875 11.71875,11.78125 0,6.50352 -5.2426,11.75 -11.71875,11.75 -6.480825,8.5e-4 -11.71875,-5.2475 -11.71875,-11.75 0,-6.50335 5.2375,-11.78125 11.71875,-11.78125 z m 20.8905,-1.81255 -7.375,4.25 1.125,1.9688 7.375,-4.2812 -1.125,-1.9375 z m -45.906,11.812 0,2.25 8.5,0 0,-2.25 -8.5,0 z m 41.5,0.15625 0,2.2188 8.5,0 0,-2.2188 -8.5,0 z m -31.812,7.8125 -7.1875,4.5312 1.1562,1.9062 7.2188,-4.5312 -1.1875,-1.9062 z m 30.25,0.5 -1.0625,1.9688 7.4062,4.125 1.0938,-1.9688 -7.4375,-4.125 z m -5.656,6.8125 -1.9062,1.125 4.25,7.375 1.9062,-1.125 -4.25,-7.375 z m -18.562,0.0625 -4.125,7.4375 1.9688,1.0938 4.125,-7.4688 -1.9688,-1.0625 z m 8.0625,2.9375 0,8.5312 2.2188,0 0,-8.5312 -2.2188,0 z m -57.344,36.938 -6.3438,17.344 1.375,0.5 6.5,-17.844 -1.5312,0 z m 36.124,0 -6.2812,17.344 1.3438,0.5 6.5,-17.844 -1.5625,0 z m -6.0285,0 -6.2812,17.344 1.3438,0.5 6.5,-17.844 -1.5625,0 z m -24.114,0 -6.2812,17.344 1.3438,0.5 6.5,-17.844 -1.5625,0 z M 35.03125,37.09375 c -8.8406,0 -15.95175,7.0403 -16.46875,15.75 -4.3198,0.41518 -7.666,3.6658 -8.4375,7.875 -0.25345,-0.02661 -0.4506,-0.125 -0.71875,-0.125 -4.6961,0 -8.5625,3.83895 -8.5625,8.53125 0,2.3476 1.108,4.3341 2.75,5.4375 1.6436,1.1041 3.6939,1.46875 5.8125,1.46875 l 21.78125,0 11.875,0 10.96875,0 c 7.4348,0 13.5,-6.0639 13.5,-13.5 0,-7.4361 -6.0638,-13.5 -13.5,-13.5 -1.1286,0 -2.1604,0.29785 -3.1875,0.5625 -1.8785,-7.1211 -8.1136,-12.5 -15.8125,-12.5 z m 0,3.1875 c 6.7262,0 12.20075,4.97015 13.21875,11.40625 l 0.3125,1.9375 1.84375,-0.75 c 1.1552,-0.43828 2.3578,-0.65625 3.625,-0.65625 5.7208,0 10.34375,4.5936 10.34375,10.3125 0,5.7208 -4.62265,10.3125 -10.34375,10.3125 l -10.9375,0 -11.875,0 -21.8125,0 c -1.7188,0 -3.16085,-0.35219 -4.03125,-0.9375 C 4.5048,71.32303 4.03125,70.6155 4.03125,69.125 c 0,-2.9749 2.3959,-5.34375 5.375,-5.34375 0.49359,0 0.94969,0.08547 1.5,0.25 l 2.09375,0.625 0,-2.125 c 0,-0.09802 -0.0576,-0.10094 -0.0625,-0.15625 0,-0.08962 -0.008,-0.1047 0,-0.125 -10e-4,-0.0084 10e-4,-0.02845 0,-0.03125 0.0833,-3.5413 2.9391,-6.375 6.5,-6.375 -0.0518,0 0.14013,0.0373 0.5,0.0625 L 21.6875,56 21.625,54.25 c -0.01274,-0.28261 -0.06568,-0.42474 -0.09375,-0.46875 0,-0.02538 -0.0087,-0.03558 0,-0.03125 0.01709,-7.4384 6.052,-13.46875 13.5,-13.46875 z" />
</svg>
