<?xml version="1.0" encoding="UTF-8" standalone="no"?>
<svg
   xmlns:dc="http://purl.org/dc/elements/1.1/"
   xmlns:cc="http://creativecommons.org/ns#"
   xmlns:rdf="http://www.w3.org/1999/02/22-rdf-syntax-ns#"
   xmlns:svg="http://www.w3.org/2000/svg"
   xmlns="http://www.w3.org/2000/svg"
   xmlns:sodipodi="http://sodipodi.sourceforge.net/DTD/sodipodi-0.dtd"
   xmlns:inkscape="http://www.inkscape.org/namespaces/inkscape"
   height="100"
   width="100"
   id="svg2"
   version="1.1"
   inkscape:version="0.48.5 r10040"
   sodipodi:docname="108.svg">
  <metadata
     id="metadata10">
    <rdf:RDF>
      <cc:Work
         rdf:about="">
        <dc:format>image/svg+xml</dc:format>
        <dc:type
           rdf:resource="http://purl.org/dc/dcmitype/StillImage" />
        <dc:title></dc:title>
      </cc:Work>
    </rdf:RDF>
  </metadata>
  <defs
     id="defs8" />
  <sodipodi:namedview
     pagecolor="#ffffff"
     bordercolor="#666666"
     borderopacity="1"
     objecttolerance="10"
     gridtolerance="10"
     guidetolerance="10"
     inkscape:pageopacity="0"
     inkscape:pageshadow="2"
     inkscape:window-width="959"
     inkscape:window-height="1013"
     id="namedview6"
     showgrid="false"
     inkscape:zoom="3.337544"
     inkscape:cx="59.128026"
     inkscape:cy="50.304439"
     inkscape:window-x="959"
     inkscape:window-y="27"
     inkscape:window-maximized="0"
     inkscape:current-layer="svg2" />
  <path
     style="fill:#000000;fill-opacity:1;stroke:none"
     d="M 53.5625 22.03125 C 40.9355 22.03125 30.8005 32.06 30.0625 44.5 C 23.8925 45.093 19.102 49.738 18 55.75 C 17.638 55.712 17.35175 55.59375 16.96875 55.59375 C 10.26135 55.59375 4.75 61.07925 4.75 67.78125 C 4.75 71.13425 6.3423 73.95525 8.6875 75.53125 C 11.0351 77.10825 13.94275 77.625 16.96875 77.625 L 48.125 77.625 L 65.09375 77.625 L 80.71875 77.625 C 91.337748 77.625 100 68.96475 100 58.34375 C 100 47.722748 91.339748 39.0625 80.71875 39.0625 C 79.10675 39.0625 77.654505 39.497 76.1875 39.875 C 73.5045 29.704 64.5595 22.03125 53.5625 22.03125 z M 53.5625 26.59375 C 63.1695 26.59375 71.01575 33.71325 72.46875 42.90625 L 72.90625 45.65625 L 75.53125 44.59375 C 77.181255 43.96775 78.90875 43.65625 80.71875 43.65625 C 88.88975 43.65625 95.46875 50.206 95.46875 58.375 C 95.46875 66.546 88.88975 73.09375 80.71875 73.09375 L 65.09375 73.09375 L 48.125 73.09375 L 16.96875 73.09375 C 14.51375 73.09375 12.46195 72.586 11.21875 71.75 C 9.97585 70.917 9.28125 69.9415 9.28125 67.8125 C 9.28125 63.5635 12.71375 60.15625 16.96875 60.15625 C 17.67375 60.15625 18.339 60.29625 19.125 60.53125 L 22.09375 61.4375 L 22.09375 58.375 C 22.09375 58.235 22.03825 58.23525 22.03125 58.15625 C 22.03125 58.02825 22.01925 58.029 22.03125 58 C 22.02925 57.988 22.03325 57.9415 22.03125 57.9375 C 22.15025 52.8795 26.2265 48.84375 31.3125 48.84375 C 31.2385 48.84375 31.486 48.9016 32 48.9375 L 34.53125 49.0625 L 34.4375 46.53125 C 34.4095 45.91025 34.28125 45.73 34.28125 45.875 C 34.28125 35.23 42.9095 26.59375 53.5625 26.59375 z M 25.84375 79.71875 L 24.40625 83.65625 L 26.625 83.65625 L 28.0625 79.71875 L 25.84375 79.71875 z M 43.03125 79.71875 L 41.59375 83.65625 L 43.8125 83.65625 L 45.25 79.71875 L 43.03125 79.71875 z M 60.25 79.71875 L 58.8125 83.65625 L 61.03125 83.65625 L 62.46875 79.71875 L 60.25 79.71875 z M 77.46875 79.71875 L 76.03125 83.65625 L 78.25 83.65625 L 79.6875 79.71875 L 77.46875 79.71875 z M 23.375 86.53125 L 22.46875 89.03125 L 24.6875 89.03125 L 25.59375 86.53125 L 23.375 86.53125 z M 40.5625 86.53125 L 39.65625 89.03125 L 41.875 89.03125 L 42.78125 86.53125 L 40.5625 86.53125 z M 57.78125 86.53125 L 56.875 89.03125 L 59.09375 89.03125 L 60 86.53125 L 57.78125 86.53125 z M 75 86.53125 L 74.09375 89.03125 L 76.3125 89.03125 L 77.21875 86.53125 L 75 86.53125 z M 21.4375 91.875 L 20.53125 94.375 L 22.75 94.375 L 23.65625 91.875 L 21.4375 91.875 z M 38.625 91.875 L 37.71875 94.375 L 39.9375 94.375 L 40.84375 91.875 L 38.625 91.875 z M 55.84375 91.875 L 54.9375 94.375 L 57.15625 94.375 L 58.0625 91.875 L 55.84375 91.875 z M 73.0625 91.875 L 72.15625 94.375 L 74.375 94.375 L 75.28125 91.875 L 73.0625 91.875 z M 19.5 97.21875 L 18.46875 100 L 20.6875 100 L 21.71875 97.21875 L 19.5 97.21875 z M 36.6875 97.21875 L 35.65625 100 L 37.875 100 L 38.90625 97.21875 L 36.6875 97.21875 z M 53.90625 97.21875 L 52.875 100 L 55.09375 100 L 56.125 97.21875 L 53.90625 97.21875 z M 71.125 97.21875 L 70.09375 100 L 72.3125 100 L 73.34375 97.21875 L 71.125 97.21875 z "
     id="path5038" />
</svg>
