<?xml version="1.0" encoding="UTF-8" standalone="no"?>
<svg
   xmlns:dc="http://purl.org/dc/elements/1.1/"
   xmlns:cc="http://creativecommons.org/ns#"
   xmlns:rdf="http://www.w3.org/1999/02/22-rdf-syntax-ns#"
   xmlns:svg="http://www.w3.org/2000/svg"
   xmlns="http://www.w3.org/2000/svg"
   xmlns:sodipodi="http://sodipodi.sourceforge.net/DTD/sodipodi-0.dtd"
   xmlns:inkscape="http://www.inkscape.org/namespaces/inkscape"
   height="100"
   width="100"
   id="svg2"
   version="1.1"
   inkscape:version="0.48.5 r10040"
   sodipodi:docname="112.svg">
  <metadata
     id="metadata10">
    <rdf:RDF>
      <cc:Work
         rdf:about="">
        <dc:format>image/svg+xml</dc:format>
        <dc:type
           rdf:resource="http://purl.org/dc/dcmitype/StillImage" />
        <dc:title />
      </cc:Work>
    </rdf:RDF>
  </metadata>
  <defs
     id="defs8" />
  <sodipodi:namedview
     pagecolor="#ffffff"
     bordercolor="#666666"
     borderopacity="1"
     objecttolerance="10"
     gridtolerance="10"
     guidetolerance="10"
     inkscape:pageopacity="0"
     inkscape:pageshadow="2"
     inkscape:window-width="959"
     inkscape:window-height="1014"
     id="namedview6"
     showgrid="false"
     inkscape:zoom="3.337544"
     inkscape:cx="59.727269"
     inkscape:cy="50.304439"
     inkscape:window-x="960"
     inkscape:window-y="27"
     inkscape:window-maximized="0"
     inkscape:current-layer="svg2" />
  <path
     id="path4-5-3-5"
     style="stroke:none"
     d="m 53.562505,26.593499 c 9.607,0 17.45325,7.119499 18.90625,16.312499 l 0.4375,2.75 2.625,-1.0625 c 1.650005,-0.626 3.377505,-0.9375 5.187505,-0.9375 8.171,0 14.75,6.549752 14.75,14.718752 0,8.171 -6.579,14.71875 -14.75,14.71875 l -15.625005,0 -16.96875,0 -31.15625,0 c -2.455,0 -4.5068,-0.50775 -5.75,-1.34375 -1.2429,-0.833 -1.9375,-1.8085 -1.9375,-3.9375 0,-4.249 3.4325,-7.65625 7.6875,-7.65625 0.705,0 1.37025,0.14 2.15625,0.375 l 2.96875,0.90625 0,-3.0625 c 0,-0.14 -0.0555,-0.13975 -0.0625,-0.21875 0,-0.128 -0.012,-0.12725 0,-0.15625 -0.002,-0.012 0.002,-0.0585 0,-0.0625 0.119,-5.058 4.19525,-9.09375 9.28125,-9.09375 -0.074,0 0.1735,0.0578 0.6875,0.0937 l 2.53125,0.125 -0.0937,-2.531252 c -0.028,-0.621 -0.15625,-0.80125 -0.15625,-0.65625 0,-10.645 8.62825,-19.28125 19.28125,-19.28125 z m 6e-6,-4.5469 c -12.627,0 -22.762,10.028749 -23.5,22.468749 -6.17,0.593 -10.9605,5.238002 -12.0625,11.250002 -0.362,-0.038 -0.64825,-0.15625 -1.03125,-0.15625 -6.7074,0 -12.21875,5.4855 -12.21875,12.1875 0,3.353 1.5923,6.174 3.9375,7.75 2.3476,1.577 5.25525,2.09375 8.28125,2.09375 l 31.15625,0 16.96875,0 15.625005,0 C 91.337764,77.64035 100,68.9801 100,58.3591 100,47.738098 91.339764,39.077848 80.718766,39.077848 c -1.612,0 -3.06425,0.4345 -4.531255,0.8125 -2.683,-10.171 -11.628,-17.84375 -22.625,-17.84375 z m 26.206705,77.516564 0,-2.106617 -1.194825,0.661951 -0.608662,-0.343254 0,-0.742192 1.771913,-0.992144 0,-1.384528 -1.285502,0.813815 0,-1.466843 -1.228823,0.697697 0,1.98874 -0.67214,0.410258 -0.568023,-0.370225 0,-1.332844 -1.865011,1.036481 -0.796498,-0.330183 0,-0.840611 1.957478,-1.05418 -1.224294,-0.606294 0,-0.769145 0.694809,-0.374678 1.756043,1.018608 1.219752,-0.693218 -0.02948,-0.02222 -1.246956,-0.704547 1.210689,-0.74011 -1.215224,-0.693227 -1.755878,1.016386 -0.6587,-0.323159 0,-0.766915 1.188342,-0.657656 -1.896592,-1.014469 0,-0.840444 0.728648,-0.369902 1.86923,1.063281 0,-1.355336 0.563488,-0.374526 0.690433,0.39239 -0.0044,2.028621 1.255868,0.706619 -0.0044,-1.433339 1.31707,0.697846 0,-1.384527 -1.771912,-0.994213 0,-0.735655 0.608668,-0.347728 1.194819,0.662126 0,-2.102319 0.683632,-0.441519 0.689952,0.441519 0,2.102319 1.238057,-0.675521 0.62259,0.405785 0,0.662125 -1.833284,1.023081 0,1.384527 1.253926,-0.753512 0,1.507024 1.291972,-0.693534 0,-2.168988 0.622426,-0.285364 0.653841,0.285364 0,1.386758 1.923474,-1.023398 0.672456,0.403554 0,0.784617 -1.878452,1.052272 1.17458,0.648563 0,0.749207 -0.608827,0.332257 -1.803487,-1.050041 -1.247121,0.780309 1.20616,0.740432 -1.242428,0.70439 1.283389,0.661961 1.803487,-0.992309 0.579357,0.403557 0,0.715718 -1.13151,0.626389 1.801545,1.054346 0,0.827522 -0.762653,0.343263 -1.76997,-0.9923 0,1.313063 -0.635866,0.349964 -0.622266,-0.349964 0,-1.993202 -1.310271,-0.735491 0,1.384529 -1.25392,-0.753678 0,1.384528 1.77207,0.992135 0,0.784779 -0.611413,0.300833 -1.188026,-0.661952 0,2.106617 L 80.452778,100 z m -0.49111,-7.49272 0.640401,0.931684 1.192554,0 0.550212,-0.931684 -0.57968,-0.992134 -1.194825,0 z m -29.478298,2.556009 0,-2.106617 -1.194825,0.66196 -0.608662,-0.343263 0,-0.742192 1.771913,-0.992135 0,-1.384528 -1.285502,0.813806 0,-1.466834 -1.228822,0.697688 0,1.988749 -0.672141,0.410249 -0.568016,-0.370216 0,-1.332844 -1.865018,1.036472 -0.796498,-0.330174 0,-0.840611 1.957478,-1.054184 -1.224294,-0.606291 0,-0.769145 0.69481,-0.374682 1.756043,1.018614 1.219758,-0.693218 -0.02948,-0.02218 -1.246962,-0.704545 1.210688,-0.740116 -1.215224,-0.693223 -1.755878,1.016382 -0.658699,-0.323159 0,-0.766915 1.188342,-0.657651 -1.896586,-1.014471 0,-0.840443 0.728649,-0.369903 1.869223,1.063282 0,-1.355336 0.563488,-0.374526 0.690432,0.392389 -0.0044,2.028621 1.255868,0.70662 -0.0044,-1.433339 1.31707,0.697846 0,-1.384527 -1.771905,-0.994214 0,-0.735648 0.608662,-0.347727 1.194819,0.662119 0,-2.102313 0.683639,-0.441518 0.689945,0.441518 0,2.102313 1.238056,-0.675516 0.622591,0.405786 0,0.662119 -1.833279,1.023081 0,1.384527 1.25392,-0.753512 0,1.507025 1.291973,-0.693535 0,-2.168989 0.622431,-0.285363 0.653842,0.285363 0,1.386759 1.923468,-1.023399 0.672462,0.403555 0,0.784616 -1.878458,1.052272 1.174585,0.648561 0,0.749207 -0.608827,0.332256 -1.803487,-1.050041 -1.247121,0.78031 1.206154,0.740434 -1.242427,0.704389 1.283394,0.661957 1.803487,-0.9923 0.579352,0.403554 0,0.715717 -1.131505,0.626386 1.801539,1.054343 0,0.827531 -0.762652,0.343263 -1.769964,-0.9923 0,1.313062 -0.635872,0.349965 -0.622261,-0.349965 0,-1.993201 -1.310277,-0.735496 0,1.384525 -1.25392,-0.753669 0,1.384528 1.77207,0.992135 0,0.784779 -0.611413,0.300833 -1.188019,-0.661961 0,2.106626 -0.689787,0.436732 z m -0.49111,-7.492713 0.640401,0.931682 1.192555,0 0.550211,-0.931682 -0.57968,-0.992138 -1.194825,0 z m -29.47829,12.429424 0,-2.106617 -1.194819,0.661951 -0.608662,-0.343254 0,-0.742192 1.771906,-0.992144 0,-1.384528 -1.285495,0.813815 0,-1.466843 -1.228823,0.697697 0,1.98874 -0.672139,0.410258 -0.568024,-0.370225 0,-1.332844 -1.865017,1.036481 -0.796491,-0.330183 0,-0.840611 1.957471,-1.05418 -1.224288,-0.606294 0,-0.769145 0.694803,-0.374678 1.756043,1.018608 1.219758,-0.693218 -0.02948,-0.02222 -1.246957,-0.704547 1.210688,-0.74011 -1.215223,-0.693227 -1.755885,1.016386 -0.658692,-0.323159 0,-0.766915 1.188341,-0.657656 -1.896591,-1.014469 0,-0.840444 0.728648,-0.369902 1.86923,1.063281 0,-1.355336 0.563488,-0.374526 0.690432,0.39239 -0.0044,2.028621 1.255869,0.706619 -0.0044,-1.433339 1.31707,0.697846 0,-1.384527 -1.771913,-0.994213 0,-0.735655 0.608668,-0.347728 1.194819,0.662126 0,-2.102319 0.683633,-0.441519 0.689952,0.441519 0,2.102319 1.238051,-0.675521 0.622589,0.405785 0,0.662125 -1.833278,1.023081 0,1.384527 1.253927,-0.753512 0,1.507024 1.291971,-0.693534 0,-2.168988 0.622426,-0.285364 0.653842,0.285364 0,1.386758 1.923473,-1.023398 0.672457,0.403554 0,0.784617 -1.878452,1.052272 1.174579,0.648563 0,0.749207 -0.608826,0.332257 -1.803488,-1.050041 -1.24712,0.780309 1.206159,0.740432 -1.242428,0.70439 1.283389,0.661961 1.803488,-0.992309 0.579357,0.403557 0,0.715718 -1.131511,0.626389 1.801545,1.054346 0,0.827522 -0.762652,0.343263 -1.76997,-0.9923 0,1.313063 -0.635867,0.349964 -0.622266,-0.349964 0,-1.993202 -1.310271,-0.735491 0,1.384529 -1.25392,-0.753678 0,1.384528 1.77207,0.992135 0,0.784779 -0.611419,0.300833 -1.18802,-0.661952 0,2.106617 L 20.513976,100 z m -0.491104,-7.49272 0.640401,0.931684 1.192555,0 0.550205,-0.931684 -0.57968,-0.992134 -1.19482,0 z" />
</svg>
