<?xml version="1.0" encoding="UTF-8" standalone="no"?>
<svg
   xmlns:dc="http://purl.org/dc/elements/1.1/"
   xmlns:cc="http://creativecommons.org/ns#"
   xmlns:rdf="http://www.w3.org/1999/02/22-rdf-syntax-ns#"
   xmlns:svg="http://www.w3.org/2000/svg"
   xmlns="http://www.w3.org/2000/svg"
   xmlns:sodipodi="http://sodipodi.sourceforge.net/DTD/sodipodi-0.dtd"
   xmlns:inkscape="http://www.inkscape.org/namespaces/inkscape"
   height="100"
   width="100"
   id="svg2"
   version="1.1"
   inkscape:version="0.48.5 r10040"
   sodipodi:docname="110.svg">
  <metadata
     id="metadata10">
    <rdf:RDF>
      <cc:Work
         rdf:about="">
        <dc:format>image/svg+xml</dc:format>
        <dc:type
           rdf:resource="http://purl.org/dc/dcmitype/StillImage" />
        <dc:title></dc:title>
      </cc:Work>
    </rdf:RDF>
  </metadata>
  <defs
     id="defs8" />
  <sodipodi:namedview
     pagecolor="#ffffff"
     bordercolor="#666666"
     borderopacity="1"
     objecttolerance="10"
     gridtolerance="10"
     guidetolerance="10"
     inkscape:pageopacity="0"
     inkscape:pageshadow="2"
     inkscape:window-width="1429"
     inkscape:window-height="839"
     id="namedview6"
     showgrid="false"
     inkscape:zoom="4.72"
     inkscape:cx="8.3983903"
     inkscape:cy="40.594302"
     inkscape:window-x="95"
     inkscape:window-y="153"
     inkscape:window-maximized="0"
     inkscape:current-layer="svg2" />
  <path
     d="M 51.1875 6.8125 C 38.5605 6.8125 28.4255 16.84125 27.6875 29.28125 C 21.5175 29.87425 16.727 34.51925 15.625 40.53125 C 15.263 40.49325 14.97675 40.375 14.59375 40.375 C 7.88635 40.375 2.375 45.8605 2.375 52.5625 C 2.375 55.9155 3.9673 58.7365 6.3125 60.3125 C 8.6601 61.8895 11.56775 62.40625 14.59375 62.40625 L 45.75 62.40625 L 62.71875 62.40625 L 78.34375 62.40625 C 88.96275 62.40625 97.625 53.746 97.625 43.125 C 97.625 32.504 88.96475 23.84375 78.34375 23.84375 C 76.73175 23.84375 75.2795 24.27825 73.8125 24.65625 C 71.1295 14.48525 62.1845 6.8125 51.1875 6.8125 z M 51.1875 11.34375 C 60.7945 11.34375 68.64075 18.46325 70.09375 27.65625 L 70.53125 30.40625 L 73.15625 29.34375 C 74.80625 28.71775 76.53375 28.40625 78.34375 28.40625 C 86.51475 28.40625 93.09375 34.956 93.09375 43.125 C 93.09375 51.296 86.51475 57.84375 78.34375 57.84375 L 62.71875 57.84375 L 45.75 57.84375 L 14.59375 57.84375 C 12.13875 57.84375 10.08695 57.336 8.84375 56.5 C 7.60085 55.667 6.90625 54.6915 6.90625 52.5625 C 6.90625 48.3135 10.33875 44.90625 14.59375 44.90625 C 15.29875 44.90625 15.964 45.04625 16.75 45.28125 L 19.71875 46.1875 L 19.71875 43.125 C 19.71875 42.985 19.66325 42.98525 19.65625 42.90625 C 19.65625 42.77825 19.64425 42.779 19.65625 42.75 C 19.65425 42.738 19.65825 42.6915 19.65625 42.6875 C 19.77525 37.6295 23.8515 33.59375 28.9375 33.59375 C 28.8635 33.59375 29.111 33.6515 29.625 33.6875 L 32.15625 33.8125 L 32.0625 31.28125 C 32.0345 30.66025 31.90625 30.48 31.90625 30.625 C 31.90625 19.98 40.5345 11.34375 51.1875 11.34375 z "
     id="path4" />
  <path
     inkscape:connector-curvature="0"
     d="m 75.591683,84.380975 1.01248,1.49529 1.88544,0 0.869888,-1.49529 -0.91648,-1.59232 -1.889024,0 z m 0.776448,12.02534 0,-3.38099 -1.889024,1.0624 -0.962304,-0.55091 0,-1.19117 2.801408,-1.59232 0,-2.22208 -2.032384,1.30611 0,-2.35418 -1.942784,1.11975 0,3.19181 -1.062656,0.65843 -0.898048,-0.59418 0,-2.13913 -2.948608,1.66348 -1.259264,-0.52992 0,-1.34912 3.094784,-1.6919 -1.935616,-0.97306 0,-1.23443 1.098496,-0.60134 2.77632,1.63481 1.928448,-1.11257 -0.04659,-0.0356 -1.971456,-1.13075 1.914112,-1.18784 -1.92128,-1.11258 -2.776064,1.63123 -1.041408,-0.51865 0,-1.23085 1.878784,-1.05549 -2.998528,-1.62816 0,-1.34886 1.152,-0.59367 2.955264,1.7065 0,-2.17523 0.89088,-0.60109 1.091584,0.62976 -0.0072,3.25581 1.985536,1.13408 -0.0069,-2.30042 2.082304,1.12 0,-2.22208 -2.801408,-1.59565 0,-1.180671 0.962304,-0.55808 1.889024,1.062661 0,-3.374085 1.080832,-0.708608 1.090816,0.708608 0,3.374085 1.957376,-1.084165 0.98432,0.651264 0,1.062661 -2.898432,1.64198 0,2.22208 1.982464,-1.20934 0,2.41868 2.042624,-1.11308 0,-3.48109 0.984063,-0.45799 1.033728,0.45799 0,2.22566 3.041024,-1.64249 1.063168,0.64768 0,1.25926 -2.969856,1.68883 1.857024,1.0409 0,1.20243 -0.96256,0.53325 -2.851328,-1.68525 -1.971711,1.25235 1.906943,1.18835 -1.964287,1.1305 2.029055,1.0624 2.851328,-1.59258 0.915968,0.64768 0,1.14868 -1.788928,1.00531 2.848256,1.69216 0,1.32813 -1.20576,0.55091 -2.798336,-1.59258 0,2.10739 -1.005312,0.56167 -0.983807,-0.56167 0,-3.19897 -2.071552,-1.18042 0,2.22208 -1.982464,-1.2096 0,2.22208 2.801664,1.59232 0,1.25952 -0.966656,0.48282 -1.878272,-1.0624 0,3.38099 -1.09056,0.70093 z"
     id="path4-5" />
  <path
     inkscape:connector-curvature="0"
     d="m 46.603306,77.38945 1.01248,1.49529 1.88544,0 0.869888,-1.49529 -0.91648,-1.59232 -1.889024,0 z m 0.776448,12.02534 0,-3.38099 -1.889024,1.0624 -0.962304,-0.55091 0,-1.19117 2.801408,-1.59232 0,-2.22208 -2.032384,1.30611 0,-2.35418 -1.942784,1.11975 0,3.19181 -1.062656,0.65843 -0.898048,-0.59418 0,-2.13913 -2.948608,1.66348 -1.259264,-0.52992 0,-1.34912 3.094784,-1.6919 -1.935616,-0.97306 0,-1.23443 1.098496,-0.60134 2.77632,1.63481 1.928448,-1.11257 -0.04659,-0.0356 -1.971456,-1.13075 1.914112,-1.18784 -1.92128,-1.11258 -2.776064,1.63123 -1.041408,-0.51865 0,-1.23085 1.878784,-1.05549 -2.998528,-1.62816 0,-1.34886 1.152,-0.59367 2.955264,1.7065 0,-2.17523 0.89088,-0.60109 1.091584,0.62976 -0.0072,3.25581 1.985536,1.13408 -0.0069,-2.30042 2.082304,1.12 0,-2.22208 -2.801408,-1.59565 0,-1.180671 0.962304,-0.55808 1.889024,1.062661 0,-3.374085 1.080832,-0.708608 1.090816,0.708608 0,3.374085 1.957376,-1.084165 0.98432,0.651264 0,1.062661 -2.898432,1.64198 0,2.22208 1.982464,-1.20934 0,2.41868 2.042624,-1.11308 0,-3.48109 0.984063,-0.45799 1.033728,0.45799 0,2.22566 3.041024,-1.64249 1.063168,0.64768 0,1.25926 -2.969856,1.68883 1.857024,1.0409 0,1.20243 -0.96256,0.53325 -2.851328,-1.68525 -1.971711,1.25235 1.906943,1.18835 -1.964287,1.1305 2.029055,1.0624 2.851328,-1.59258 0.915968,0.64768 0,1.14868 -1.788928,1.00531 2.848256,1.69216 0,1.32813 -1.20576,0.55091 -2.798336,-1.59258 0,2.10739 -1.005312,0.56167 -0.983807,-0.56167 0,-3.19897 -2.071552,-1.18042 0,2.22208 -1.982464,-1.2096 0,2.22208 2.801664,1.59232 0,1.25952 -0.966656,0.48282 -1.878272,-1.0624 0,3.38099 -1.09056,0.70093 z"
     id="path4-5-3" />
  <path
     inkscape:connector-curvature="0"
     d="m 18.250522,84.380975 1.01248,1.49529 1.88544,0 0.869888,-1.49529 -0.91648,-1.59232 -1.889024,0 z m 0.776448,12.02534 0,-3.38099 -1.889024,1.0624 -0.962304,-0.55091 0,-1.19117 2.801408,-1.59232 0,-2.22208 -2.032384,1.30611 0,-2.35418 -1.942784,1.11975 0,3.19181 -1.062656,0.65843 -0.898049,-0.59418 0,-2.13913 -2.948607,1.66348 -1.2592644,-0.52992 0,-1.34912 3.0947834,-1.6919 -1.9356154,-0.97306 0,-1.23443 1.0984954,-0.60134 2.776321,1.63481 1.928448,-1.11257 -0.04659,-0.0356 -1.971456,-1.13075 1.914112,-1.18784 -1.92128,-1.11258 -2.776065,1.63123 -1.0414074,-0.51865 0,-1.23085 1.8787834,-1.05549 -2.9985274,-1.62816 0,-1.34886 1.152,-0.59367 2.9552634,1.7065 0,-2.17523 0.890881,-0.60109 1.091584,0.62976 -0.0072,3.25581 1.985536,1.13408 -0.0069,-2.30042 2.082304,1.12 0,-2.22208 -2.801408,-1.59565 0,-1.180671 0.962304,-0.55808 1.889024,1.062661 0,-3.374085 1.080832,-0.708608 1.090816,0.708608 0,3.374085 1.957376,-1.084165 0.98432,0.651264 0,1.062661 -2.898432,1.64198 0,2.22208 1.982464,-1.20934 0,2.41868 2.042624,-1.11308 0,-3.48109 0.984063,-0.45799 1.033728,0.45799 0,2.22566 3.041024,-1.64249 1.063168,0.64768 0,1.25926 -2.969856,1.68883 1.857024,1.0409 0,1.20243 -0.96256,0.53325 -2.851328,-1.68525 -1.971711,1.25235 1.906943,1.18835 -1.964287,1.1305 2.029055,1.0624 2.851328,-1.59258 0.915968,0.64768 0,1.14868 -1.788928,1.00531 2.848256,1.69216 0,1.32813 -1.20576,0.55091 -2.798336,-1.59258 0,2.10739 -1.005312,0.56167 -0.983807,-0.56167 0,-3.19897 -2.071552,-1.18042 0,2.22208 -1.982464,-1.2096 0,2.22208 2.801664,1.59232 0,1.25952 -0.966656,0.48282 -1.878272,-1.0624 0,3.38099 -1.09056,0.70093 z"
     id="path4-5-3-5" />
</svg>
