<?xml version="1.0" encoding="UTF-8" standalone="no"?>
<svg
   xmlns:dc="http://purl.org/dc/elements/1.1/"
   xmlns:cc="http://creativecommons.org/ns#"
   xmlns:rdf="http://www.w3.org/1999/02/22-rdf-syntax-ns#"
   xmlns:svg="http://www.w3.org/2000/svg"
   xmlns="http://www.w3.org/2000/svg"
   xmlns:sodipodi="http://sodipodi.sourceforge.net/DTD/sodipodi-0.dtd"
   xmlns:inkscape="http://www.inkscape.org/namespaces/inkscape"
   height="100"
   width="100"
   id="svg2"
   version="1.1"
   inkscape:version="0.48.5 r10040"
   sodipodi:docname="103.svg">
  <metadata
     id="metadata10">
    <rdf:RDF>
      <cc:Work
         rdf:about="">
        <dc:format>image/svg+xml</dc:format>
        <dc:type
           rdf:resource="http://purl.org/dc/dcmitype/StillImage" />
        <dc:title></dc:title>
      </cc:Work>
    </rdf:RDF>
  </metadata>
  <defs
     id="defs8" />
  <sodipodi:namedview
     pagecolor="#ffffff"
     bordercolor="#666666"
     borderopacity="1"
     objecttolerance="10"
     gridtolerance="10"
     guidetolerance="10"
     inkscape:pageopacity="0"
     inkscape:pageshadow="2"
     inkscape:window-width="959"
     inkscape:window-height="1013"
     id="namedview6"
     showgrid="false"
     inkscape:zoom="3.337544"
     inkscape:cx="63.919624"
     inkscape:cy="-1.7042231"
     inkscape:window-x="959"
     inkscape:window-y="27"
     inkscape:window-maximized="0"
     inkscape:current-layer="svg2" />
  <path
     id="path3806"
     d="m 47.53125,82.9375 0,17.0625 4.46875,0 0,-17.0625 -4.46875,0 z m 19.875,-5.28125 -2.6875,1.53125 8.5,14.78125 3.875,-2.25 L 69,77.65625 l -0.28125,0 -1.3125,0 z M 31.4375,77.0625 23.1875,92 l 3.90625,2.15625 8.25,-14.9375 L 31.4375,77.0625 z M 19.40625,62.375 5,71.40625 7.34375,75.21875 21.75,66.15625 19.40625,62.375 z M 83,46.6875 l 0,1.75 c 0.637897,0.850728 1.168086,1.76635 1.625,2.75 l 15.375,0 0,-4.5 -17,0 z m -83,-0.25 0,4.46875 17,0 0,-4.46875 -17,0 z M 91.8125,22.75 77.09375,31.28125 79.3125,35.1875 94.03125,26.65625 91.8125,22.75 z M 8.65625,21.5625 6.46875,25.5 21.3125,33.75 23.5,29.84375 8.65625,21.5625 z m 63.625,-16.25 -8.25,14.90625 3.9375,2.1875 L 76.1875,7.5 72.28125,5.3125 z M 28.09375,4.875 24.3125,7.25 l 9,14.4375 3.78125,-2.34375 -9,-14.46875 z M 47.8125,0 l 0,17.0625 4.46875,0 0,-17.0625 -4.46875,0 z m 24.208963,42.773661 c -2.978413,0 -5.731564,1.04153 -7.972701,2.78981 H 79.95911 c -2.229069,-1.74828 -4.966129,-2.78981 -7.937647,-2.78981 z m -10.523001,5.34713 c -0.652228,0.85244 -1.207914,1.79229 -1.669933,2.7898 h 24.314616 c -0.46317,-1.00061 -1.01771,-1.93488 -1.66994,-2.7898 H 61.498462 z m -2.585926,5.34712 c -0.235608,0.89956 -0.394211,1.82887 -0.466617,2.7898 h 36.615586 c -1.68488,-1.17605 -3.67949,-1.85987 -5.83615,-1.85987 -1.34469,0 -2.62501,0.29138 -3.80707,0.77495 -0.0862,-0.58772 -0.21146,-1.14258 -0.35915,-1.70488 H 58.912536 z m -4.274251,5.34713 c -1.172861,0.64289 -2.168731,1.59948 -2.873253,2.78979 h 47.427053 c -0.38387,-1.00804 -0.89128,-1.94728 -1.50846,-2.78979 h -43.04534 z m -3.860502,5.34712 c -0.110333,0.54493 -0.162051,1.12459 -0.162051,1.70487 0,0.0539 0.01839,0.10111 0.01839,0.15499 -0.579247,-0.18722 -1.180331,-0.3292 -1.813597,-0.3292 -1.35807,0 -2.618452,0.46993 -3.645697,1.25913 h 54.789467 c 0.0224,-0.30935 0.0357,-0.61437 0.0357,-0.92993 0,-0.63545 -0.0529,-1.25231 -0.14366,-1.85986 H 50.777681 z m -7.614119,5.34712 c -0.382469,0.84686 -0.605163,1.79105 -0.628552,2.7898 h 55.758913 c 0.51316,-0.85864 0.91312,-1.79539 1.20332,-2.7898 H 43.163779 z m -0.143691,5.34712 c 0.953805,1.98014 3.195862,2.7898 5.800522,2.7898 h 40.40482 c 2.67328,0 5.12014,-1.05268 7.00384,-2.7898 H 43.019973 z M 50.015625,26.4375 c 12.9523,0 23.4375,10.5558 23.4375,23.5625 0,13.0067 -10.4835,23.5625 -23.4375,23.5625 C 37.053125,73.5655 26.546875,63.005 26.546875,50 c 0,-13.0067 10.50625,-23.5625 23.46875,-23.5625 z m 0,-4.15625 c -15.25,0 -27.625,12.41675 -27.625,27.71875 0,15.3 12.375,27.72175 27.625,27.71875 15.24,0 27.59375,-12.41675 27.59375,-27.71875 0,-15.302 -12.35575,-27.71875 -27.59375,-27.71875 z" />
</svg>
