<?xml version="1.0" encoding="UTF-8" standalone="no"?>
<svg
   xmlns:dc="http://purl.org/dc/elements/1.1/"
   xmlns:cc="http://creativecommons.org/ns#"
   xmlns:rdf="http://www.w3.org/1999/02/22-rdf-syntax-ns#"
   xmlns:svg="http://www.w3.org/2000/svg"
   xmlns="http://www.w3.org/2000/svg"
   xmlns:sodipodi="http://sodipodi.sourceforge.net/DTD/sodipodi-0.dtd"
   xmlns:inkscape="http://www.inkscape.org/namespaces/inkscape"
   height="100"
   width="100"
   id="svg2"
   version="1.1"
   inkscape:version="0.48.5 r10040"
   sodipodi:docname="114.svg">
  <metadata
     id="metadata10">
    <rdf:RDF>
      <cc:Work
         rdf:about="">
        <dc:format>image/svg+xml</dc:format>
        <dc:type
           rdf:resource="http://purl.org/dc/dcmitype/StillImage" />
        <dc:title></dc:title>
      </cc:Work>
    </rdf:RDF>
  </metadata>
  <defs
     id="defs8" />
  <sodipodi:namedview
     pagecolor="#ffffff"
     bordercolor="#666666"
     borderopacity="1"
     objecttolerance="10"
     gridtolerance="10"
     guidetolerance="10"
     inkscape:pageopacity="0"
     inkscape:pageshadow="2"
     inkscape:window-width="1387"
     inkscape:window-height="728"
     id="namedview6"
     showgrid="false"
     inkscape:zoom="2.36"
     inkscape:cx="48.728814"
     inkscape:cy="50"
     inkscape:window-x="441"
     inkscape:window-y="171"
     inkscape:window-maximized="0"
     inkscape:current-layer="svg2" />
  <path
     d="m 47.812,-2.5e-4 v 17.062 h 4.469 v -17.062 h -4.469 z"
     id="path3785" />
  <path
     d="m 28.094,4.87475 -3.782,2.375 9,14.438 3.782,-2.344 -9,-14.469 z"
     id="path3783" />
  <path
     d="m 72.281,5.31225 -8.25,14.906 3.938,2.187 8.219,-14.906 -3.907,-2.1875 z"
     id="path3781" />
  <path
     d="m 8.656,21.56225 -2.1874,3.938 14.843,8.25 2.188,-3.906 -14.844,-8.282 z"
     id="path3779" />
  <path
     d="M 50.0625 22.21875 C 34.8125 22.21875 22.4375 34.6355 22.4375 49.9375 C 22.4375 65.2375 34.8125 77.65925 50.0625 77.65625 C 65.3025 77.65625 77.65625 65.2395 77.65625 49.9375 C 77.65625 34.6355 65.3005 22.21875 50.0625 22.21875 z M 50 26.09375 C 63.209172 26.09375 73.90625 36.790828 73.90625 50 C 73.90625 63.209172 63.209172 73.90625 50 73.90625 C 36.790828 73.90625 26.09375 63.209172 26.09375 50 C 26.09375 36.790828 36.790828 26.09375 50 26.09375 z "
     id="path3777" />
  <path
     d="m 91.812,22.75025 -14.718,8.531 2.218,3.907 14.719,-8.532 -2.219,-3.906 z"
     id="path3775" />
  <path
     d="m 0,46.43825 v 4.468 h 17 v -4.468 H 0 z"
     id="path3773" />
  <path
     d="m 83,46.68825 v 4.5 h 17 v -4.5 H 83 z"
     id="path3771" />
  <path
     d="M 19.406,62.37525 5,71.40625 l 2.3438,3.813 14.406,-9.063 -2.344,-3.781 z"
     id="path3769" />
  <path
     inkscape:connector-curvature="0"
     d="m 51.312195,43.75 c -5.183,0 -9.974,1.68 -13.874,4.5 h 27.686996 c -3.878996,-2.82 -8.641996,-4.5 -13.812996,-4.5 z m -18.312,8.625 c -1.135,1.375 -2.102,2.891 -2.906,4.5 h 42.311996 c -0.806,-1.614 -1.771,-3.121 -2.906,-4.5 H 33.000195 z m -4.5,8.625 c -0.41,1.451 -0.686,2.95 -0.812,4.5 h 63.717996 c -2.932,-1.897 -6.403,-3 -10.156,-3 -2.34,0 -4.568,0.47 -6.625,1.25 -0.15,-0.948 -0.368,-1.843 -0.625,-2.75 H 28.500195 z m -7.438,8.625 c -2.041,1.037 -3.774,2.58 -5,4.5 H 98.5942 c -0.668002,-1.626 -1.551002,-3.141 -2.625012,-4.5 H 21.062195 z m -6.718,8.625 c -0.192,0.879 -0.282,1.814 -0.282,2.75 0,0.087 0.032,0.163 0.032,0.25 -1.008,-0.302 -2.054,-0.531 -3.156,-0.531 -2.3633,0 -4.5566002,0.758 -6.3442002,2.031 H 99.938 c 0.039,-0.499 0.062,-0.991 0.062,-1.5 0,-1.025 -0.092,-2.02 -0.25,-3 H 14.343995 z M 1.0941948,86.875 c -0.66557,1.366 -1.0531,2.889 -1.0938,4.5 H 97.031398 c 0.893,-1.385 1.589002,-2.896 2.094002,-4.5 H 1.0943948 z m -0.25005,8.625 c 1.6598,3.194 5.5614,4.5 10.0940002,4.5 h 70.311996 c 4.652,0 8.91,-1.698 12.187997,-4.5 H 0.8441448 z"
     id="path4-3" />
</svg>
