<?xml version="1.0" encoding="UTF-8" standalone="no"?>
<svg
   xmlns:dc="http://purl.org/dc/elements/1.1/"
   xmlns:cc="http://creativecommons.org/ns#"
   xmlns:rdf="http://www.w3.org/1999/02/22-rdf-syntax-ns#"
   xmlns:svg="http://www.w3.org/2000/svg"
   xmlns="http://www.w3.org/2000/svg"
   xmlns:sodipodi="http://sodipodi.sourceforge.net/DTD/sodipodi-0.dtd"
   xmlns:inkscape="http://www.inkscape.org/namespaces/inkscape"
   height="100"
   width="100"
   id="svg2"
   version="1.1"
   inkscape:version="0.48.5 r10040"
   sodipodi:docname="11.svg">
  <metadata
     id="metadata10">
    <rdf:RDF>
      <cc:Work
         rdf:about="">
        <dc:format>image/svg+xml</dc:format>
        <dc:type
           rdf:resource="http://purl.org/dc/dcmitype/StillImage" />
        <dc:title></dc:title>
      </cc:Work>
    </rdf:RDF>
  </metadata>
  <defs
     id="defs8" />
  <sodipodi:namedview
     pagecolor="#ffffff"
     bordercolor="#666666"
     borderopacity="1"
     objecttolerance="10"
     gridtolerance="10"
     guidetolerance="10"
     inkscape:pageopacity="0"
     inkscape:pageshadow="2"
     inkscape:window-width="669"
     inkscape:window-height="480"
     id="namedview6"
     showgrid="false"
     inkscape:zoom="2.36"
     inkscape:cx="50"
     inkscape:cy="50"
     inkscape:window-x="0"
     inkscape:window-y="27"
     inkscape:window-maximized="0"
     inkscape:current-layer="svg2" />
  <path
     d="m 51.1875,22.203125 c -12.627,0 -22.762,10.02875 -23.5,22.46875 -6.17,0.593 -10.9605,5.238 -12.0625,11.25 -0.362,-0.038 -0.64825,-0.15625 -1.03125,-0.15625 -6.7074002,0 -12.2187502,5.4855 -12.2187502,12.1875 0,3.353 1.5923,6.174 3.9375,7.75 2.3476,1.577 5.2552502,2.09375 8.2812502,2.09375 l 31.15625,0 16.96875,0 15.625,0 c 10.619,0 19.28125,-8.66025 19.28125,-19.28125 0,-10.621 -8.66025,-19.28125 -19.28125,-19.28125 -1.612,0 -3.06425,0.4345 -4.53125,0.8125 -2.683,-10.171 -11.628,-17.84375 -22.625,-17.84375 z m 0,4.53125 c 9.607,0 17.45325,7.1195 18.90625,16.3125 l 0.4375,2.75 2.625,-1.0625 c 1.65,-0.626 3.3775,-0.9375 5.1875,-0.9375 8.171,0 14.75,6.54975 14.75,14.71875 0,8.171 -6.579,14.71875 -14.75,14.71875 l -15.625,0 -16.96875,0 -31.15625,0 c -2.455,0 -4.5068,-0.50775 -5.7500002,-1.34375 -1.2429,-0.833 -1.9375,-1.8085 -1.9375,-3.9375 0,-4.249 3.4325002,-7.65625 7.6875002,-7.65625 0.705,0 1.37025,0.14 2.15625,0.375 l 2.96875,0.90625 0,-3.0625 c 0,-0.14 -0.0555,-0.13975 -0.0625,-0.21875 0,-0.128 -0.012,-0.12725 0,-0.15625 -0.002,-0.012 0.002,-0.0585 0,-0.0625 0.119,-5.058 4.19525,-9.09375 9.28125,-9.09375 -0.074,0 0.1735,0.05775 0.6875,0.09375 l 2.53125,0.125 -0.09375,-2.53125 c -0.028,-0.621 -0.15625,-0.80125 -0.15625,-0.65625 0,-10.645 8.62825,-19.28125 19.28125,-19.28125 z"
     id="path4"
     inkscape:connector-curvature="0" />
</svg>
