<?xml version="1.0" encoding="UTF-8" standalone="no"?>
<svg
   xmlns:dc="http://purl.org/dc/elements/1.1/"
   xmlns:cc="http://creativecommons.org/ns#"
   xmlns:rdf="http://www.w3.org/1999/02/22-rdf-syntax-ns#"
   xmlns:svg="http://www.w3.org/2000/svg"
   xmlns="http://www.w3.org/2000/svg"
   xmlns:sodipodi="http://sodipodi.sourceforge.net/DTD/sodipodi-0.dtd"
   xmlns:inkscape="http://www.inkscape.org/namespaces/inkscape"
   height="100"
   width="100"
   id="svg2"
   version="1.1"
   inkscape:version="0.48.5 r10040"
   sodipodi:docname="111.svg">
  <metadata
     id="metadata10">
    <rdf:RDF>
      <cc:Work
         rdf:about="">
        <dc:format>image/svg+xml</dc:format>
        <dc:type
           rdf:resource="http://purl.org/dc/dcmitype/StillImage" />
        <dc:title></dc:title>
      </cc:Work>
    </rdf:RDF>
  </metadata>
  <defs
     id="defs8" />
  <sodipodi:namedview
     pagecolor="#ffffff"
     bordercolor="#666666"
     borderopacity="1"
     objecttolerance="10"
     gridtolerance="10"
     guidetolerance="10"
     inkscape:pageopacity="0"
     inkscape:pageshadow="2"
     inkscape:window-width="959"
     inkscape:window-height="1013"
     id="namedview6"
     showgrid="false"
     inkscape:zoom="3.337544"
     inkscape:cx="23.323255"
     inkscape:cy="50.304439"
     inkscape:window-x="959"
     inkscape:window-y="27"
     inkscape:window-maximized="0"
     inkscape:current-layer="svg2" />
  <path
     id="path5038"
     style="fill:#000000;fill-opacity:1;stroke:none"
     d="m 53.562505,26.593499 c 9.607,0 17.45325,7.119499 18.90625,16.312499 l 0.4375,2.75 2.625,-1.0625 c 1.650005,-0.626 3.377505,-0.9375 5.187505,-0.9375 8.171,0 14.75,6.549752 14.75,14.718752 0,8.171 -6.579,14.71875 -14.75,14.71875 l -15.625005,0 -16.96875,0 -31.15625,0 c -2.455,0 -4.5068,-0.50775 -5.75,-1.34375 -1.2429,-0.833 -1.9375,-1.8085 -1.9375,-3.9375 0,-4.249 3.4325,-7.65625 7.6875,-7.65625 0.705,0 1.37025,0.14 2.15625,0.375 l 2.96875,0.90625 0,-3.0625 c 0,-0.14 -0.0555,-0.13975 -0.0625,-0.21875 0,-0.128 -0.012,-0.12725 0,-0.15625 -0.002,-0.012 0.002,-0.0585 0,-0.0625 0.119,-5.058 4.19525,-9.09375 9.28125,-9.09375 -0.074,0 0.1735,0.0578 0.6875,0.0937 l 2.53125,0.125 -0.0937,-2.531252 c -0.028,-0.621 -0.15625,-0.80125 -0.15625,-0.65625 0,-10.645 8.62825,-19.28125 19.28125,-19.28125 z m 6e-6,-4.5469 c -12.627,0 -22.762,10.028749 -23.5,22.468749 -6.17,0.593 -10.9605,5.238002 -12.0625,11.250002 -0.362,-0.038 -0.64825,-0.15625 -1.03125,-0.15625 -6.7074,0 -12.21875,5.4855 -12.21875,12.1875 0,3.353 1.5923,6.174 3.9375,7.75 2.3476,1.577 5.25525,2.09375 8.28125,2.09375 l 31.15625,0 16.96875,0 15.625005,0 C 91.337764,77.64035 100,68.9801 100,58.3591 100,47.738098 91.339764,39.077848 80.718766,39.077848 c -1.612,0 -3.06425,0.4345 -4.531255,0.8125 -2.683,-10.171 -11.628,-17.84375 -22.625,-17.84375 z m 23.906239,57.672167 -7.375,20.281254 2.21875,0 7.375,-20.281254 -2.21875,0 z m -17.2185,0.0079 -7.375,20.281254 2.21875,0 7.375,-20.281254 -2.21875,0 z m -34.406,0 -7.375,20.281254 2.21875,0 7.375,-20.281254 -2.21875,0 z m 17.187,0 -7.375,20.281254 2.21875,0 7.375,-20.281254 -2.21875,0 z" />
</svg>
