<?xml version="1.0" encoding="UTF-8" standalone="no"?>
<svg
   xmlns:dc="http://purl.org/dc/elements/1.1/"
   xmlns:cc="http://creativecommons.org/ns#"
   xmlns:rdf="http://www.w3.org/1999/02/22-rdf-syntax-ns#"
   xmlns:svg="http://www.w3.org/2000/svg"
   xmlns="http://www.w3.org/2000/svg"
   xmlns:sodipodi="http://sodipodi.sourceforge.net/DTD/sodipodi-0.dtd"
   xmlns:inkscape="http://www.inkscape.org/namespaces/inkscape"
   height="100"
   width="100"
   id="svg2"
   version="1.1"
   inkscape:version="0.48.5 r10040"
   sodipodi:docname="108.svg">
  <metadata
     id="metadata10">
    <rdf:RDF>
      <cc:Work
         rdf:about="">
        <dc:format>image/svg+xml</dc:format>
        <dc:type
           rdf:resource="http://purl.org/dc/dcmitype/StillImage" />
        <dc:title></dc:title>
      </cc:Work>
    </rdf:RDF>
  </metadata>
  <defs
     id="defs8" />
  <sodipodi:namedview
     pagecolor="#ffffff"
     bordercolor="#666666"
     borderopacity="1"
     objecttolerance="10"
     gridtolerance="10"
     guidetolerance="10"
     inkscape:pageopacity="0"
     inkscape:pageshadow="2"
     inkscape:window-width="1663"
     inkscape:window-height="821"
     id="namedview6"
     showgrid="false"
     inkscape:zoom="3.337544"
     inkscape:cx="-66.647781"
     inkscape:cy="34.311341"
     inkscape:window-x="0"
     inkscape:window-y="92"
     inkscape:window-maximized="0"
     inkscape:current-layer="svg2" />
  <path
     id="path4"
     d="m 34.78125,75.75 -0.1875,0.3125 5.96875,0 0.1875,-0.3125 -5.96875,0 z m -1.25,2.125 -7.125,12.25 5.9375,0 -4.78125,9.5625 14.375,-14.375 -7.15625,0 4.65625,-7.4375 -5.90625,0 z M 18.5,78.40625 12.1875,95.75 l 1.34375,0.5 6.5,-17.84375 -1.53125,0 z m 7.1875,0 -6.28125,17.34375 1.34375,0.5 6.5,-17.84375 -1.5625,0 z m 21.71875,0 -6.34375,17.34375 1.375,0.5 6.5,-17.84375 -1.53125,0 z m 7.1875,0 -6.28125,17.34375 1.375,0.5 6.5,-17.84375 -1.59375,0 z M 73.078,1.875 l 0,8.5312 2.2188,0 0,-8.5312 -2.2188,0 z M 63.203,4.2812 61.328,5.5 l 4.5,7.2188 1.9062,-1.1875 -4.5312,-7.25 z m 22.125,0.25 -4.125,7.4375 1.9375,1.0938 4.125,-7.4688 -1.9375,-1.0625 z m -31.844,8.125 -1.0625,1.9375 7.4062,4.1562 1.0938,-1.9688 -7.4375,-4.125 z m 20.7035,0.31255 c -7.625,0 -13.78125,6.224 -13.78125,13.875 0,7.65 6.15675,13.84475 13.78125,13.84375 7.619,0 13.78125,-6.19255 13.78125,-13.84375 0,-7.65 -6.16245,-13.875 -13.78125,-13.875 z m 0,2.09375 c 6.47598,0 11.71875,5.27875 11.71875,11.78125 0,6.50352 -5.2426,11.75 -11.71875,11.75 -6.480825,8.5e-4 -11.71875,-5.2475 -11.71875,-11.75 0,-6.50335 5.2375,-11.78125 11.71875,-11.78125 z m 20.8905,-1.81255 -7.375,4.25 1.125,1.9688 7.375,-4.2812 -1.125,-1.9375 z m -45.906,11.812 0,2.25 8.5,0 0,-2.25 -8.5,0 z m 41.5,0.15625 0,2.2188 8.5,0 0,-2.2188 -8.5,0 z m -31.812,7.8125 -7.1875,4.5312 1.1562,1.9062 7.2188,-4.5312 -1.1875,-1.9062 z m 30.25,0.5 -1.0625,1.9688 7.4062,4.125 1.0938,-1.9688 -7.4375,-4.125 z m -5.656,6.8125 -1.9062,1.125 4.25,7.375 1.9062,-1.125 -4.25,-7.375 z m -18.562,0.0625 -4.125,7.4375 1.9688,1.0938 4.125,-7.4688 -1.9688,-1.0625 z m 8.0625,2.9375 0,8.5312 2.2188,0 0,-8.5312 -2.2188,0 z M 35.03125,37.09375 c -8.8406,0 -15.95175,7.0403 -16.46875,15.75 -4.3198,0.41518 -7.666,3.6658 -8.4375,7.875 -0.25345,-0.02661 -0.4506,-0.125 -0.71875,-0.125 -4.6961,0 -8.5625,3.83895 -8.5625,8.53125 0,2.3476 1.108,4.3341 2.75,5.4375 1.6436,1.1041 3.6939,1.46875 5.8125,1.46875 l 21.78125,0 11.875,0 10.96875,0 c 7.4348,0 13.5,-6.0639 13.5,-13.5 0,-7.4361 -6.0638,-13.5 -13.5,-13.5 -1.1286,0 -2.1604,0.29785 -3.1875,0.5625 -1.8785,-7.1211 -8.1136,-12.5 -15.8125,-12.5 z m 0,3.1875 c 6.7262,0 12.20075,4.97015 13.21875,11.40625 l 0.3125,1.9375 1.84375,-0.75 c 1.1552,-0.43828 2.3578,-0.65625 3.625,-0.65625 5.7208,0 10.34375,4.5936 10.34375,10.3125 0,5.7208 -4.62265,10.3125 -10.34375,10.3125 l -10.9375,0 -11.875,0 -21.8125,0 c -1.7188,0 -3.16085,-0.35219 -4.03125,-0.9375 C 4.5048,71.32303 4.03125,70.6155 4.03125,69.125 c 0,-2.9749 2.3959,-5.34375 5.375,-5.34375 0.49359,0 0.94969,0.08547 1.5,0.25 l 2.09375,0.625 0,-2.125 c 0,-0.09802 -0.0576,-0.10094 -0.0625,-0.15625 0,-0.08962 -0.008,-0.1047 0,-0.125 -10e-4,-0.0084 10e-4,-0.02845 0,-0.03125 0.0833,-3.5413 2.9391,-6.375 6.5,-6.375 -0.0518,0 0.14013,0.0373 0.5,0.0625 L 21.6875,56 21.625,54.25 c -0.01274,-0.28261 -0.06568,-0.42474 -0.09375,-0.46875 0,-0.02538 -0.0087,-0.03558 0,-0.03125 0.01709,-7.4384 6.052,-13.46875 13.5,-13.46875 z" />
</svg>
