<?xml version="1.0" encoding="UTF-8" standalone="no"?>
<svg
   xmlns:dc="http://purl.org/dc/elements/1.1/"
   xmlns:cc="http://creativecommons.org/ns#"
   xmlns:rdf="http://www.w3.org/1999/02/22-rdf-syntax-ns#"
   xmlns:svg="http://www.w3.org/2000/svg"
   xmlns="http://www.w3.org/2000/svg"
   xmlns:sodipodi="http://sodipodi.sourceforge.net/DTD/sodipodi-0.dtd"
   xmlns:inkscape="http://www.inkscape.org/namespaces/inkscape"
   height="100"
   width="100"
   id="svg2"
   version="1.1"
   inkscape:version="0.48.5 r10040"
   sodipodi:docname="111.svg">
  <metadata
     id="metadata10">
    <rdf:RDF>
      <cc:Work
         rdf:about="">
        <dc:format>image/svg+xml</dc:format>
        <dc:type
           rdf:resource="http://purl.org/dc/dcmitype/StillImage" />
        <dc:title></dc:title>
      </cc:Work>
    </rdf:RDF>
  </metadata>
  <defs
     id="defs8" />
  <sodipodi:namedview
     pagecolor="#ffffff"
     bordercolor="#666666"
     borderopacity="1"
     objecttolerance="10"
     gridtolerance="10"
     guidetolerance="10"
     inkscape:pageopacity="0"
     inkscape:pageshadow="2"
     inkscape:window-width="669"
     inkscape:window-height="480"
     id="namedview6"
     showgrid="false"
     inkscape:zoom="2.36"
     inkscape:cx="50"
     inkscape:cy="50"
     inkscape:window-x="637"
     inkscape:window-y="258"
     inkscape:window-maximized="0"
     inkscape:current-layer="svg2" />
  <path
     d="M 51.1875 6.8125 C 38.5605 6.8125 28.4255 16.84125 27.6875 29.28125 C 21.5175 29.87425 16.727 34.51925 15.625 40.53125 C 15.263 40.49325 14.97675 40.375 14.59375 40.375 C 7.88635 40.375 2.375 45.8605 2.375 52.5625 C 2.375 55.9155 3.9673 58.7365 6.3125 60.3125 C 8.6601 61.8895 11.56775 62.40625 14.59375 62.40625 L 45.75 62.40625 L 62.71875 62.40625 L 78.34375 62.40625 C 88.96275 62.40625 97.625 53.746 97.625 43.125 C 97.625 32.504 88.96475 23.84375 78.34375 23.84375 C 76.73175 23.84375 75.2795 24.27825 73.8125 24.65625 C 71.1295 14.48525 62.1845 6.8125 51.1875 6.8125 z M 51.1875 11.34375 C 60.7945 11.34375 68.64075 18.46325 70.09375 27.65625 L 70.53125 30.40625 L 73.15625 29.34375 C 74.80625 28.71775 76.53375 28.40625 78.34375 28.40625 C 86.51475 28.40625 93.09375 34.956 93.09375 43.125 C 93.09375 51.296 86.51475 57.84375 78.34375 57.84375 L 62.71875 57.84375 L 45.75 57.84375 L 14.59375 57.84375 C 12.13875 57.84375 10.08695 57.336 8.84375 56.5 C 7.60085 55.667 6.90625 54.6915 6.90625 52.5625 C 6.90625 48.3135 10.33875 44.90625 14.59375 44.90625 C 15.29875 44.90625 15.964 45.04625 16.75 45.28125 L 19.71875 46.1875 L 19.71875 43.125 C 19.71875 42.985 19.66325 42.98525 19.65625 42.90625 C 19.65625 42.77825 19.64425 42.779 19.65625 42.75 C 19.65425 42.738 19.65825 42.6915 19.65625 42.6875 C 19.77525 37.6295 23.8515 33.59375 28.9375 33.59375 C 28.8635 33.59375 29.111 33.6515 29.625 33.6875 L 32.15625 33.8125 L 32.0625 31.28125 C 32.0345 30.66025 31.90625 30.48 31.90625 30.625 C 31.90625 19.98 40.5345 11.34375 51.1875 11.34375 z "
     id="path3004" />
  <path
     d="m 23.469,68.469 -9.031,24.781 1.937,0.719 9.313,-25.5 h -2.219 z"
     id="path3000" />
  <path
     d="m 32.3955,68.469 -9.032,24.781 1.938,0.719 9.281,-25.5 h -2.187 z"
     id="path2998"
     inkscape:connector-curvature="0" />
  <path
     d="m 66.214502,68.469 -9.031,24.781 1.937,0.719 9.282,-25.5 h -2.188 z"
     id="path2996"
     inkscape:connector-curvature="0" />
  <path
     d="m 75.094,68.469 -9,24.781 1.937,0.719 9.281,-25.5 h -2.218 z"
     id="path4" />
  <path
     inkscape:connector-curvature="0"
     d="m 44.0225,81.429424 1.01248,1.49529 1.88544,0 0.86988,-1.49529 -0.91648,-1.59232 -1.88902,0 z m 0.77644,12.02534 0,-3.38099 -1.88902,1.0624 -0.9623,-0.55091 0,-1.19117 2.8014,-1.59232 0,-2.22208 -2.03238,1.30611 0,-2.35418 -1.94278,1.11975 0,3.19181 -1.06266,0.65843 -0.89805,-0.59418 0,-2.13913 -2.94861,1.66348 -1.25926,-0.52992 0,-1.34912 3.09478,-1.6919 -1.93561,-0.97306 0,-1.23443 1.09849,-0.60134 2.77632,1.63481 1.92845,-1.11257 -0.0466,-0.0356 -1.97145,-1.13075 1.91411,-1.18784 -1.92128,-1.11258 -2.77607,1.63123 -1.0414,-0.51865 0,-1.23085 1.87878,-1.05549 -2.99853,-1.62816 0,-1.34886 1.152,-0.59367 2.95527,1.7065 0,-2.17523 0.89088,-0.60109 1.09158,0.62976 -0.007,3.25581 1.98554,1.13408 -0.007,-2.30042 2.0823,1.12 0,-2.22208 -2.80141,-1.59565 0,-1.180671 0.96231,-0.55808 1.88902,1.062661 0,-3.374085 1.08083,-0.708608 1.09082,0.708608 0,3.374085 1.95737,-1.084165 0.98432,0.651264 0,1.062661 -2.89843,1.64198 0,2.22208 1.98247,-1.20934 0,2.41868 2.04262,-1.11308 0,-3.48109 0.98406,-0.45799 1.03373,0.45799 0,2.22566 3.04103,-1.64249 1.06316,0.64768 0,1.25926 -2.96985,1.68883 1.85702,1.0409 0,1.20243 -0.96256,0.53325 -2.85133,-1.68525 -1.97171,1.25235 1.90695,1.18835 -1.96429,1.1305 2.02905,1.0624 2.85133,-1.59258 0.91597,0.64768 0,1.14868 -1.78893,1.00531 2.84826,1.69216 0,1.32813 -1.20576,0.55091 -2.79834,-1.59258 0,2.10739 -1.00531,0.56167 -0.98381,-0.56167 0,-3.19897 -2.07155,-1.18042 0,2.22208 -1.98246,-1.2096 0,2.22208 2.80166,1.59232 0,1.25952 -0.96666,0.48282 -1.87827,-1.0624 0,3.38099 -1.09056,0.70093 z"
     id="path4-5-3" />
</svg>
