<?xml version="1.0" encoding="UTF-8" standalone="no"?>
<svg
   xmlns:dc="http://purl.org/dc/elements/1.1/"
   xmlns:cc="http://creativecommons.org/ns#"
   xmlns:rdf="http://www.w3.org/1999/02/22-rdf-syntax-ns#"
   xmlns:svg="http://www.w3.org/2000/svg"
   xmlns="http://www.w3.org/2000/svg"
   xmlns:sodipodi="http://sodipodi.sourceforge.net/DTD/sodipodi-0.dtd"
   xmlns:inkscape="http://www.inkscape.org/namespaces/inkscape"
   height="100"
   width="100"
   id="svg2"
   version="1.1"
   inkscape:version="0.48.5 r10040"
   sodipodi:docname="101.svg">
  <metadata
     id="metadata10">
    <rdf:RDF>
      <cc:Work
         rdf:about="">
        <dc:format>image/svg+xml</dc:format>
        <dc:type
           rdf:resource="http://purl.org/dc/dcmitype/StillImage" />
        <dc:title></dc:title>
      </cc:Work>
    </rdf:RDF>
  </metadata>
  <defs
     id="defs8" />
  <sodipodi:namedview
     pagecolor="#ffffff"
     bordercolor="#666666"
     borderopacity="1"
     objecttolerance="10"
     gridtolerance="10"
     guidetolerance="10"
     inkscape:pageopacity="0"
     inkscape:pageshadow="2"
     inkscape:window-width="1638"
     inkscape:window-height="865"
     id="namedview6"
     showgrid="false"
     inkscape:zoom="2.36"
     inkscape:cx="-21.669173"
     inkscape:cy="50"
     inkscape:window-x="22"
     inkscape:window-y="94"
     inkscape:window-maximized="0"
     inkscape:current-layer="svg2" />
  <path
     id="path2990-3"
     d="m 54.34375,26.78125 c -5.791574,5.986316 -9.375,14.158435 -9.375,23.15625 0,9.012564 3.59654,17.158655 9.40625,23.15625 1.569575,-0.296246 3.089181,-0.749985 4.53125,-1.34375 -6.023044,-5.338609 -9.8125,-13.124058 -9.8125,-21.8125 0,-8.673939 3.777035,-16.475306 9.78125,-21.8125 -1.445208,-0.593475 -2.958361,-1.049018 -4.53125,-1.34375 z m -4.28125,-4.5625 c -15.25,0 -27.625,12.41675 -27.625,27.71875 0,15.3 12.375,27.72175 27.625,27.71875 4.536908,0 8.818204,-1.113133 12.59375,-3.0625 C 61.32558,73.751356 60.079365,72.791851 58.90625,71.75 56.175563,72.87031 53.195596,73.5 50.0625,73.5 37.1,73.50255 26.59375,62.9425 26.59375,49.9375 26.59375,36.9308 37.1,26.375 50.0625,26.375 c 3.132685,0 6.113149,0.62969 8.84375,1.75 1.173115,-1.041721 2.41933,-2.001442 3.75,-2.84375 -3.775501,-1.949367 -8.057437,-3.0625 -12.59375,-3.0625 z" />
</svg>
