<?xml version="1.0" encoding="UTF-8" standalone="no"?>
<svg
   xmlns:dc="http://purl.org/dc/elements/1.1/"
   xmlns:cc="http://creativecommons.org/ns#"
   xmlns:rdf="http://www.w3.org/1999/02/22-rdf-syntax-ns#"
   xmlns:svg="http://www.w3.org/2000/svg"
   xmlns="http://www.w3.org/2000/svg"
   xmlns:sodipodi="http://sodipodi.sourceforge.net/DTD/sodipodi-0.dtd"
   xmlns:inkscape="http://www.inkscape.org/namespaces/inkscape"
   height="100"
   width="100"
   id="svg2"
   version="1.1"
   inkscape:version="0.48.5 r10040"
   sodipodi:docname="102.svg">
  <metadata
     id="metadata10">
    <rdf:RDF>
      <cc:Work
         rdf:about="">
        <dc:format>image/svg+xml</dc:format>
        <dc:type
           rdf:resource="http://purl.org/dc/dcmitype/StillImage" />
        <dc:title></dc:title>
      </cc:Work>
    </rdf:RDF>
  </metadata>
  <defs
     id="defs8" />
  <sodipodi:namedview
     pagecolor="#ffffff"
     bordercolor="#666666"
     borderopacity="1"
     objecttolerance="10"
     gridtolerance="10"
     guidetolerance="10"
     inkscape:pageopacity="0"
     inkscape:pageshadow="2"
     inkscape:window-width="1316"
     inkscape:window-height="788"
     id="namedview6"
     showgrid="false"
     inkscape:zoom="2.36"
     inkscape:cx="43.318183"
     inkscape:cy="50.888272"
     inkscape:window-x="179"
     inkscape:window-y="117"
     inkscape:window-maximized="0"
     inkscape:current-layer="svg2" />
  <path
     id="path2990-3"
     d="m 61.796876,26.84375 c -5.79157,5.986316 -9.375,14.158435 -9.375,23.15625 0,9.012563 3.59654,17.158653 9.40625,23.15625 1.56958,-0.29625 3.08918,-0.74999 4.53125,-1.34375 -6.02304,-5.338607 -9.8125,-13.124057 -9.8125,-21.8125 0,-8.673939 3.77704,-16.475306 9.78125,-21.8125 -1.44521,-0.593475 -2.95836,-1.049018 -4.53125,-1.34375 z m -4.28125,-4.5625 c -15.25,0 -27.625002,12.41675 -27.625002,27.71875 0,15.300003 12.375002,27.72175 27.625002,27.71875 4.53691,0 8.81821,-1.11314 12.59375,-3.0625 -1.33067,-0.8424 -2.57688,-1.8019 -3.75,-2.84375 -2.73068,1.12031 -5.71065,1.75 -8.84375,1.75 C 44.553126,73.5655 34.046874,63.005003 34.046874,50 c 0,-13.0067 10.506252,-23.5625 23.468752,-23.5625 3.13269,0 6.11315,0.62969 8.84375,1.75 1.17312,-1.041721 2.41933,-2.001442 3.75,-2.84375 -3.7755,-1.949367 -8.05743,-3.0625 -12.59375,-3.0625 z M 80.5,76.65625 c -5.303,0 -9.565,4.2125 -9.875,9.4375 -2.591,0.249 -4.5995,2.19375 -5.0625,4.71875 C 65.4105,90.7965 65.286,90.75 65.125,90.75 62.308,90.75 60,93.06 60,95.875 c 0,1.408 0.67125,2.588 1.65625,3.25 0.986,0.662 2.19775,0.875 3.46875,0.875 l 13.09375,0 7.125,0 6.5625,0 c 4.46,0 8.09375,-3.63275 8.09375,-8.09375 0,-4.461 -3.63275,-8.09375 -8.09375,-8.09375 -0.677,0 -1.29025,0.18475 -1.90625,0.34375 -1.127,-4.272 -4.881,-7.5 -9.5,-7.5 z m 0,1.90625 c 4.035,0 7.3275,2.98275 7.9375,6.84375 l 0.1875,1.15625 1.09375,-0.4375 c 0.693,-0.263 1.4275,-0.40625 2.1875,-0.40625 3.432,0 6.1875,2.7565 6.1875,6.1875 0,3.432 -2.7555,6.1875 -6.1875,6.1875 l -6.5625,0 -7.125,0 -13.09375,0 c -1.031,0 -1.88425,-0.2115 -2.40625,-0.5625 -0.522,-0.35 -0.8125,-0.76225 -0.8125,-1.65625 0,-1.785 1.43175,-3.21875 3.21875,-3.21875 0.296,0 0.57625,0.05725 0.90625,0.15625 l 1.25,0.375 0,-1.28125 c 0,-0.059 -0.02825,-0.06075 -0.03125,-0.09375 0,-0.054 -0.005,-0.0505 0,-0.0625 -0.001,-0.005 0.001,-0.02925 0,-0.03125 0.05,-2.124 1.77025,-3.8125 3.90625,-3.8125 -0.031,0 0.06525,0.01625 0.28125,0.03125 L 72.5,88 72.46875,86.9375 c -0.012,-0.261 -0.0625,-0.34225 -0.0625,-0.28125 0,-4.471 3.61975,-8.09375 8.09375,-8.09375 z" />
</svg>
