<?xml version="1.0" encoding="UTF-8" standalone="no"?>
<svg
   xmlns:dc="http://purl.org/dc/elements/1.1/"
   xmlns:cc="http://creativecommons.org/ns#"
   xmlns:rdf="http://www.w3.org/1999/02/22-rdf-syntax-ns#"
   xmlns:svg="http://www.w3.org/2000/svg"
   xmlns="http://www.w3.org/2000/svg"
   xmlns:sodipodi="http://sodipodi.sourceforge.net/DTD/sodipodi-0.dtd"
   xmlns:inkscape="http://www.inkscape.org/namespaces/inkscape"
   height="100"
   width="100"
   id="svg2"
   version="1.1"
   inkscape:version="0.48.5 r10040"
   sodipodi:docname="102.svg">
  <metadata
     id="metadata10">
    <rdf:RDF>
      <cc:Work
         rdf:about="">
        <dc:format>image/svg+xml</dc:format>
        <dc:type
           rdf:resource="http://purl.org/dc/dcmitype/StillImage" />
        <dc:title></dc:title>
      </cc:Work>
    </rdf:RDF>
  </metadata>
  <defs
     id="defs8" />
  <sodipodi:namedview
     pagecolor="#ffffff"
     bordercolor="#666666"
     borderopacity="1"
     objecttolerance="10"
     gridtolerance="10"
     guidetolerance="10"
     inkscape:pageopacity="0"
     inkscape:pageshadow="2"
     inkscape:window-width="959"
     inkscape:window-height="1013"
     id="namedview6"
     showgrid="false"
     inkscape:zoom="3.337544"
     inkscape:cx="39.48137"
     inkscape:cy="20.316284"
     inkscape:window-x="959"
     inkscape:window-y="27"
     inkscape:window-maximized="0"
     inkscape:current-layer="svg2" />
  <path
     id="path3017-5-27"
     style="fill:#000000;fill-opacity:1;fill-rule:nonzero;stroke:none"
     d="m 50.486229,22.229406 c -15.25,0 -27.625,12.416749 -27.625,27.71875 0,15.300001 12.375,27.721751 27.625,27.718751 4.536912,0 8.818214,-1.11313 12.593754,-3.0625 -1.33067,-0.84239 -2.57688,-1.801901 -3.75,-2.84375 -2.730682,1.12031 -5.710652,1.75 -8.843754,1.75 -12.9625,0.003 -23.46875,-10.5575 -23.46875,-23.562501 0,-13.0067 10.50625,-23.5625 23.46875,-23.5625 3.132692,0 6.113152,0.62969 8.843754,1.75 1.17312,-1.04172 2.41933,-2.00144 3.75,-2.84375 -3.7755,-1.94937 -8.057432,-3.0625 -12.593754,-3.0625 z m 4.281252,4.5625 c -5.791572,5.98632 -9.375002,14.15844 -9.375002,23.15625 0,9.01256 3.59654,17.158661 9.406252,23.156251 1.56958,-0.29625 3.08918,-0.74998 4.531252,-1.34375 -6.023042,-5.33861 -9.812504,-13.124061 -9.812504,-21.812501 0,-8.67394 3.777042,-16.47531 9.781254,-21.8125 -1.445202,-0.59347 -2.958362,-1.04902 -4.531252,-1.34375 z M 16.922916,11.131136 c -0.04039,1.99591 -1.658825,3.6074 -3.657807,3.635321 2.024631,0.02804 3.657807,1.678994 3.657807,3.710275 0,0.02557 5.03e-4,0.04951 0,0.07496 l 0.0075,0 c 0.04012,-2.014006 1.67917,-3.63532 3.70278,-3.63532 -2.048778,0 -3.710275,-1.661498 -3.710275,-3.710276 0,-0.02517 0.007,-0.04991 0.0075,-0.07496 l -0.0075,0 z m 74.576271,21.610173 c -0.04039,1.99591 -1.658825,3.6074 -3.657807,3.63532 2.024631,0.028 3.657807,1.67899 3.657807,3.71027 0,0.0256 5.03e-4,0.0495 0,0.075 l 0.0075,0 c 0.04012,-2.014 1.67917,-3.63532 3.70278,-3.63532 -2.048778,0 -3.710275,-1.66149 -3.710275,-3.71027 0,-0.0252 0.007,-0.0499 0.0075,-0.075 l -0.0075,0 z M 67.770374,9.8599505 c -0.04039,1.9959115 -1.658825,3.6074005 -3.657807,3.6353215 2.024631,0.02804 3.657807,1.678994 3.657807,3.710275 0,0.02557 5.03e-4,0.04951 0,0.07496 l 0.0075,0 c 0.04012,-2.014006 1.67917,-3.63532 3.70278,-3.63532 -2.048778,0 -3.710275,-1.661499 -3.710275,-3.7102775 0,-0.02517 0.007,-0.04991 0.0075,-0.07496 l -0.0075,0 z M 85.143255,85.707413 c -0.04039,1.99591 -1.658825,3.6074 -3.657807,3.63532 2.024631,0.028 3.657807,1.67899 3.657807,3.71027 0,0.0256 5.03e-4,0.0495 0,0.075 l 0.0075,0 c 0.04012,-2.014 1.67917,-3.635321 3.70278,-3.635321 -2.048778,0 -3.710275,-1.6615 -3.710275,-3.710269 0,-0.0252 0.007,-0.0499 0.0075,-0.075 l -0.0075,0 z m -65.254237,-7.20339 c -0.04039,1.99591 -1.658825,3.6074 -3.657807,3.63532 2.024631,0.028 3.657807,1.67899 3.657807,3.71027 0,0.0256 5.03e-4,0.0495 0,0.075 l 0.0075,0 c 0.04012,-2.014 1.67917,-3.63532 3.70278,-3.63532 -2.048778,0 -3.710275,-1.6615 -3.710275,-3.71027 0,-0.0252 0.007,-0.0499 0.0075,-0.075 l -0.0075,0 z M 8.4483408,47.148086 c -0.04039,1.995911 -1.658825,3.6074 -3.6578077,3.635321 2.0246317,0.02804 3.6578077,1.678994 3.6578077,3.710275 0,0.02557 5.03e-4,0.04951 0,0.07496 l 0.0075,0 c 0.04012,-2.014006 1.6791702,-3.63532 3.7027792,-3.63532 -2.048777,0 -3.7102742,-1.661498 -3.7102742,-3.710276 0,-0.02517 0.007,-0.04991 0.0075,-0.07496 l -0.0075,0 z M 49.973764,89.520963 c -0.04039,1.99592 -1.658825,3.6074 -3.657807,3.63533 2.024631,0.028 3.657807,1.67899 3.657807,3.710269 0,0.0256 5.03e-4,0.0495 0,0.075 l 0.0075,0 c 0.04012,-2.01401 1.67917,-3.635321 3.70278,-3.635321 -2.048778,0 -3.710275,-1.6615 -3.710275,-3.71028 0,-0.0252 0.007,-0.0499 0.0075,-0.075 l -0.0075,0 z M 77.61012,41.216047 c -5.32458,0 -9.598332,4.228948 -9.909534,9.474678 -2.60178,0.250057 -4.62185,2.208772 -5.086544,4.743927 -0.152649,-0.01602 -0.273355,-0.06589 -0.43486,-0.06589 -2.828393,0 -5.152432,2.313139 -5.152432,5.139255 0,1.413902 0.671445,2.603468 1.660374,3.268039 0.989942,0.664994 2.216047,0.882898 3.492058,0.882898 l 13.138038,0 7.15543,0 6.58879,0 c 4.47784,0 8.13056,-3.651876 8.13056,-8.130565 0,-4.47869 -3.65187,-8.130566 -8.13056,-8.130566 -0.67975,0 -1.29214,0.183222 -1.91075,0.342617 -1.13138,-4.288933 -4.90332,-7.524396 -9.54057,-7.524396 z M 23.805828,52.255011 c -5.32458,0 -9.598332,4.228948 -9.909534,9.474678 -2.601781,0.250057 -4.621851,2.208772 -5.086545,4.743927 -0.152649,-0.01602 -0.273355,-0.06589 -0.43486,-0.06589 -2.828393,0 -5.152432,2.313139 -5.152432,5.139255 0,1.413902 0.671445,2.603468 1.660374,3.268039 0.989942,0.664994 2.216047,0.882898 3.492058,0.882898 l 13.138039,0 7.15543,0 6.58879,0 c 4.47784,0 8.13056,-3.651876 8.13056,-8.130565 0,-4.478689 -3.65187,-8.130565 -8.13056,-8.130565 -0.67975,0 -1.29214,0.183221 -1.91075,0.342617 -1.13138,-4.288933 -4.90332,-7.524396 -9.54057,-7.524396 z" />
</svg>
