<?xml version="1.0" encoding="UTF-8" standalone="no"?>
<svg
   xmlns:dc="http://purl.org/dc/elements/1.1/"
   xmlns:cc="http://creativecommons.org/ns#"
   xmlns:rdf="http://www.w3.org/1999/02/22-rdf-syntax-ns#"
   xmlns:svg="http://www.w3.org/2000/svg"
   xmlns="http://www.w3.org/2000/svg"
   xmlns:sodipodi="http://sodipodi.sourceforge.net/DTD/sodipodi-0.dtd"
   xmlns:inkscape="http://www.inkscape.org/namespaces/inkscape"
   height="100"
   width="100"
   id="svg2"
   version="1.1"
   inkscape:version="0.48.5 r10040"
   sodipodi:docname="103.svg">
  <metadata
     id="metadata10">
    <rdf:RDF>
      <cc:Work
         rdf:about="">
        <dc:format>image/svg+xml</dc:format>
        <dc:type
           rdf:resource="http://purl.org/dc/dcmitype/StillImage" />
        <dc:title></dc:title>
      </cc:Work>
    </rdf:RDF>
  </metadata>
  <defs
     id="defs8" />
  <sodipodi:namedview
     pagecolor="#ffffff"
     bordercolor="#666666"
     borderopacity="1"
     objecttolerance="10"
     gridtolerance="10"
     guidetolerance="10"
     inkscape:pageopacity="0"
     inkscape:pageshadow="2"
     inkscape:window-width="1569"
     inkscape:window-height="842"
     id="namedview6"
     showgrid="false"
     inkscape:zoom="4.72"
     inkscape:cx="33.134986"
     inkscape:cy="30.280474"
     inkscape:window-x="21"
     inkscape:window-y="106"
     inkscape:window-maximized="0"
     inkscape:current-layer="svg2" />
  <path
     id="path3020"
     d="m 54.953125,32.65625 c -9.703556,0 -17.495364,7.690148 -18.0625,17.25 -4.741502,0.455706 -8.403138,4.036168 -9.25,8.65625 -0.278188,-0.02921 -0.486923,-0.125 -0.78125,-0.125 -5.15448,0 -9.40625,4.22467 -9.40625,9.375 0,2.57671 1.229019,4.72638 3.03125,5.9375 1.804076,1.21188 4.04959,1.625 6.375,1.625 l 23.9375,0 13.03125,0 12,0 c 8.160455,0 14.8125,-6.650504 14.8125,-14.8125 0,-8.161991 -6.650509,-14.8125 -14.8125,-14.8125 -1.238784,0 -2.341394,0.334515 -3.46875,0.625 -2.061819,-7.816178 -8.95531,-13.71875 -17.40625,-13.71875 z m 0,3.46875 c 7.382757,0 13.414654,5.466643 14.53125,12.53125 l 0.34375,2.125 2.03125,-0.8125 c 1.267987,-0.481067 2.577807,-0.71875 3.96875,-0.71875 6.279223,0 11.34375,5.034813 11.34375,11.3125 0,6.279226 -5.064527,11.3125 -11.34375,11.3125 l -12,0 -13.03125,0 -23.9375,0 c -1.88661,0 -3.48213,-0.3888 -4.4375,-1.03125 -0.95514,-0.64014 -1.5,-1.39516 -1.5,-3.03125 0,-3.26525 2.667632,-5.875 5.9375,-5.875 0.541778,0 1.052226,0.100658 1.65625,0.28125 l 2.28125,0.6875 0,-2.34375 c 0,-0.107587 -0.05712,-0.126791 -0.0625,-0.1875 0,-0.09837 -0.0092,-0.102705 0,-0.125 -0.0016,-0.0092 0.0016,-0.02818 0,-0.03125 0.09146,-3.886954 3.216527,-7 7.125,-7 -0.05686,0 0.136253,0.06608 0.53125,0.09375 l 1.9375,0.09375 -0.0625,-1.96875 c -0.02152,-0.477224 -0.125,-0.611428 -0.125,-0.5 0,-8.180435 6.625917,-14.8125 14.8125,-14.8125 z m -23.5,-11.5 c -12.2,0 -22.09375,9.9459 -22.09375,22.1875 0,7.203122 3.441775,13.573266 8.75,17.625 0.409437,-1.049773 0.979889,-2.014513 1.71875,-2.84375 -4.350898,-3.453577 -7.125,-8.784976 -7.125,-14.78125 0,-10.40536 8.38,-18.84375 18.75,-18.84375 1.176104,0 2.323107,0.102115 3.4375,0.3125 -4.633259,4.789053 -7.5,11.332998 -7.5,18.53125 0,2.97068 0.50678,5.805154 1.40625,8.46875 0.646278,-1.178987 1.508202,-2.217569 2.53125,-3.0625 -0.411921,-1.736054 -0.625,-3.542512 -0.625,-5.40625 0,-6.939151 3.009128,-13.198995 7.8125,-17.46875 0.009,0.0037 0.02225,-0.0037 0.03125,0 0.938492,-0.833377 1.935464,-1.576154 3,-2.25 -3.020401,-1.559494 -6.4647,-2.46875 -10.09375,-2.46875 z"
     inkscape:connector-curvature="0" />
</svg>
