<?xml version="1.0" encoding="UTF-8" standalone="no"?>
<svg
   xmlns:dc="http://purl.org/dc/elements/1.1/"
   xmlns:cc="http://creativecommons.org/ns#"
   xmlns:rdf="http://www.w3.org/1999/02/22-rdf-syntax-ns#"
   xmlns:svg="http://www.w3.org/2000/svg"
   xmlns="http://www.w3.org/2000/svg"
   xmlns:sodipodi="http://sodipodi.sourceforge.net/DTD/sodipodi-0.dtd"
   xmlns:inkscape="http://www.inkscape.org/namespaces/inkscape"
   height="100"
   width="100"
   id="svg2"
   version="1.1"
   inkscape:version="0.48.5 r10040"
   sodipodi:docname="204.svg">
  <metadata
     id="metadata10">
    <rdf:RDF>
      <cc:Work
         rdf:about="">
        <dc:format>image/svg+xml</dc:format>
        <dc:type
           rdf:resource="http://purl.org/dc/dcmitype/StillImage" />
        <dc:title></dc:title>
      </cc:Work>
    </rdf:RDF>
  </metadata>
  <defs
     id="defs8" />
  <sodipodi:namedview
     pagecolor="#ffffff"
     bordercolor="#666666"
     borderopacity="1"
     objecttolerance="10"
     gridtolerance="10"
     guidetolerance="10"
     inkscape:pageopacity="0"
     inkscape:pageshadow="2"
     inkscape:window-width="959"
     inkscape:window-height="1013"
     id="namedview6"
     showgrid="false"
     inkscape:zoom="3.337544"
     inkscape:cx="56.37389"
     inkscape:cy="-1.7125999"
     inkscape:window-x="959"
     inkscape:window-y="27"
     inkscape:window-maximized="0"
     inkscape:current-layer="svg2" />
  <path
     id="path2998"
     d="m 50.23097,21.78809 c -15.25,0 -27.625,12.416749 -27.625,27.71875 0,15.300001 12.375,27.721751 27.625,27.718751 4.536915,0 8.818215,-1.11313 12.593755,-3.0625 -1.33067,-0.84239 -2.57688,-1.801901 -3.75,-2.84375 -2.73068,1.12031 -5.710653,1.75 -8.843755,1.75 -12.9625,0.003 -23.46875,-10.5575 -23.46875,-23.562501 0,-13.0067 10.50625,-23.5625 23.46875,-23.5625 3.132692,0 6.113155,0.62969 8.843755,1.75 1.17312,-1.04172 2.41933,-2.00144 3.75,-2.84375 -3.7755,-1.94937 -8.05743,-3.0625 -12.593755,-3.0625 z m 4.281255,4.5625 c -5.791575,5.98632 -9.375005,14.15844 -9.375005,23.15625 0,9.01256 3.59654,17.158661 9.406255,23.156251 1.56958,-0.29625 3.08918,-0.74998 4.53125,-1.34375 C 53.051682,65.980731 49.26222,58.19528 49.26222,49.50684 c 0,-8.67394 3.777042,-16.47531 9.781255,-21.8125 -1.4452,-0.59347 -2.95836,-1.04902 -4.53125,-1.34375 z M 16.667657,10.689819 c -0.04039,1.995911 -1.658825,3.6074 -3.657807,3.635321 2.024631,0.02804 3.657807,1.678994 3.657807,3.710275 0,0.02557 5.03e-4,0.04951 0,0.07496 l 0.0075,0 c 0.04012,-2.014006 1.67917,-3.63532 3.70278,-3.63532 -2.048778,0 -3.710275,-1.661498 -3.710275,-3.710276 0,-0.02517 0.007,-0.04991 0.0075,-0.07496 l -0.0075,0 z m 74.576268,21.610174 c -0.0404,1.99591 -1.65882,3.6074 -3.6578,3.63532 2.02463,0.028 3.6578,1.67899 3.6578,3.71027 0,0.0256 5.1e-4,0.0495 0,0.075 l 0.007,0 c 0.0401,-2.014 1.67917,-3.63532 3.70278,-3.63532 -2.04878,0 -3.71027,-1.66149 -3.71027,-3.71027 0,-0.0252 0.007,-0.0499 0.007,-0.075 l -0.007,0 z M 67.515115,9.418635 c -0.0404,1.99591 -1.65883,3.607399 -3.65781,3.63532 2.02463,0.02804 3.65781,1.678994 3.65781,3.710275 0,0.02557 5e-4,0.04951 0,0.07496 l 0.008,0 c 0.0401,-2.014006 1.67917,-3.63532 3.70278,-3.63532 -2.04878,0 -3.71028,-1.661498 -3.71028,-3.710275 0,-0.02517 0.007,-0.04991 0.008,-0.07496 l -0.008,0 z m 17.37288,75.847457 c -0.0404,1.995911 -1.65882,3.6074 -3.65781,3.635321 2.02463,0.02804 3.65781,1.678994 3.65781,3.710275 0,0.02557 5e-4,0.04951 0,0.07496 l 0.007,0 c 0.0401,-2.014006 1.67917,-3.63532 3.70278,-3.63532 -2.04878,0 -3.71027,-1.661498 -3.71027,-3.710276 0,-0.02517 0.007,-0.04991 0.007,-0.07496 l -0.007,0 z m -65.254236,-7.20339 c -0.04039,1.995911 -1.658825,3.6074 -3.657807,3.635321 2.024631,0.02804 3.657807,1.678994 3.657807,3.710275 0,0.02557 5.03e-4,0.04951 0,0.07496 l 0.0075,0 c 0.04012,-2.014006 1.67917,-3.63532 3.70278,-3.63532 -2.048778,0 -3.710275,-1.661498 -3.710275,-3.710276 0,-0.02517 0.007,-0.04991 0.0075,-0.07496 l -0.0075,0 z M 8.1930819,46.70677 c -0.04039,1.995911 -1.658825,3.6074 -3.657807,3.635321 2.024631,0.02804 3.657807,1.678994 3.657807,3.710275 0,0.02557 5.03e-4,0.04951 0,0.07496 l 0.0075,0 c 0.04012,-2.014006 1.6791696,-3.63532 3.7027791,-3.63532 -2.0487775,0 -3.7102741,-1.661498 -3.7102741,-3.710276 0,-0.02517 0.007,-0.04991 0.0075,-0.07496 l -0.0075,0 z M 49.718505,89.079651 c -0.04039,1.995911 -1.658825,3.607399 -3.657807,3.635321 2.024631,0.02804 3.657807,1.678994 3.657807,3.710274 0,0.0256 5.03e-4,0.0495 0,0.075 l 0.0075,0 c 0.04012,-2.014005 1.67917,-3.635319 3.70278,-3.635319 -2.048778,0 -3.710275,-1.661498 -3.710275,-3.710276 0,-0.02517 0.007,-0.04991 0.0075,-0.07496 l -0.0075,0 z m 3.844006,-67.033052 c -12.627,0 -22.762,10.028749 -23.5,22.468749 -6.17,0.593 -10.9605,5.238002 -12.0625,11.250002 -0.362,-0.038 -0.64825,-0.15625 -1.03125,-0.15625 -6.7074,0 -12.21875,5.4855 -12.21875,12.1875 0,3.353 1.5923,6.174 3.9375,7.75 2.3476,1.577 5.25525,2.09375 8.28125,2.09375 l 31.15625,0 16.96875,0 15.625005,0 C 91.337764,77.64035 100,68.9801 100,58.3591 100,47.738098 91.339764,39.077848 80.718766,39.077848 c -1.612,0 -3.06425,0.4345 -4.531255,0.8125 -2.683,-10.171 -11.628,-17.84375 -22.625,-17.84375 z" />
</svg>
