<?xml version="1.0" encoding="UTF-8" standalone="no"?>
<svg
   xmlns:dc="http://purl.org/dc/elements/1.1/"
   xmlns:cc="http://creativecommons.org/ns#"
   xmlns:rdf="http://www.w3.org/1999/02/22-rdf-syntax-ns#"
   xmlns:svg="http://www.w3.org/2000/svg"
   xmlns="http://www.w3.org/2000/svg"
   xmlns:sodipodi="http://sodipodi.sourceforge.net/DTD/sodipodi-0.dtd"
   xmlns:inkscape="http://www.inkscape.org/namespaces/inkscape"
   height="100"
   width="100"
   id="svg2"
   version="1.1"
   inkscape:version="0.48.5 r10040"
   sodipodi:docname="208.svg">
  <metadata
     id="metadata10">
    <rdf:RDF>
      <cc:Work
         rdf:about="">
        <dc:format>image/svg+xml</dc:format>
        <dc:type
           rdf:resource="http://purl.org/dc/dcmitype/StillImage" />
        <dc:title></dc:title>
      </cc:Work>
    </rdf:RDF>
  </metadata>
  <defs
     id="defs8" />
  <sodipodi:namedview
     pagecolor="#ffffff"
     bordercolor="#666666"
     borderopacity="1"
     objecttolerance="10"
     gridtolerance="10"
     guidetolerance="10"
     inkscape:pageopacity="0"
     inkscape:pageshadow="2"
     inkscape:window-width="959"
     inkscape:window-height="1013"
     id="namedview6"
     showgrid="false"
     inkscape:zoom="2.36"
     inkscape:cx="40.780576"
     inkscape:cy="13.994151"
     inkscape:window-x="959"
     inkscape:window-y="27"
     inkscape:window-maximized="0"
     inkscape:current-layer="svg2" />
  <path
     style="fill:#000000;fill-opacity:1;stroke:none"
     d="m 57.782838,79.301995 -5.819019,16.00231 1.750637,0 5.819019,-16.00231 -1.750637,0 z"
     id="path3210" />
  <path
     style="fill:#000000;fill-opacity:1;stroke:none"
     d="m 74.075926,79.301995 -5.819018,16.00231 1.750637,0 5.819018,-16.00231 -1.750637,0 z"
     id="path3208" />
  <path
     style="fill:#000000;fill-opacity:1;stroke:none"
     d="m 49.636291,79.301995 -5.819019,16.00231 1.750637,0 5.819019,-16.00231 -1.750637,0 z"
     id="path3206" />
  <path
     style="fill:#000000;fill-opacity:1;stroke:none"
     d="m 41.489743,79.301995 -5.819018,16.00231 1.750637,0 5.819018,-16.00231 -1.750637,0 z"
     id="path3204" />
  <path
     style="fill:#000000;fill-opacity:1;stroke:none"
     d="m 65.92938,79.301995 -5.819018,16.00231 1.750637,0 5.819018,-16.00231 -1.750637,0 z"
     id="path3202" />
  <path
     style="fill:#000000;fill-opacity:1;stroke:none"
     d="m 82.222478,79.295995 -5.819018,16.00231 1.750637,0 5.819018,-16.00231 -1.750637,0 z"
     id="path3200" />
  <path
     style="fill:#000000;fill-opacity:1;stroke:none"
     d="m 63.35999,33.791535 c -9.962948,0 -17.95966,7.912878 -18.541957,17.728278 -4.86825,0.46789 -8.648048,4.13289 -9.517547,8.87647 -0.285625,-0.03 -0.511482,-0.12328 -0.813676,-0.12328 -5.292269,0 -9.640832,4.32816 -9.640832,9.61617 0,2.64559 1.256356,4.871412 3.106764,6.114902 1.852302,1.24429 4.146495,1.65201 6.534068,1.65201 l 24.582887,0 13.388674,0 12.328433,0 c 8.378597,0 15.213266,-6.833102 15.213266,-15.213282 0,-8.38018 -6.833089,-15.21328 -15.213266,-15.21328 -1.271899,0 -2.417753,0.34283 -3.575248,0.64108 -2.11694,-8.02512 -9.174719,-14.079069 -17.851566,-14.079069 z"
     id="path3198" />
  <path
     style="fill:#000000;fill-opacity:1;stroke:none"
     d="m 50.0625,22.2185 c -15.25,0 -27.625,12.416749 -27.625,27.71875 0,15.300001 12.375,27.721751 27.625,27.718751 4.536912,0 8.818214,-1.11313 12.593754,-3.0625 -1.33067,-0.84239 -2.57688,-1.801901 -3.75,-2.84375 -2.730682,1.12031 -5.710652,1.75 -8.843754,1.75 -12.9625,0.003 -23.46875,-10.5575 -23.46875,-23.562501 0,-13.0067 10.50625,-23.5625 23.46875,-23.5625 3.132692,0 6.113152,0.62969 8.843754,1.75 1.17312,-1.04172 2.41933,-2.00144 3.75,-2.84375 -3.7755,-1.94937 -8.057432,-3.0625 -12.593754,-3.0625 z"
     id="path3196" />
  <path
     style="fill:#000000;fill-opacity:1;stroke:none"
     d="m 54.343752,26.781 c -5.791572,5.98632 -9.375002,14.15844 -9.375002,23.15625 0,9.01256 3.59654,17.158661 9.406252,23.156251 1.56958,-0.29625 3.08918,-0.74998 4.531252,-1.34375 C 52.883212,66.411141 49.09375,58.62569 49.09375,49.93725 c 0,-8.67394 3.777042,-16.47531 9.781254,-21.8125 -1.445202,-0.59347 -2.958362,-1.04902 -4.531252,-1.34375 z"
     id="path3194" />
  <path
     style="fill:#000000;fill-opacity:1;stroke:none"
     d="m 16.499187,11.12023 c -0.04039,1.995911 -1.658825,3.6074 -3.657807,3.635321 2.024631,0.02804 3.657807,1.678994 3.657807,3.710275 0,0.02557 5.03e-4,0.04951 0,0.07496 l 0.0075,0 c 0.04012,-2.014006 1.67917,-3.63532 3.70278,-3.63532 -2.048778,0 -3.710275,-1.661498 -3.710275,-3.710276 0,-0.02517 0.007,-0.04991 0.0075,-0.07496 l -0.0075,0 z"
     id="path3192" />
  <path
     style="fill:#000000;fill-opacity:1;stroke:none"
     d="m 91.075458,32.730403 c -0.04039,1.99591 -1.658825,3.6074 -3.657807,3.63532 2.024631,0.028 3.657807,1.67899 3.657807,3.71027 0,0.0256 5.03e-4,0.0495 0,0.075 l 0.0075,0 c 0.04012,-2.014 1.67917,-3.63532 3.70278,-3.63532 -2.048778,0 -3.710275,-1.66149 -3.710275,-3.71027 0,-0.0252 0.007,-0.0499 0.0075,-0.075 l -0.0075,0 z"
     id="path3190" />
  <path
     style="fill:#000000;fill-opacity:1;stroke:none"
     d="m 67.346645,9.8490445 c -0.04039,1.9959115 -1.658825,3.6074005 -3.657807,3.6353215 2.024631,0.02804 3.657807,1.678994 3.657807,3.710275 0,0.02557 5.03e-4,0.04951 0,0.07496 l 0.0075,0 c 0.04012,-2.014006 1.67917,-3.63532 3.70278,-3.63532 -2.048778,0 -3.710275,-1.661498 -3.710275,-3.7102765 0,-0.02517 0.007,-0.04991 0.0075,-0.07496 l -0.0075,0 z"
     id="path3188" />
  <path
     style="fill:#000000;fill-opacity:1;stroke:none"
     d="m 19.465289,78.493112 c -0.04039,1.995911 -1.658825,3.6074 -3.657807,3.635321 2.024631,0.02804 3.657807,1.678994 3.657807,3.710275 0,0.02557 5.03e-4,0.04951 0,0.07496 l 0.0075,0 c 0.04012,-2.014006 1.67917,-3.63532 3.70278,-3.63532 -2.048778,0 -3.710275,-1.661498 -3.710275,-3.710276 0,-0.02517 0.007,-0.04991 0.0075,-0.07496 l -0.0075,0 z"
     id="path3186" />
  <path
     style="fill:#000000;fill-opacity:1;stroke:none"
     d="m 8.0246114,47.13718 c -0.04039,1.995911 -1.658825,3.6074 -3.6578075,3.635321 2.0246315,0.02804 3.6578075,1.678994 3.6578075,3.710275 0,0.02557 5.03e-4,0.04951 0,0.07496 l 0.0075,0 c 0.04012,-2.014006 1.67917,-3.63532 3.7027796,-3.63532 -2.0487776,0 -3.7102746,-1.661498 -3.7102746,-3.710276 0,-0.02517 0.007,-0.04991 0.0075,-0.07496 l -0.0075,0 z"
     id="path3184" />
</svg>
