<?xml version="1.0" encoding="UTF-8" standalone="no"?>
<svg
   xmlns:dc="http://purl.org/dc/elements/1.1/"
   xmlns:cc="http://creativecommons.org/ns#"
   xmlns:rdf="http://www.w3.org/1999/02/22-rdf-syntax-ns#"
   xmlns:svg="http://www.w3.org/2000/svg"
   xmlns="http://www.w3.org/2000/svg"
   xmlns:sodipodi="http://sodipodi.sourceforge.net/DTD/sodipodi-0.dtd"
   xmlns:inkscape="http://www.inkscape.org/namespaces/inkscape"
   height="100"
   width="100"
   id="svg2"
   version="1.1"
   inkscape:version="0.48.5 r10040"
   sodipodi:docname="109.svg">
  <metadata
     id="metadata10">
    <rdf:RDF>
      <cc:Work
         rdf:about="">
        <dc:format>image/svg+xml</dc:format>
        <dc:type
           rdf:resource="http://purl.org/dc/dcmitype/StillImage" />
        <dc:title></dc:title>
      </cc:Work>
    </rdf:RDF>
  </metadata>
  <defs
     id="defs8" />
  <sodipodi:namedview
     pagecolor="#ffffff"
     bordercolor="#666666"
     borderopacity="1"
     objecttolerance="10"
     gridtolerance="10"
     guidetolerance="10"
     inkscape:pageopacity="0"
     inkscape:pageshadow="2"
     inkscape:window-width="959"
     inkscape:window-height="1013"
     id="namedview6"
     showgrid="false"
     inkscape:zoom="3.337544"
     inkscape:cx="65.553475"
     inkscape:cy="52.9081"
     inkscape:window-x="959"
     inkscape:window-y="27"
     inkscape:window-maximized="0"
     inkscape:current-layer="svg2" />
  <path
     id="path2993"
     style="fill:#000000;fill-opacity:1;fill-rule:nonzero;stroke:none"
     d="m 16.360465,11.086794 c -0.04039,1.995911 -1.658825,3.6074 -3.657807,3.635321 2.024631,0.02804 3.657807,1.678994 3.657807,3.710275 0,0.02557 5.03e-4,0.04951 0,0.07496 l 0.0075,0 c 0.04012,-2.014006 1.67917,-3.63532 3.70278,-3.63532 -2.048778,0 -3.710275,-1.661498 -3.710275,-3.710276 0,-0.02517 0.007,-0.04991 0.0075,-0.07496 l -0.0075,0 z m 74.576272,21.610173 c -0.0404,1.99591 -1.65883,3.6074 -3.65781,3.63532 2.02463,0.028 3.65781,1.67899 3.65781,3.71027 0,0.0256 5e-4,0.0495 0,0.075 l 0.008,0 c 0.0401,-2.014 1.67917,-3.63532 3.70278,-3.63532 -2.04878,0 -3.71028,-1.66149 -3.71028,-3.71027 0,-0.0252 0.007,-0.0499 0.008,-0.075 l -0.008,0 z M 67.207923,9.8156075 c -0.04039,1.9959125 -1.658825,3.6074015 -3.657807,3.6353225 2.024631,0.02804 3.657807,1.678994 3.657807,3.710275 0,0.02557 5.03e-4,0.04951 0,0.07496 l 0.0075,0 c 0.04012,-2.014006 1.67917,-3.63532 3.70278,-3.63532 -2.048778,0 -3.710275,-1.661498 -3.710275,-3.7102775 0,-0.02517 0.007,-0.04991 0.0075,-0.07496 l -0.0075,0 z M 19.326567,78.459676 c -0.04039,1.995911 -1.658825,3.6074 -3.657807,3.635321 2.024631,0.02804 3.657807,1.678994 3.657807,3.710275 0,0.02557 5.03e-4,0.04951 0,0.07496 l 0.0075,0 c 0.04012,-2.014006 1.67917,-3.63532 3.70278,-3.63532 -2.048778,0 -3.710275,-1.661498 -3.710275,-3.710276 0,-0.02517 0.007,-0.04991 0.0075,-0.07496 l -0.0075,0 z M 7.8858906,47.103744 c -0.04039,1.995911 -1.658825,3.6074 -3.657807,3.635321 2.024631,0.02804 3.657807,1.678994 3.657807,3.710275 0,0.02557 5.03e-4,0.04951 0,0.07496 l 0.0075,0 c 0.04012,-2.014006 1.6791694,-3.63532 3.7027784,-3.63532 -2.048777,0 -3.7102734,-1.661498 -3.7102734,-3.710276 0,-0.02517 0.007,-0.04991 0.0075,-0.07496 l -0.0075,0 z M 49.9375,22.1875 c -15.25,0 -27.625,12.416749 -27.625,27.71875 0,14.821876 11.597122,26.947158 26.1875,27.6875 0.0205,0.0022 0.04196,-0.0021 0.0625,0 0.02047,9.93e-4 0.04202,-9.48e-4 0.0625,0 0.423492,0.04146 0.846031,0.0625 1.28125,0.0625 l 18.8125,0 10.21875,0 9.4375,0 C 94.781506,77.656249 100,72.224782 100,65.5625 100,58.900218 94.782712,53.46875 88.375,53.46875 c -0.972529,0 -1.86495,0.262891 -2.75,0.5 -1.61867,-6.380008 -7.021695,-11.1875 -13.65625,-11.1875 -7.617945,0 -13.71101,6.290456 -14.15625,14.09375 -2.861593,0.285954 -5.223724,2.068775 -6.46875,4.59375 -1.534789,-3.545903 -2.375,-7.447462 -2.375,-11.5625 0,-8.67394 3.777038,-16.47531 9.78125,-21.8125 C 58.027399,27.797015 57.286801,27.537412 56.53125,27.3125 56.153474,27.200044 55.760628,27.093427 55.375,27 c -0.385628,-0.09343 -0.763027,-0.176317 -1.15625,-0.25 -5.791572,5.98632 -9.375,14.15844 -9.375,23.15625 0,5.07949 1.119053,9.887986 3.15625,14.1875 -3.130674,0.880435 -5.46875,3.857411 -5.46875,7.375 0,0.274002 0.03101,0.550815 0.0625,0.8125 -9.373928,-3.090724 -16.125,-11.936979 -16.125,-22.375 0,-13.0067 10.50625,-23.5625 23.46875,-23.5625 1.469331,0 2.888971,0.143548 4.28125,0.40625 0.39015,0.07362 0.773163,0.157198 1.15625,0.25 0.384975,0.09326 0.778857,0.200504 1.15625,0.3125 0.75502,0.224061 1.496778,0.486045 2.21875,0.78125 0.0088,0.0036 0.02249,-0.0036 0.03125,0 1.17312,-1.04172 2.41933,-2.00144 3.75,-2.84375 -3.7755,-1.94937 -8.057428,-3.0625 -12.59375,-3.0625 z m 37.238086,75.590069 0,-2.039775 -1.139665,0.640953 -0.580563,-0.332368 0,-0.718641 1.690111,-0.960658 0,-1.340597 -1.226155,0.787986 0,-1.420294 -1.172093,0.675554 0,1.925641 -0.64111,0.397235 -0.5418,-0.358473 0,-1.290552 -1.778912,1.003589 -0.759726,-0.319704 0,-0.813934 1.867109,-1.020735 -1.167774,-0.587054 0,-0.74474 0.662733,-0.362793 1.674974,0.986293 1.163441,-0.671222 -0.02811,-0.02148 -1.18939,-0.68219 1.154796,-0.716632 -1.159121,-0.671227 -1.674817,0.984132 -0.62829,-0.312905 0,-0.742581 1.133481,-0.636784 -1.809034,-0.982281 0,-0.813776 0.69501,-0.358166 1.782935,1.029544 0,-1.312332 0.537474,-0.362642 0.658558,0.379939 -0.0042,1.964253 1.19789,0.684199 -0.0042,-1.38786 1.256266,0.675704 0,-1.340597 -1.69011,-0.962666 0,-0.712313 0.580568,-0.336694 1.139659,0.641117 0,-2.035613 0.652073,-0.427509 0.658099,0.427509 0,2.035613 1.180901,-0.654088 0.593847,0.39291 0,0.641116 -1.748649,0.990618 0,1.340597 1.196038,-0.729603 0,1.459206 1.232327,-0.671529 0,-2.100166 0.593691,-0.276308 0.623656,0.276308 0,1.342757 1.834675,-0.990926 0.641412,0.39075 0,0.75972 -1.791731,1.018883 1.120353,0.627982 0,0.725435 -0.580719,0.321713 -1.720228,-1.016723 -1.189546,0.755552 1.150476,0.71694 -1.18507,0.682038 1.22414,0.640954 1.720228,-0.960815 0.552611,0.39075 0,0.693007 -1.079274,0.60651 1.718375,1.020892 0,0.801271 -0.727443,0.332367 -1.688259,-0.960814 0,1.271403 -0.60651,0.338859 -0.59354,-0.338859 0,-1.929961 -1.249781,-0.712156 0,1.340597 -1.196032,-0.729761 0,1.340597 1.690262,0.960658 0,0.759877 -0.583187,0.291289 -1.13318,-0.640954 0,2.039776 -0.657942,0.422876 z m -0.468438,-7.254973 0.610837,0.902119 1.137499,0 0.524811,-0.902119 -0.552919,-0.960658 -1.139665,0 z m -17.020456,3.036933 0,-2.039775 -1.139665,0.640954 -0.580563,-0.332368 0,-0.718641 1.690111,-0.960658 0,-1.340597 -1.226155,0.787986 0,-1.420294 -1.172093,0.675553 0,1.925642 -0.64111,0.397235 -0.541794,-0.358473 0,-1.290552 -1.778918,1.003589 -0.759726,-0.319704 0,-0.813934 1.867109,-1.020735 -1.167774,-0.587054 0,-0.74474 0.662733,-0.362793 1.674974,0.986292 1.163447,-0.671221 -0.02811,-0.02148 -1.189396,-0.682189 1.154796,-0.716632 -1.159121,-0.671228 -1.674817,0.984133 -0.62829,-0.312905 0,-0.742581 1.133481,-0.636784 -1.809028,-0.982281 0,-0.813777 0.69501,-0.358165 1.782929,1.029544 0,-1.312333 0.537474,-0.362641 0.658558,0.379938 -0.0042,1.964254 1.19789,0.684198 -0.0042,-1.387859 1.256266,0.675704 0,-1.340597 -1.690104,-0.962667 0,-0.712307 0.580562,-0.336693 1.139659,0.64111 0,-2.035606 0.652079,-0.42751 0.658093,0.42751 0,2.035606 1.180901,-0.654082 0.593847,0.39291 0,0.64111 -1.748643,0.990619 0,1.340597 1.196032,-0.729604 0,1.459207 1.232327,-0.671529 0,-2.100167 0.593697,-0.276308 0.623656,0.276308 0,1.342757 1.834669,-0.990926 0.641418,0.39075 0,0.759721 -1.791737,1.018883 1.120359,0.627982 0,0.725435 -0.580719,0.321713 -1.720228,-1.016723 -1.189546,0.755552 1.15047,0.716939 -1.18507,0.682039 1.224146,0.640953 1.720228,-0.960814 0.552605,0.39075 0,0.693006 -1.079268,0.606511 1.718369,1.020892 0,0.80127 -0.727443,0.332368 -1.688253,-0.960815 0,1.271404 -0.606516,0.338859 -0.593534,-0.338859 0,-1.929962 -1.249787,-0.712155 0,1.340596 -1.196032,-0.72976 0,1.340597 1.690262,0.960657 0,0.759878 -0.583187,0.291289 -1.133174,-0.640954 0,2.039775 -0.657942,0.422876 z m -0.468438,-7.254972 0.610837,0.902119 1.137499,0 0.524811,-0.902119 -0.552919,-0.960658 -1.139665,0 z m -16.637,11.473012 0,-2.039775 -1.139659,0.640953 -0.580563,-0.332368 0,-0.718641 1.690105,-0.960658 0,-1.340597 -1.226149,0.787986 0,-1.420294 -1.172093,0.675554 0,1.925641 -0.641114,0.397235 -0.541799,-0.358473 0,-1.290552 -1.778918,1.003589 -0.75972,-0.319704 0,-0.813934 1.867102,-1.020735 -1.167767,-0.587054 0,-0.74474 0.662727,-0.362793 1.674974,0.986293 1.16345,-0.671222 -0.02811,-0.02148 -1.189393,-0.68219 1.154799,-0.716632 -1.159124,-0.671227 -1.674823,0.984132 -0.628284,-0.312905 0,-0.742581 1.133481,-0.636784 -1.809034,-0.982281 0,-0.813776 0.69501,-0.358166 1.782935,1.029544 0,-1.312332 0.537474,-0.362642 0.658561,0.379939 -0.0042,1.964253 1.19789,0.684199 -0.0042,-1.38786 1.256266,0.675704 0,-1.340597 -1.69011,-0.962666 0,-0.712313 0.580568,-0.336694 1.139659,0.641117 0,-2.035613 0.652073,-0.427509 0.658099,0.427509 0,2.035613 1.180895,-0.654088 0.593847,0.39291 0,0.641116 -1.748643,0.990618 0,1.340597 1.196038,-0.729603 0,1.459206 1.232327,-0.671529 0,-2.100166 0.593691,-0.276308 0.623656,0.276308 0,1.342757 1.834675,-0.990926 0.641412,0.39075 0,0.75972 -1.791731,1.018883 1.120353,0.627982 0,0.725435 -0.580719,0.321713 -1.720228,-1.016723 -1.189546,0.755552 1.150476,0.71694 -1.18507,0.682038 1.22414,0.640954 1.720228,-0.960815 0.552611,0.39075 0,0.693007 -1.079274,0.60651 1.718375,1.020892 0,0.801271 -0.727444,0.332367 -1.688258,-0.960814 0,1.271403 -0.60651,0.338859 -0.59354,-0.338859 0,-1.929961 -1.249781,-0.712156 0,1.340597 -1.196032,-0.729761 0,1.340597 1.690261,0.960658 0,0.759877 -0.583192,0.291289 -1.133174,-0.640954 0,2.039776 -0.657942,0.422876 z m -0.468432,-7.254973 0.610836,0.902119 1.1375,0 0.524804,-0.902119 -0.552918,-0.960658 -1.139659,0 z" />
</svg>
