<?xml version="1.0" encoding="UTF-8" standalone="no"?>
<svg
   xmlns:dc="http://purl.org/dc/elements/1.1/"
   xmlns:cc="http://creativecommons.org/ns#"
   xmlns:rdf="http://www.w3.org/1999/02/22-rdf-syntax-ns#"
   xmlns:svg="http://www.w3.org/2000/svg"
   xmlns="http://www.w3.org/2000/svg"
   xmlns:sodipodi="http://sodipodi.sourceforge.net/DTD/sodipodi-0.dtd"
   xmlns:inkscape="http://www.inkscape.org/namespaces/inkscape"
   height="100"
   width="100"
   id="svg2"
   version="1.1"
   inkscape:version="0.48.5 r10040"
   sodipodi:docname="110.svg">
  <metadata
     id="metadata10">
    <rdf:RDF>
      <cc:Work
         rdf:about="">
        <dc:format>image/svg+xml</dc:format>
        <dc:type
           rdf:resource="http://purl.org/dc/dcmitype/StillImage" />
        <dc:title></dc:title>
      </cc:Work>
    </rdf:RDF>
  </metadata>
  <defs
     id="defs8" />
  <sodipodi:namedview
     pagecolor="#ffffff"
     bordercolor="#666666"
     borderopacity="1"
     objecttolerance="10"
     gridtolerance="10"
     guidetolerance="10"
     inkscape:pageopacity="0"
     inkscape:pageshadow="2"
     inkscape:window-width="959"
     inkscape:window-height="1013"
     id="namedview6"
     showgrid="false"
     inkscape:zoom="3.337544"
     inkscape:cx="59.727269"
     inkscape:cy="50.304439"
     inkscape:window-x="959"
     inkscape:window-y="27"
     inkscape:window-maximized="0"
     inkscape:current-layer="svg2" />
  <path
     id="path5038"
     style="fill:#000000;fill-opacity:1;stroke:none"
     d="M 71.125,97.21875 70.09375,100 l 2.21875,0 1.03125,-2.78125 -2.21875,0 z m -17.21875,0 L 52.875,100 l 2.21875,0 1.03125,-2.78125 -2.21875,0 z m -17.21875,0 -1.03125,2.78125 2.21875,0 1.03125,-2.78125 -2.21875,0 z m -17.1875,0 -1.03125,2.78125 2.21875,0 1.03125,-2.78125 -2.21875,0 z m 53.5625,-5.34375 -0.90625,2.5 2.21875,0 0.90625,-2.5 -2.21875,0 z m -17.21875,0 -0.90625,2.5 2.21875,0 0.90625,-2.5 -2.21875,0 z m -17.21875,0 -0.90625,2.5 2.21875,0 0.90625,-2.5 -2.21875,0 z m -17.1875,0 -0.90625,2.5 2.21875,0 0.90625,-2.5 -2.21875,0 z M 75,86.53125 l -0.90625,2.5 2.21875,0 0.90625,-2.5 -2.21875,0 z m -17.21875,0 -0.90625,2.5 2.21875,0 0.90625,-2.5 -2.21875,0 z m -17.21875,0 -0.90625,2.5 2.21875,0 0.90625,-2.5 -2.21875,0 z m -17.1875,0 -0.90625,2.5 2.21875,0 0.90625,-2.5 -2.21875,0 z m 54.09375,-6.8125 -1.4375,3.9375 2.21875,0 1.4375,-3.9375 -2.21875,0 z m -17.21875,0 -1.4375,3.9375 2.21875,0 1.4375,-3.9375 -2.21875,0 z m -17.21875,0 -1.4375,3.9375 2.21875,0 1.4375,-3.9375 -2.21875,0 z m -17.1875,0 -1.4375,3.9375 2.21875,0 1.4375,-3.9375 -2.21875,0 z M 53.5625,22.03125 c -12.627,0 -22.762,10.02875 -23.5,22.46875 -6.17,0.593 -10.9605,5.238 -12.0625,11.25 -0.362,-0.038 -0.64825,-0.15625 -1.03125,-0.15625 -6.7074,0 -12.21875,5.4855 -12.21875,12.1875 0,3.353 1.5923,6.174 3.9375,7.75 2.3476,1.577 5.25525,2.09375 8.28125,2.09375 l 31.15625,0 16.96875,0 15.625,0 C 91.337748,77.625 100,68.96475 100,58.34375 100,47.722748 91.339748,39.0625 80.71875,39.0625 c -1.612,0 -3.064245,0.4345 -4.53125,0.8125 -2.683,-10.171 -11.628,-17.84375 -22.625,-17.84375 z" />
</svg>
