<?xml version="1.0" encoding="UTF-8" standalone="no"?>
<svg
   xmlns:dc="http://purl.org/dc/elements/1.1/"
   xmlns:cc="http://creativecommons.org/ns#"
   xmlns:rdf="http://www.w3.org/1999/02/22-rdf-syntax-ns#"
   xmlns:svg="http://www.w3.org/2000/svg"
   xmlns="http://www.w3.org/2000/svg"
   xmlns:sodipodi="http://sodipodi.sourceforge.net/DTD/sodipodi-0.dtd"
   xmlns:inkscape="http://www.inkscape.org/namespaces/inkscape"
   height="100"
   width="100"
   id="svg2"
   version="1.1"
   inkscape:version="0.48.5 r10040"
   sodipodi:docname="113.svg">
  <metadata
     id="metadata10">
    <rdf:RDF>
      <cc:Work
         rdf:about="">
        <dc:format>image/svg+xml</dc:format>
        <dc:type
           rdf:resource="http://purl.org/dc/dcmitype/StillImage" />
        <dc:title></dc:title>
      </cc:Work>
    </rdf:RDF>
  </metadata>
  <defs
     id="defs8" />
  <sodipodi:namedview
     pagecolor="#ffffff"
     bordercolor="#666666"
     borderopacity="1"
     objecttolerance="10"
     gridtolerance="10"
     guidetolerance="10"
     inkscape:pageopacity="0"
     inkscape:pageshadow="2"
     inkscape:window-width="959"
     inkscape:window-height="1013"
     id="namedview6"
     showgrid="false"
     inkscape:zoom="3.337544"
     inkscape:cx="43.397896"
     inkscape:cy="50.304439"
     inkscape:window-x="959"
     inkscape:window-y="27"
     inkscape:window-maximized="0"
     inkscape:current-layer="svg2" />
  <path
     id="path2984"
     style="stroke:none"
     d="m 53.562511,22.046599 c -12.627,0 -22.762,10.028749 -23.5,22.468749 -6.17,0.593 -10.9605,5.238002 -12.0625,11.250002 -0.362,-0.038 -0.64825,-0.15625 -1.03125,-0.15625 -6.7074,0 -12.21875,5.4855 -12.21875,12.1875 0,3.353 1.5923,6.174 3.9375,7.75 2.3476,1.577 5.25525,2.09375 8.28125,2.09375 l 31.15625,0 16.96875,0 15.625005,0 C 91.337764,77.64035 100,68.9801 100,58.3591 100,47.738098 91.339764,39.077848 80.718766,39.077848 c -1.612,0 -3.06425,0.4345 -4.531255,0.8125 -2.683,-10.171 -11.628,-17.84375 -22.625,-17.84375 z m 23.906239,57.672167 -7.375,20.281254 2.21875,0 7.375,-20.281254 -2.21875,0 z m -12.906126,0 -7.375,20.281254 2.21875,0 7.375,-20.281254 -2.21875,0 z m -38.718374,0 -7.375,20.281254 2.21875,0 7.375,-20.281254 -2.21875,0 z m 12.906124,0 -7.375,20.281254 2.21875,0 7.375,-20.281254 -2.21875,0 z m 9.824002,0 -6.672972,11.450905 5.52385,0 -4.415048,8.830099 13.245144,-13.245149 -6.632652,0 4.394888,-7.035855 -5.44321,0 z" />
</svg>
