<?xml version="1.0" encoding="UTF-8" standalone="no"?>
<svg
   xmlns:dc="http://purl.org/dc/elements/1.1/"
   xmlns:cc="http://creativecommons.org/ns#"
   xmlns:rdf="http://www.w3.org/1999/02/22-rdf-syntax-ns#"
   xmlns:svg="http://www.w3.org/2000/svg"
   xmlns="http://www.w3.org/2000/svg"
   xmlns:sodipodi="http://sodipodi.sourceforge.net/DTD/sodipodi-0.dtd"
   xmlns:inkscape="http://www.inkscape.org/namespaces/inkscape"
   height="100"
   width="100"
   id="svg2"
   version="1.1"
   inkscape:version="0.48.5 r10040"
   sodipodi:docname="113.svg">
  <metadata
     id="metadata10">
    <rdf:RDF>
      <cc:Work
         rdf:about="">
        <dc:format>image/svg+xml</dc:format>
        <dc:type
           rdf:resource="http://purl.org/dc/dcmitype/StillImage" />
        <dc:title />
      </cc:Work>
    </rdf:RDF>
  </metadata>
  <defs
     id="defs8" />
  <sodipodi:namedview
     pagecolor="#ffffff"
     bordercolor="#666666"
     borderopacity="1"
     objecttolerance="10"
     gridtolerance="10"
     guidetolerance="10"
     inkscape:pageopacity="0"
     inkscape:pageshadow="2"
     inkscape:window-width="1429"
     inkscape:window-height="839"
     id="namedview6"
     showgrid="false"
     inkscape:zoom="4.72"
     inkscape:cx="77.419099"
     inkscape:cy="15.472285"
     inkscape:window-x="95"
     inkscape:window-y="153"
     inkscape:window-maximized="0"
     inkscape:current-layer="svg2" />
  <path
     d="M 51.1875 6.8125 C 38.5605 6.8125 28.4255 16.84125 27.6875 29.28125 C 21.5175 29.87425 16.727 34.51925 15.625 40.53125 C 15.263 40.49325 14.97675 40.375 14.59375 40.375 C 7.88635 40.375 2.375 45.8605 2.375 52.5625 C 2.375 55.9155 3.9673 58.7365 6.3125 60.3125 C 8.6601 61.8895 11.56775 62.40625 14.59375 62.40625 L 45.75 62.40625 L 62.71875 62.40625 L 78.34375 62.40625 C 88.96275 62.40625 97.625 53.746 97.625 43.125 C 97.625 32.504 88.96475 23.84375 78.34375 23.84375 C 76.73175 23.84375 75.2795 24.27825 73.8125 24.65625 C 71.1295 14.48525 62.1845 6.8125 51.1875 6.8125 z M 51.1875 11.34375 C 60.7945 11.34375 68.64075 18.46325 70.09375 27.65625 L 70.53125 30.40625 L 73.15625 29.34375 C 74.80625 28.71775 76.53375 28.40625 78.34375 28.40625 C 86.51475 28.40625 93.09375 34.956 93.09375 43.125 C 93.09375 51.296 86.51475 57.84375 78.34375 57.84375 L 62.71875 57.84375 L 45.75 57.84375 L 14.59375 57.84375 C 12.13875 57.84375 10.08695 57.336 8.84375 56.5 C 7.60085 55.667 6.90625 54.6915 6.90625 52.5625 C 6.90625 48.3135 10.33875 44.90625 14.59375 44.90625 C 15.29875 44.90625 15.964 45.04625 16.75 45.28125 L 19.71875 46.1875 L 19.71875 43.125 C 19.71875 42.985 19.66325 42.98525 19.65625 42.90625 C 19.65625 42.77825 19.64425 42.779 19.65625 42.75 C 19.65425 42.738 19.65825 42.6915 19.65625 42.6875 C 19.77525 37.6295 23.8515 33.59375 28.9375 33.59375 C 28.8635 33.59375 29.111 33.6515 29.625 33.6875 L 32.15625 33.8125 L 32.0625 31.28125 C 32.0345 30.66025 31.90625 30.48 31.90625 30.625 C 31.90625 19.98 40.5345 11.34375 51.1875 11.34375 z M 49.21875 66.9375 L 38.875 84.6875 L 47.4375 84.6875 L 40.59375 98.375 L 61.125 77.84375 L 50.84375 77.84375 L 57.65625 66.9375 L 49.21875 66.9375 z M 27.59375 67.9375 L 18.5625 92.75 L 20.5 93.46875 L 29.8125 67.9375 L 27.59375 67.9375 z M 37.9375 67.9375 L 28.90625 92.75 L 30.84375 93.46875 L 40.125 67.9375 L 37.9375 67.9375 z M 68.90625 67.9375 L 59.875 92.75 L 61.8125 93.46875 L 71.09375 67.9375 L 68.90625 67.9375 z M 79.21875 67.9375 L 70.21875 92.75 L 72.15625 93.46875 L 81.4375 67.9375 L 79.21875 67.9375 z "
     id="path4" />
</svg>
