<?xml version="1.0" encoding="UTF-8" standalone="no"?>
<svg
   xmlns:dc="http://purl.org/dc/elements/1.1/"
   xmlns:cc="http://creativecommons.org/ns#"
   xmlns:rdf="http://www.w3.org/1999/02/22-rdf-syntax-ns#"
   xmlns:svg="http://www.w3.org/2000/svg"
   xmlns="http://www.w3.org/2000/svg"
   xmlns:sodipodi="http://sodipodi.sourceforge.net/DTD/sodipodi-0.dtd"
   xmlns:inkscape="http://www.inkscape.org/namespaces/inkscape"
   height="100"
   width="100"
   id="svg2"
   version="1.1"
   inkscape:version="0.48.5 r10040"
   sodipodi:docname="114.svg">
  <metadata
     id="metadata10">
    <rdf:RDF>
      <cc:Work
         rdf:about="">
        <dc:format>image/svg+xml</dc:format>
        <dc:type
           rdf:resource="http://purl.org/dc/dcmitype/StillImage" />
        <dc:title></dc:title>
      </cc:Work>
    </rdf:RDF>
  </metadata>
  <defs
     id="defs8" />
  <sodipodi:namedview
     pagecolor="#ffffff"
     bordercolor="#666666"
     borderopacity="1"
     objecttolerance="10"
     gridtolerance="10"
     guidetolerance="10"
     inkscape:pageopacity="0"
     inkscape:pageshadow="2"
     inkscape:window-width="959"
     inkscape:window-height="1013"
     id="namedview6"
     showgrid="false"
     inkscape:zoom="3.337544"
     inkscape:cx="64.518867"
     inkscape:cy="22.265498"
     inkscape:window-x="959"
     inkscape:window-y="27"
     inkscape:window-maximized="0"
     inkscape:current-layer="svg2" />
  <path
     id="path3017-5-27"
     style="fill:#000000;fill-opacity:1;fill-rule:nonzero;stroke:none"
     d="m 50.0287,22.387336 c -15.249999,0 -27.625,12.41675 -27.625,27.71875 0,15.3 12.375001,27.72175 27.625,27.71875 4.536912,0 8.818214,-1.11313 12.593754,-3.0625 -1.33067,-0.84239 -2.57688,-1.8019 -3.75,-2.84375 -2.730682,1.12031 -5.710652,1.75 -8.843754,1.75 -12.962499,0.003 -23.468749,-10.5575 -23.468749,-23.5625 0,-13.0067 10.50625,-23.5625 23.468749,-23.5625 3.132692,0 6.113152,0.62969 8.843754,1.75 1.17312,-1.04172 2.41933,-2.00144 3.75,-2.84375 -3.7755,-1.94937 -8.057432,-3.0625 -12.593754,-3.0625 z m 4.281252,4.5625 c -5.791572,5.98632 -9.375002,14.15844 -9.375002,23.15625 0,9.01256 3.59654,17.15866 9.406252,23.15625 1.56958,-0.29625 3.08918,-0.74998 4.531252,-1.34375 -6.023042,-5.33861 -9.812504,-13.12406 -9.812504,-21.8125 0,-8.67394 3.777042,-16.47531 9.781254,-21.8125 -1.445202,-0.59347 -2.958362,-1.04902 -4.531252,-1.34375 z M 16.465387,11.289066 c -0.04039,1.99591 -1.658825,3.6074 -3.657806,3.63532 2.02463,0.028 3.657806,1.67899 3.657806,3.71028 0,0.0256 5.03e-4,0.0495 0,0.075 l 0.0075,0 c 0.04012,-2.01401 1.67917,-3.63532 3.70278,-3.63532 -2.048778,0 -3.710275,-1.6615 -3.710275,-3.71028 0,-0.0252 0.007,-0.0499 0.0075,-0.075 l -0.0075,0 z m 74.576271,21.61017 c -0.04039,1.99591 -1.658825,3.6074 -3.657807,3.63532 2.024631,0.028 3.657807,1.67899 3.657807,3.71027 0,0.0256 5.03e-4,0.0495 0,0.075 l 0.0075,0 c 0.04012,-2.014 1.67917,-3.63532 3.70278,-3.63532 -2.048778,0 -3.710275,-1.66149 -3.710275,-3.71027 0,-0.0252 0.007,-0.0499 0.0075,-0.075 l -0.0075,0 z M 67.312845,10.017875 c -0.04039,1.995921 -1.658825,3.607401 -3.657807,3.635331 2.024631,0.028 3.657807,1.67899 3.657807,3.71027 0,0.0256 5.03e-4,0.0495 0,0.075 l 0.0075,0 c 0.04012,-2.01401 1.67917,-3.63532 3.70278,-3.63532 -2.048778,0 -3.710275,-1.6615 -3.710275,-3.710281 0,-0.0252 0.007,-0.0499 0.0075,-0.075 l -0.0075,0 z m 17.372881,75.847461 c -0.04039,1.99591 -1.658825,3.6074 -3.657807,3.63532 2.024631,0.028 3.657807,1.679 3.657807,3.71028 0,0.0256 5.03e-4,0.0495 0,0.075 l 0.0075,0 c 0.04012,-2.01401 1.67917,-3.63532 3.70278,-3.63532 -2.048778,0 -3.710275,-1.6615 -3.710275,-3.71028 0,-0.0252 0.007,-0.0499 0.0075,-0.075 l -0.0075,0 z m -65.254237,-7.20339 c -0.04039,1.99591 -1.658825,3.6074 -3.657807,3.63532 2.024631,0.028 3.657807,1.679 3.657807,3.71028 0,0.0256 5.03e-4,0.0495 0,0.075 l 0.0075,0 c 0.04012,-2.01401 1.67917,-3.63532 3.70278,-3.63532 -2.048778,0 -3.710275,-1.6615 -3.710275,-3.71028 0,-0.0252 0.007,-0.0499 0.0075,-0.075 l -0.0075,0 z M 7.9908113,47.306016 c -0.04039,1.99591 -1.658825,3.6074 -3.657808,3.63532 2.024632,0.028 3.657808,1.67899 3.657808,3.71028 0,0.0256 5.03e-4,0.0495 0,0.075 l 0.0075,0 c 0.04012,-2.01401 1.6791702,-3.63532 3.7027807,-3.63532 -2.0487785,0 -3.7102757,-1.6615 -3.7102757,-3.71028 0,-0.0252 0.007,-0.0499 0.0075,-0.075 l -0.0075,0 z m 41.5254237,42.37288 c -0.04039,1.99591 -1.658825,3.6074 -3.657807,3.63532 2.024631,0.028 3.657807,1.679 3.657807,3.71028 0,0.0256 5.03e-4,0.0495 0,0.075 l 0.0075,0 c 0.04012,-2.01401 1.67917,-3.63532 3.70278,-3.63532 -2.048778,0 -3.710275,-1.6615 -3.710275,-3.71028 0,-0.0252 0.007,-0.0499 0.0075,-0.075 l -0.0075,0 z M 43.019973,74.856401 c 0.953805,1.98014 3.195862,2.7898 5.800522,2.7898 h 40.40482 c 2.67328,0 5.12014,-1.05268 7.00384,-2.7898 H 43.019973 z m 0.143691,-5.34712 c -0.382469,0.84686 -0.605163,1.79105 -0.628552,2.7898 h 55.758913 c 0.51316,-0.85864 0.91312,-1.79539 1.20332,-2.7898 H 43.163779 z m 7.614119,-5.34712 c -0.110333,0.54493 -0.162051,1.12459 -0.162051,1.70487 0,0.0539 0.01839,0.10111 0.01839,0.15499 -0.579247,-0.18722 -1.180331,-0.3292 -1.813597,-0.3292 -1.35807,0 -2.618452,0.46993 -3.645697,1.25913 h 54.789467 c 0.0224,-0.30935 0.0357,-0.61437 0.0357,-0.92993 0,-0.63545 -0.0529,-1.25231 -0.14366,-1.85986 H 50.777681 z m 3.860502,-5.34712 c -1.172861,0.64289 -2.168731,1.59948 -2.873253,2.78979 h 47.427053 c -0.38387,-1.00804 -0.89128,-1.94728 -1.50846,-2.78979 h -43.04534 z m 4.274251,-5.34713 c -0.235608,0.89956 -0.394211,1.82887 -0.466617,2.7898 h 36.615586 c -1.68488,-1.17605 -3.67949,-1.85987 -5.83615,-1.85987 -1.34469,0 -2.62501,0.29138 -3.80707,0.77495 -0.0862,-0.58772 -0.21146,-1.14258 -0.35915,-1.70488 H 58.912536 z m 2.585926,-5.34712 c -0.652228,0.85244 -1.207914,1.79229 -1.669933,2.7898 h 24.314616 c -0.46317,-1.00061 -1.01771,-1.93488 -1.66994,-2.7898 H 61.498462 z m 10.523001,-5.34713 c -2.978413,0 -5.731564,1.04153 -7.972701,2.78981 H 79.95911 c -2.229069,-1.74828 -4.966129,-2.78981 -7.937647,-2.78981 z" />
</svg>
