<?xml version="1.0" encoding="UTF-8" standalone="no"?>
<svg
   xmlns:dc="http://purl.org/dc/elements/1.1/"
   xmlns:cc="http://creativecommons.org/ns#"
   xmlns:rdf="http://www.w3.org/1999/02/22-rdf-syntax-ns#"
   xmlns:svg="http://www.w3.org/2000/svg"
   xmlns="http://www.w3.org/2000/svg"
   xmlns:sodipodi="http://sodipodi.sourceforge.net/DTD/sodipodi-0.dtd"
   xmlns:inkscape="http://www.inkscape.org/namespaces/inkscape"
   height="100"
   width="100"
   id="svg2"
   version="1.1"
   inkscape:version="0.48.5 r10040"
   sodipodi:docname="214.svg">
  <metadata
     id="metadata10">
    <rdf:RDF>
      <cc:Work
         rdf:about="">
        <dc:format>image/svg+xml</dc:format>
        <dc:type
           rdf:resource="http://purl.org/dc/dcmitype/StillImage" />
        <dc:title></dc:title>
      </cc:Work>
    </rdf:RDF>
  </metadata>
  <defs
     id="defs8" />
  <sodipodi:namedview
     pagecolor="#ffffff"
     bordercolor="#666666"
     borderopacity="1"
     objecttolerance="10"
     gridtolerance="10"
     guidetolerance="10"
     inkscape:pageopacity="0"
     inkscape:pageshadow="2"
     inkscape:window-width="1638"
     inkscape:window-height="865"
     id="namedview6"
     showgrid="false"
     inkscape:zoom="2.36"
     inkscape:cx="-72.304766"
     inkscape:cy="50"
     inkscape:window-x="196"
     inkscape:window-y="177"
     inkscape:window-maximized="0"
     inkscape:current-layer="svg2" />
  <path
     id="path4"
     d="m 51.312002,37.552966 c -5.183,0 -9.974,1.68 -13.874,4.5 h 27.687 c -3.879,-2.82 -8.642,-4.5 -13.813,-4.5 z m -18.312,8.625 c -1.135,1.375 -2.102,2.891 -2.906,4.5 h 42.312 c -0.806,-1.614 -1.771,-3.121 -2.906,-4.5 h -36.5 z m -4.5,8.625 c -0.41,1.451 -0.686,2.95 -0.812,4.5 h 63.718 c -2.932,-1.897 -6.403,-3 -10.156,-3 -2.34,0 -4.568,0.47 -6.625,1.25 -0.15,-0.948 -0.368,-1.843 -0.625,-2.75 h -45.5 z m -7.438,8.625 c -2.041,1.037 -3.774,2.58 -5,4.5 h 82.532 c -0.668,-1.626 -1.551,-3.141 -2.625,-4.5 h -74.907 z m -6.718,8.625 c -0.192,0.879 -0.282,1.814 -0.282,2.75 0,0.087 0.032,0.163 0.032,0.25 -1.008,-0.302 -2.054,-0.531 -3.156,-0.531 -2.3632997,0 -4.5565997,0.758 -6.3441997,2.031 H 99.937798 c 0.039,-0.499 0.062,-0.991 0.062,-1.5 0,-1.025 -0.092,-2.02 -0.25,-3 H 14.343802 z m -13.2499997,8.625 c -0.66557004,1.366 -1.05310005,2.889 -1.093800055,4.5 H 97.031202 c 0.893,-1.385 1.589,-2.896 2.094,-4.5 H 1.0942023 z m -0.25005004,8.625 c 1.65980004,3.194 5.56140004,4.5 10.09399974,4.5 h 70.312 c 4.652,0 8.91,-1.698 12.188,-4.5 H 0.84395226 z M 54.34375,26.78125 c -5.791574,5.986316 -9.375,14.158435 -9.375,23.15625 0,9.012564 3.59654,17.158655 9.40625,23.15625 1.569575,-0.296246 3.089181,-0.749985 4.53125,-1.34375 -6.023044,-5.338609 -9.8125,-13.124058 -9.8125,-21.8125 0,-8.673939 3.777035,-16.475306 9.78125,-21.8125 -1.445208,-0.593475 -2.958361,-1.049018 -4.53125,-1.34375 z m -4.28125,-4.5625 c -15.25,0 -27.625,12.41675 -27.625,27.71875 0,15.3 12.375,27.72175 27.625,27.71875 4.536908,0 8.818204,-1.113133 12.59375,-3.0625 C 61.32558,73.751356 60.079365,72.791851 58.90625,71.75 56.175563,72.87031 53.195596,73.5 50.0625,73.5 37.1,73.50255 26.59375,62.9425 26.59375,49.9375 26.59375,36.9308 37.1,26.375 50.0625,26.375 c 3.132685,0 6.113149,0.62969 8.84375,1.75 1.173115,-1.041721 2.41933,-2.001442 3.75,-2.84375 -3.775501,-1.949367 -8.057437,-3.0625 -12.59375,-3.0625 z" />
</svg>
