<?xml version="1.0" encoding="UTF-8" standalone="no"?>
<svg
   xmlns:dc="http://purl.org/dc/elements/1.1/"
   xmlns:cc="http://creativecommons.org/ns#"
   xmlns:rdf="http://www.w3.org/1999/02/22-rdf-syntax-ns#"
   xmlns:svg="http://www.w3.org/2000/svg"
   xmlns="http://www.w3.org/2000/svg"
   xmlns:sodipodi="http://sodipodi.sourceforge.net/DTD/sodipodi-0.dtd"
   xmlns:inkscape="http://www.inkscape.org/namespaces/inkscape"
   height="100"
   width="100"
   id="svg2"
   version="1.1"
   inkscape:version="0.48.5 r10040"
   sodipodi:docname="115.svg">
  <metadata
     id="metadata10">
    <rdf:RDF>
      <cc:Work
         rdf:about="">
        <dc:format>image/svg+xml</dc:format>
        <dc:type
           rdf:resource="http://purl.org/dc/dcmitype/StillImage" />
        <dc:title></dc:title>
      </cc:Work>
    </rdf:RDF>
  </metadata>
  <defs
     id="defs8" />
  <sodipodi:namedview
     pagecolor="#ffffff"
     bordercolor="#666666"
     borderopacity="1"
     objecttolerance="10"
     gridtolerance="10"
     guidetolerance="10"
     inkscape:pageopacity="0"
     inkscape:pageshadow="2"
     inkscape:window-width="959"
     inkscape:window-height="1013"
     id="namedview6"
     showgrid="false"
     inkscape:zoom="3.337544"
     inkscape:cx="56.674694"
     inkscape:cy="10.272261"
     inkscape:window-x="959"
     inkscape:window-y="27"
     inkscape:window-maximized="0"
     inkscape:current-layer="svg2" />
  <path
     id="path3017-5-27"
     style="fill:#000000;fill-opacity:1;fill-rule:nonzero;stroke:none"
     d="m 49.923782,22.387335 c -15.25,0 -27.625,12.416749 -27.625,27.71875 0,15.299997 12.375,27.721747 27.625,27.718747 4.536912,0 8.818214,-1.11313 12.593754,-3.0625 -1.33067,-0.84239 -2.57688,-1.8019 -3.75,-2.84375 -2.730682,1.12031 -5.710652,1.75 -8.843754,1.75 -12.9625,0.003 -23.46875,-10.5575 -23.46875,-23.562497 0,-13.0067 10.50625,-23.5625 23.46875,-23.5625 3.132692,0 6.113152,0.62969 8.843754,1.75 1.17312,-1.04172 2.41933,-2.00144 3.75,-2.84375 -3.7755,-1.94937 -8.057432,-3.0625 -12.593754,-3.0625 z m 4.281252,4.5625 c -5.791572,5.98632 -9.375002,14.15844 -9.375002,23.15625 0,9.01256 3.59654,17.158657 9.406252,23.156247 1.56958,-0.29625 3.08918,-0.74998 4.531252,-1.34375 -6.023042,-5.33861 -9.812504,-13.124057 -9.812504,-21.812497 0,-8.67394 3.777042,-16.47531 9.781254,-21.8125 -1.445202,-0.59347 -2.958362,-1.04902 -4.531252,-1.34375 z M 16.360469,11.289065 c -0.04039,1.995911 -1.658825,3.6074 -3.657807,3.635321 2.024631,0.02804 3.657807,1.678994 3.657807,3.710275 0,0.02557 5.03e-4,0.04951 0,0.07496 l 0.0075,0 c 0.04012,-2.014006 1.67917,-3.63532 3.70278,-3.63532 -2.048778,0 -3.710275,-1.661498 -3.710275,-3.710276 0,-0.02517 0.007,-0.04991 0.0075,-0.07496 l -0.0075,0 z M 90.93674,32.899238 c -0.04039,1.99591 -1.658825,3.6074 -3.657807,3.63532 2.024631,0.028 3.657807,1.67899 3.657807,3.71027 0,0.0256 5.03e-4,0.0495 0,0.075 l 0.0075,0 c 0.04012,-2.014 1.67917,-3.63532 3.70278,-3.63532 -2.048778,0 -3.710275,-1.66149 -3.710275,-3.71027 0,-0.0252 0.007,-0.0499 0.0075,-0.075 l -0.0075,0 z M 67.207927,10.017878 c -0.04039,1.995913 -1.658825,3.607402 -3.657807,3.635323 2.024631,0.02804 3.657807,1.678994 3.657807,3.710275 0,0.02557 5.03e-4,0.04951 0,0.07496 l 0.0075,0 c 0.04012,-2.014006 1.67917,-3.63532 3.70278,-3.63532 -2.048778,0 -3.710275,-1.661498 -3.710275,-3.710278 0,-0.02517 0.007,-0.04991 0.0075,-0.07496 l -0.0075,0 z m 17.372881,75.847464 c -0.04039,1.99591 -1.658825,3.6074 -3.657807,3.63532 2.024631,0.028 3.657807,1.67899 3.657807,3.71027 0,0.0256 5.03e-4,0.0495 0,0.075 l 0.0075,0 c 0.04012,-2.014 1.67917,-3.63532 3.70278,-3.63532 -2.048778,0 -3.710275,-1.6615 -3.710275,-3.71027 0,-0.0252 0.007,-0.0499 0.0075,-0.075 l -0.0075,0 z m -65.254237,-7.20339 c -0.04039,1.99591 -1.658825,3.6074 -3.657807,3.63532 2.024631,0.028 3.657807,1.67899 3.657807,3.71027 0,0.0256 5.03e-4,0.0495 0,0.075 l 0.0075,0 c 0.04012,-2.014 1.67917,-3.63532 3.70278,-3.63532 -2.048778,0 -3.710275,-1.6615 -3.710275,-3.71027 0,-0.0252 0.007,-0.0499 0.0075,-0.075 l -0.0075,0 z M 7.8858909,47.306015 c -0.04039,1.995911 -1.658825,3.6074 -3.6578075,3.635321 2.0246315,0.02804 3.6578075,1.678994 3.6578075,3.710275 0,0.02557 5.03e-4,0.04951 0,0.07496 l 0.0075,0 c 0.04012,-2.014006 1.6791701,-3.63532 3.7027821,-3.63532 -2.04878,0 -3.7102771,-1.661498 -3.7102771,-3.710276 0,-0.02517 0.007,-0.04991 0.0075,-0.07496 l -0.0075,0 z M 49.411317,89.678892 c -0.04039,1.99592 -1.658825,3.6074 -3.657807,3.63533 2.024631,0.028 3.657807,1.67899 3.657807,3.71027 0,0.0256 5.03e-4,0.0495 0,0.075 l 0.0075,0 c 0.04012,-2.01401 1.67917,-3.63532 3.70278,-3.63532 -2.048778,0 -3.710275,-1.6615 -3.710275,-3.71028 0,-0.0252 0.007,-0.0499 0.0075,-0.075 l -0.0075,0 z M 3.178688,73.271252 c 1.580965,3.15673 5.297251,4.4475 9.614566,4.4475 h 66.972392 c 4.43105,0 8.48681,-1.67819 11.60912,-4.4475 H 3.178688 z m 0.238174,-8.524371 c -0.633957,1.35006 -1.00308,2.85529 -1.041848,4.447491 h 92.422332 c 0.85059,-1.368831 1.51352,-2.862211 1.99454,-4.447491 H 3.417052 z m 12.620665,-8.52438 c -0.18288,0.86874 -0.268605,1.79284 -0.268605,2.71792 0,0.086 0.03048,0.16109 0.03048,0.24708 -0.960124,-0.29848 -1.956441,-0.52481 -3.006102,-0.52481 -2.251047,0 -4.340174,0.74917 -6.042868,2.00732 h 90.815454 c 0.0371,-0.49319 0.0591,-0.97945 0.0591,-1.48251 0,-1.01304 -0.0876,-1.99644 -0.23812,-2.965 H 16.037359 z m 6.398916,-8.524376 c -1.944058,1.024901 -3.594746,2.5499 -4.762516,4.447499 h 78.611989 c -0.63627,-1.60703 -1.47733,-3.104354 -2.50032,-4.447499 H 22.436443 z m 7.084719,-8.524376 c -0.390527,1.434072 -0.653418,2.915584 -0.773434,4.447501 h 60.691588 c -2.79273,-1.874868 -6.09887,-2.965 -9.67362,-2.965 -2.22886,0 -4.35103,0.464517 -6.31033,1.235416 -0.14287,-0.936939 -0.35052,-1.821498 -0.59531,-2.717917 H 29.521162 z m 4.286264,-8.524374 c -1.081092,1.358958 -2.002162,2.857272 -2.767974,4.4475 h 40.302314 c -0.76772,-1.59517 -1.686885,-3.084588 -2.767977,-4.4475 H 33.807426 z M 51.249663,22.125 c -4.936823,0 -9.500266,1.660399 -13.215029,4.4475 H 64.406588 C 60.711829,23.785399 56.175057,22.125 51.249663,22.125 z" />
</svg>
