<?xml version="1.0" encoding="UTF-8" standalone="no"?>
<svg
   xmlns:dc="http://purl.org/dc/elements/1.1/"
   xmlns:cc="http://creativecommons.org/ns#"
   xmlns:rdf="http://www.w3.org/1999/02/22-rdf-syntax-ns#"
   xmlns:svg="http://www.w3.org/2000/svg"
   xmlns="http://www.w3.org/2000/svg"
   xmlns:sodipodi="http://sodipodi.sourceforge.net/DTD/sodipodi-0.dtd"
   xmlns:inkscape="http://www.inkscape.org/namespaces/inkscape"
   height="100"
   width="100"
   id="svg2"
   version="1.1"
   inkscape:version="0.48.5 r10040"
   sodipodi:docname="116.svg">
  <metadata
     id="metadata10">
    <rdf:RDF>
      <cc:Work
         rdf:about="">
        <dc:format>image/svg+xml</dc:format>
        <dc:type
           rdf:resource="http://purl.org/dc/dcmitype/StillImage" />
        <dc:title></dc:title>
      </cc:Work>
    </rdf:RDF>
  </metadata>
  <defs
     id="defs8" />
  <sodipodi:namedview
     pagecolor="#ffffff"
     bordercolor="#666666"
     borderopacity="1"
     objecttolerance="10"
     gridtolerance="10"
     guidetolerance="10"
     inkscape:pageopacity="0"
     inkscape:pageshadow="2"
     inkscape:window-width="959"
     inkscape:window-height="1013"
     id="namedview6"
     showgrid="false"
     inkscape:zoom="3.337544"
     inkscape:cx="61.618449"
     inkscape:cy="-25.682321"
     inkscape:window-x="959"
     inkscape:window-y="27"
     inkscape:window-maximized="0"
     inkscape:current-layer="svg2" />
  <path
     id="path4-3"
     style="fill:#000000;fill-opacity:1;stroke:none"
     d="m 51.187498,22.125001 c -12.627,0 -22.761996,10.02875 -23.499996,22.46875 -6.17,0.593 -10.9605,5.238 -12.0625,11.25 -0.362,-0.038 -0.64825,-0.15625 -1.03125,-0.15625 -6.7074,0 -12.21875,5.4855 -12.21875,12.1875 0,3.353 1.5923,6.174 3.9375,7.75 2.3476,1.577 5.25525,2.09375 8.28125,2.09375 l 31.156246,0 16.96875,0 15.625,0 c 10.619,0 19.28125,-8.66025 19.28125,-19.28125 0,-10.621 -8.66025,-19.28125 -19.28125,-19.28125 -1.612,0 -3.06425,0.4345 -4.53125,0.8125 -2.683,-10.171001 -11.628,-17.84375 -22.625,-17.84375 z" />
</svg>
