<?xml version="1.0" encoding="UTF-8" standalone="no"?>
<svg
   xmlns:dc="http://purl.org/dc/elements/1.1/"
   xmlns:cc="http://creativecommons.org/ns#"
   xmlns:rdf="http://www.w3.org/1999/02/22-rdf-syntax-ns#"
   xmlns:svg="http://www.w3.org/2000/svg"
   xmlns="http://www.w3.org/2000/svg"
   xmlns:sodipodi="http://sodipodi.sourceforge.net/DTD/sodipodi-0.dtd"
   xmlns:inkscape="http://www.inkscape.org/namespaces/inkscape"
   height="100"
   width="100"
   id="svg2"
   version="1.1"
   inkscape:version="0.48.5 r10040"
   sodipodi:docname="207.svg">
  <metadata
     id="metadata10">
    <rdf:RDF>
      <cc:Work
         rdf:about="">
        <dc:format>image/svg+xml</dc:format>
        <dc:type
           rdf:resource="http://purl.org/dc/dcmitype/StillImage" />
        <dc:title></dc:title>
      </cc:Work>
    </rdf:RDF>
  </metadata>
  <defs
     id="defs8" />
  <sodipodi:namedview
     pagecolor="#ffffff"
     bordercolor="#666666"
     borderopacity="1"
     objecttolerance="10"
     gridtolerance="10"
     guidetolerance="10"
     inkscape:pageopacity="0"
     inkscape:pageshadow="2"
     inkscape:window-width="959"
     inkscape:window-height="1013"
     id="namedview6"
     showgrid="false"
     inkscape:zoom="4.72"
     inkscape:cx="59.011345"
     inkscape:cy="39.336149"
     inkscape:window-x="959"
     inkscape:window-y="27"
     inkscape:window-maximized="0"
     inkscape:current-layer="svg2" />
  <path
     id="path3017-5-27"
     style="fill:#000000;fill-opacity:1;fill-rule:nonzero;stroke:none"
     d="m 65.515661,78.385555 -5.448467,14.95056 1.168606,0.43378 5.599897,-15.38434 h -1.320036 z m 10.384926,0 -5.448467,14.95056 1.168606,0.43378 5.599897,-15.38434 h -1.320036 z m 10.366528,0 -5.429764,14.95056 1.168606,0.43378 5.599293,-15.38434 h -1.338135 z m -31.145729,0 -5.448466,14.95056 1.168606,0.43378 5.618599,-15.38434 H 55.121386 z M 71.983982,42.773661 c -7.617945,0 -13.732451,6.290779 -14.177691,14.094073 -3.722397,0.371973 -6.612535,3.285663 -7.277377,7.056837 -0.218398,-0.02384 -0.391093,-0.09801 -0.622161,-0.09801 -4.046613,0 -7.371645,3.440914 -7.371645,7.644907 0,2.103251 0.960645,3.872792 2.375518,4.861377 1.416322,0.989212 3.170524,1.313356 4.996127,1.313356 l 18.796753,0 10.237348,0 9.426655,0 c 6.406506,-1e-6 11.63249,-5.432355 11.63249,-12.094637 0,-6.662282 -5.224777,-12.094635 -11.632489,-12.094635 -0.972529,0 -1.84868,0.272551 -2.73373,0.50966 C 84.01511,47.586581 78.618538,42.773661 71.983983,42.773661 z M 8.0161372,47.467688 c -0.04039,1.995911 -1.658825,3.6074 -3.657808,3.635321 2.024632,0.02804 3.657808,1.678994 3.657808,3.710275 0,0.02557 5.03e-4,0.04951 0,0.07496 l 0.0075,0 c 0.04012,-2.014006 1.67917,-3.63532 3.7027808,-3.63532 -2.0487788,0 -3.7102758,-1.661498 -3.7102758,-3.710276 0,-0.02517 0.007,-0.04991 0.0075,-0.07496 l -0.0075,0 z M 19.456815,78.82362 c -0.04039,1.995911 -1.658825,3.6074 -3.657807,3.635321 2.024631,0.02804 3.657807,1.678994 3.657807,3.710275 0,0.02557 5.03e-4,0.04951 0,0.07496 l 0.0075,0 c 0.04012,-2.014006 1.67917,-3.63532 3.70278,-3.63532 -2.048778,0 -3.710275,-1.661498 -3.710275,-3.710276 0,-0.02517 0.007,-0.04991 0.0075,-0.07496 l -0.0075,0 z M 67.338171,10.179552 c -0.04039,1.995912 -1.658825,3.607401 -3.657807,3.635322 2.024631,0.02804 3.657807,1.678994 3.657807,3.710275 0,0.02557 5.03e-4,0.04951 0,0.07496 l 0.0075,0 c 0.04012,-2.014006 1.679171,-3.63532 3.702781,-3.63532 -2.04878,0 -3.710276,-1.661498 -3.710276,-3.710277 0,-0.02517 0.007,-0.04991 0.0075,-0.07496 l -0.0075,0 z m 23.728811,22.881359 c -0.0404,1.99591 -1.65882,3.6074 -3.6578,3.63532 2.02463,0.028 3.6578,1.67899 3.6578,3.71027 0,0.0256 5.1e-4,0.0495 0,0.075 l 0.007,0 c 0.0401,-2.014 1.67917,-3.63532 3.70278,-3.63532 -2.04878,0 -3.71027,-1.66149 -3.71027,-3.71027 0,-0.0252 0.007,-0.0499 0.008,-0.075 l -0.008,0 z M 16.490713,11.450738 c -0.04039,1.995911 -1.658825,3.6074 -3.657806,3.635321 2.02463,0.02804 3.657806,1.678994 3.657806,3.710275 0,0.02557 5.03e-4,0.04951 0,0.07496 l 0.0075,0 c 0.04012,-2.014006 1.67917,-3.63532 3.70278,-3.63532 -2.048778,0 -3.710275,-1.661498 -3.710275,-3.710276 0,-0.02517 0.007,-0.04991 0.0075,-0.07496 l -0.0075,0 z m 37.844565,15.66077 c -5.791572,5.98632 -9.375002,14.15844 -9.375002,23.15625 0,9.01256 3.59654,17.158661 9.406252,23.156251 1.56958,-0.29625 3.08918,-0.74998 4.531252,-1.34375 -6.023042,-5.33861 -9.812504,-13.124061 -9.812504,-21.812501 0,-8.67394 3.777042,-16.47531 9.781254,-21.8125 -1.445202,-0.59347 -2.958362,-1.04902 -4.531252,-1.34375 z m -4.281252,-4.5625 c -15.25,0 -27.625,12.416749 -27.625,27.71875 0,15.300001 12.375,27.721751 27.625,27.718751 4.536912,0 8.818214,-1.11313 12.593754,-3.0625 -1.33067,-0.84239 -2.57688,-1.801901 -3.75,-2.84375 -2.730682,1.12031 -5.710652,1.75 -8.843754,1.75 -12.9625,0.003 -23.46875,-10.5575 -23.46875,-23.562501 0,-13.0067 10.50625,-23.5625 23.46875,-23.5625 3.132692,0 6.113152,0.62969 8.843754,1.75 1.17312,-1.04172 2.41933,-2.00144 3.75,-2.84375 -3.7755,-1.94937 -8.057432,-3.0625 -12.593754,-3.0625 z" />
</svg>
