<?xml version="1.0" encoding="UTF-8" standalone="no"?>
<svg
   xmlns:dc="http://purl.org/dc/elements/1.1/"
   xmlns:cc="http://creativecommons.org/ns#"
   xmlns:rdf="http://www.w3.org/1999/02/22-rdf-syntax-ns#"
   xmlns:svg="http://www.w3.org/2000/svg"
   xmlns="http://www.w3.org/2000/svg"
   xmlns:sodipodi="http://sodipodi.sourceforge.net/DTD/sodipodi-0.dtd"
   xmlns:inkscape="http://www.inkscape.org/namespaces/inkscape"
   height="100"
   width="100"
   id="svg2"
   version="1.1"
   inkscape:version="0.48.5 r10040"
   sodipodi:docname="118.svg">
  <metadata
     id="metadata10">
    <rdf:RDF>
      <cc:Work
         rdf:about="">
        <dc:format>image/svg+xml</dc:format>
        <dc:type
           rdf:resource="http://purl.org/dc/dcmitype/StillImage" />
        <dc:title></dc:title>
      </cc:Work>
    </rdf:RDF>
  </metadata>
  <defs
     id="defs8" />
  <sodipodi:namedview
     pagecolor="#ffffff"
     bordercolor="#666666"
     borderopacity="1"
     objecttolerance="10"
     gridtolerance="10"
     guidetolerance="10"
     inkscape:pageopacity="0"
     inkscape:pageshadow="2"
     inkscape:window-width="1663"
     inkscape:window-height="821"
     id="namedview6"
     showgrid="false"
     inkscape:zoom="4.72"
     inkscape:cx="72.492907"
     inkscape:cy="35.190217"
     inkscape:window-x="0"
     inkscape:window-y="27"
     inkscape:window-maximized="0"
     inkscape:current-layer="svg2" />
  <path
     id="path2990-3"
     d="m 86.768008,6.051271 c -4.633259,4.789053 -7.5,11.326748 -7.5,18.525 0,7.210051 2.877232,13.726924 7.525,18.525 1.25566,-0.236997 2.471345,-0.599988 3.625,-1.075 -4.818435,-4.270887 -7.85,-10.499246 -7.85,-17.45 0,-6.939151 3.021628,-13.180245 7.825,-17.45 -1.156166,-0.47478 -2.366689,-0.8392144 -3.625,-1.075 z m -3.425,-3.65 c -12.2,0 -22.1,9.9334 -22.1,22.175 0,12.24 9.9,22.1774 22.1,22.175 3.629526,0 7.054563,-0.890506 10.075,-2.45 -1.064536,-0.673915 -2.061508,-1.441519 -3,-2.275 -2.18455,0.896248 -4.568523,1.4 -7.075,1.4 -10.37,0.002 -18.775,-8.446 -18.775,-18.85 0,-10.40536 8.405,-18.85 18.775,-18.85 2.506148,0 4.890519,0.503752 7.075,1.4 0.938492,-0.8333768 1.935464,-1.6011536 3,-2.275 -3.020401,-1.5594936 -6.44595,-2.45 -10.075,-2.45 z M 15.625,80.28125 l -0.71875,1.9375 1.53125,0 0.71875,-1.9375 -1.53125,0 z m 12.03125,0 -0.71875,1.9375 1.53125,0 0.71875,-1.9375 -1.53125,0 z m 12.0625,0 -0.71875,1.9375 1.53125,0 0.71875,-1.9375 -1.53125,0 z m 12.03125,0 -0.6875,1.9375 1.53125,0 0.71875,-1.9375 -1.5625,0 z m -37.90625,4.875 -0.78125,2.125 1.53125,0 0.78125,-2.125 -1.53125,0 z m 12.03125,0 -0.78125,2.125 1.53125,0 0.78125,-2.125 -1.53125,0 z m 12.0625,0 -0.78125,2.125 1.53125,0 0.78125,-2.125 -1.53125,0 z m 12.0625,0 -0.78125,2.125 1.53125,0 0.78125,-2.125 -1.53125,0 z M 11.96875,90.25 l -0.78125,2.125 1.5625,0 0.78125,-2.125 -1.5625,0 z m 12.0625,0 -0.78125,2.125 1.53125,0 0.78125,-2.125 -1.53125,0 z m 12.0625,0 -0.78125,2.125 1.53125,0 0.78125,-2.125 -1.53125,0 z m 12.03125,0 -0.75,2.125 1.53125,0 0.78125,-2.125 -1.5625,0 z m -38,5.09375 -0.78125,2.125 1.5625,0 0.75,-2.125 -1.53125,0 z m 12.0625,0 -0.78125,2.125 1.53125,0 0.75,-2.125 -1.5,0 z m 12.0625,0 -0.78125,2.125 1.53125,0 0.75,-2.125 -1.5,0 z m 12.03125,0 -0.75,2.125 1.53125,0 0.75,-2.125 -1.53125,0 z m -11.25,-58.25 c -8.8406,0 -15.95175,7.0403 -16.46875,15.75 -4.3198,0.41518 -7.666,3.6658 -8.4375,7.875 -0.25345,-0.02661 -0.4506,-0.125 -0.71875,-0.125 -4.6961,0 -8.5625,3.83895 -8.5625,8.53125 0,2.3476 1.108,4.3341 2.75,5.4375 1.6436,1.1041 3.6939,1.46875 5.8125,1.46875 l 21.78125,0 11.875,0 10.96875,0 c 7.4348,0 13.5,-6.0639 13.5,-13.5 0,-7.4361 -6.0638,-13.5 -13.5,-13.5 -1.1286,0 -2.1604,0.29785 -3.1875,0.5625 -1.8785,-7.1211 -8.1136,-12.5 -15.8125,-12.5 z m 0,3.1875 c 6.7262,0 12.20075,4.97015 13.21875,11.40625 l 0.3125,1.9375 1.84375,-0.75 c 1.1552,-0.43828 2.3578,-0.65625 3.625,-0.65625 5.7208,0 10.34375,4.5936 10.34375,10.3125 0,5.7208 -4.62265,10.3125 -10.34375,10.3125 l -10.9375,0 -11.875,0 -21.8125,0 c -1.7188,0 -3.16085,-0.35219 -4.03125,-0.9375 C 4.5048,71.32303 4.03125,70.6155 4.03125,69.125 c 0,-2.9749 2.3959,-5.34375 5.375,-5.34375 0.49359,0 0.94969,0.08547 1.5,0.25 l 2.09375,0.625 0,-2.125 c 0,-0.09802 -0.0576,-0.10094 -0.0625,-0.15625 0,-0.08962 -0.008,-0.1047 0,-0.125 -10e-4,-0.0084 10e-4,-0.02845 0,-0.03125 0.0833,-3.5413 2.9391,-6.375 6.5,-6.375 -0.0518,0 0.14013,0.0373 0.5,0.0625 L 21.6875,56 21.625,54.25 c -0.01274,-0.28261 -0.06568,-0.42474 -0.09375,-0.46875 0,-0.02538 -0.0087,-0.03558 0,-0.03125 0.01709,-7.4384 6.052,-13.46875 13.5,-13.46875 z" />
</svg>
