<?xml version="1.0" encoding="UTF-8" standalone="no"?>
<svg
   xmlns:dc="http://purl.org/dc/elements/1.1/"
   xmlns:cc="http://creativecommons.org/ns#"
   xmlns:rdf="http://www.w3.org/1999/02/22-rdf-syntax-ns#"
   xmlns:svg="http://www.w3.org/2000/svg"
   xmlns="http://www.w3.org/2000/svg"
   xmlns:sodipodi="http://sodipodi.sourceforge.net/DTD/sodipodi-0.dtd"
   xmlns:inkscape="http://www.inkscape.org/namespaces/inkscape"
   height="100"
   width="100"
   id="svg2"
   version="1.1"
   inkscape:version="0.48.5 r10040"
   sodipodi:docname="120.svg">
  <metadata
     id="metadata10">
    <rdf:RDF>
      <cc:Work
         rdf:about="">
        <dc:format>image/svg+xml</dc:format>
        <dc:type
           rdf:resource="http://purl.org/dc/dcmitype/StillImage" />
        <dc:title></dc:title>
      </cc:Work>
    </rdf:RDF>
  </metadata>
  <defs
     id="defs8" />
  <sodipodi:namedview
     pagecolor="#ffffff"
     bordercolor="#666666"
     borderopacity="1"
     objecttolerance="10"
     gridtolerance="10"
     guidetolerance="10"
     inkscape:pageopacity="0"
     inkscape:pageshadow="2"
     inkscape:window-width="959"
     inkscape:window-height="1013"
     id="namedview6"
     showgrid="false"
     inkscape:zoom="3.337544"
     inkscape:cx="36.057169"
     inkscape:cy="62.2893"
     inkscape:window-x="959"
     inkscape:window-y="27"
     inkscape:window-maximized="0"
     inkscape:current-layer="svg2" />
  <path
     id="path2986-6"
     style="fill:#000000;fill-opacity:1;stroke:none"
     d="m 19.8125,95.25 0.3125,0.1875 -0.3125,0.875 0,-1.0625 z m 58.65625,-3.5625 1.21875,0 0.5625,1 -0.53125,0.90625 -1.21875,0 -0.625,-0.90625 0.59375,-1 z m -59.9375,0 1.21875,0 0.5625,1 -0.5625,0.90625 -1.1875,0 -0.625,-0.90625 0.59375,-1 z m 56.90625,-0.25 0.8125,0.5 -1.21875,0.71875 1.25,0.71875 -1.1875,0.71875 -0.53125,-0.3125 0.875,-2.34375 z m -29.75,-3.375 0.625,0.375 0.03125,0.03125 -1,0.5625 0.34375,-0.96875 z m 31.09375,-0.3125 1.5625,0.875 0,1.375 L 77,89.3125 l 0.03125,1.4375 -1.125,-0.625 0.875,-2.375 z M 46.09375,86.90625 46.28125,87 46,87.15625 l 0.09375,-0.25 z M 48.5,86.75 l 1.21875,0 0.5625,1 -0.53125,0.90625 -1.21875,0 -0.625,-0.90625 0.59375,-1 z m 4.59375,-0.5 1.125,0.625 -0.75,2.03125 -0.375,0.21875 -1.28125,-0.65625 1.25,-0.71875 -1.21875,-0.71875 1.25,-0.78125 z m 1.6875,-0.9375 -0.15625,0.40625 -0.28125,-0.15625 0.4375,-0.25 z m -7.3125,-2.125 0.90625,0.5 0,1.375 -1.34375,-0.6875 0.03125,1.4375 -0.46875,-0.25 0.4375,-1.1875 0.4375,-1.1875 z m 0.9375,-2.625 0,1.6875 -0.5,-0.28125 0.5,-1.40625 z m 29.0625,-0.84375 -3.40625,9.375 -1.40625,-0.8125 -0.75,0.375 0,0.8125 1.6875,0.90625 -0.125,0.3125 -0.84375,0.46875 0,0.78125 0.34375,0.15625 -2.875,7.90625 2.21875,0 1.25,-3.4375 1,-0.5625 0,1.34375 0.59375,0.375 0.65625,-0.4375 0,-1.96875 1.21875,-0.6875 0,1.4375 1.3125,-0.8125 0,1.40625 -1.78125,0.96875 0,0.75 0.59375,0.34375 1.21875,-0.65625 0,2.09375 0.65625,0.4375 0.71875,-0.4375 0,-2.09375 1.1875,0.65625 0.59375,-0.28125 0,-0.8125 -1.78125,-0.96875 0,-1.40625 1.28125,0.78125 0,-1.40625 1.28125,0.75 0,2 0.625,0.34375 0.65625,-0.34375 0,-1.3125 1.75,0.96875 0.78125,-0.34375 0,-0.8125 -1.8125,-1.0625 1.125,-0.625 0,-0.71875 -0.5625,-0.40625 -1.8125,1 -1.28125,-0.65625 1.25,-0.71875 -1.21875,-0.71875 1.25,-0.78125 1.8125,1.03125 0.59375,-0.3125 0,-0.75 L 84.3125,90.5 l 1.875,-1.0625 0,-0.78125 L 85.5,88.25 l -1.90625,1.03125 0,-1.40625 -0.65625,-0.28125 -0.625,0.28125 0,2.1875 -1.28125,0.6875 0,-1.5 L 79.75,90 l 0,-1.375 1.84375,-1.03125 0,-0.65625 -0.625,-0.40625 -1.21875,0.65625 0,-2.09375 -0.71875,-0.4375 -0.65625,0.4375 0,2.09375 -1.1875,-0.625 2.5,-6.84375 -2.21875,0 z m -10.3125,0 L 59.78125,100 62,100 l 7.375,-20.28125 -2.21875,0 z m -20.65625,0 -1.125,3.09375 -0.28125,-0.15625 -0.5625,0.375 0,1.375 -1.84375,-1.0625 -0.75,0.375 0,0.84375 1.90625,1 -1.1875,0.65625 0,0.78125 0.65625,0.3125 L 43.84375,87 43.4375,88.15625 43.375,88.125 42.6875,88.5 l 0,0.78125 0.28125,0.125 -0.4375,1.21875 -0.59375,0.3125 0,0.84375 0.15625,0.0625 L 39.125,100 l 2.21875,0 3.25,-8.9375 0,1.34375 0.59375,0.375 0.65625,-0.4375 0,-1.96875 1.21875,-0.6875 0,1.4375 1.3125,-0.8125 0,1.40625 -1.78125,0.96875 0,0.75 0.59375,0.34375 1.21875,-0.65625 0,2.09375 0.65625,0.4375 0.71875,-0.4375 0,-2.09375 1.1875,0.65625 0.59375,-0.28125 0,-0.8125 -1.78125,-0.96875 0,-1.40625 1.28125,0.78125 0,-1.40625 1.28125,0.75 0,1.5625 -2.90625,8 2.21875,0 3.03125,-8.28125 0.6875,0.375 0.78125,-0.34375 0,-0.8125 -1,-0.59375 3.875,-10.625 -2.21875,0 -1.3125,3.625 -1.875,1 0,-1.375 -0.65625,-0.3125 -0.625,0.3125 0,2.15625 -1.28125,0.6875 0,-1.5 -1.28125,0.75 0,-1.375 L 51.625,82.65625 51.625,82 51,81.59375 49.78125,82.25 l 0,-2.09375 -0.71875,-0.4375 -0.46875,0.3125 0.125,-0.3125 -2.21875,0 z m -10.34375,0 L 28.78125,100 31,100 l 7.375,-20.28125 -2.21875,0 z m -10.3125,0 -2.875,7.875 -0.59375,0.28125 0,1.375 -0.375,1 -0.9375,0.5 0,-1.5 -1.25,0.75 0,-1.375 1.84375,-1.03125 0,-0.65625 -0.625,-0.40625 -1.25,0.65625 0,-2.09375 -0.6875,-0.4375 -0.65625,0.4375 0,2.09375 -1.21875,-0.65625 -0.59375,0.34375 0,0.75 1.78125,1 0,1.375 -1.34375,-0.6875 0.03125,1.4375 -1.28125,-0.71875 0,-2.03125 -0.6875,-0.40625 -0.5625,0.375 0,1.375 -1.84375,-1.0625 -0.75,0.375 0,0.8125 1.90625,1.03125 -1.1875,0.65625 0,0.78125 0.65625,0.3125 1.75,-1.03125 1.21875,0.71875 -1.21875,0.71875 1.25,0.71875 -1.1875,0.71875 -1.75,-1.03125 -0.6875,0.375 0,0.78125 1.21875,0.59375 -1.96875,1.0625 0,0.84375 0.8125,0.3125 L 14.625,96 l 0,1.34375 0.59375,0.375 0.65625,-0.4375 0,-1.96875 1.21875,-0.6875 0,1.4375 1.3125,-0.8125 0,1.40625 -1.78125,0.96875 0,0.75 0.59375,0.34375 1.21875,-0.65625 0,2.09375 0.65625,0.4375 0.6875,-0.4375 0,-0.15625 0.90625,0 0.5,-1.375 0.40625,-0.1875 0,-0.8125 -0.03125,-0.03125 0.8125,-2.21875 0,2 0.625,0.34375 0.65625,-0.34375 0,-1.3125 1.75,0.96875 0.78125,-0.34375 0,-0.8125 -1.8125,-1.0625 1.125,-0.625 0,-0.71875 -0.5625,-0.40625 -1.8125,1 -0.25,-0.125 0.875,-2.375 1.1875,0.65625 0.59375,-0.3125 0,-0.75 L 24.375,90.5 l 1.875,-1.0625 0,-0.78125 -0.6875,-0.40625 -0.75,0.40625 3.25,-8.9375 -2.21875,0 z M 53.562511,22.046599 c -12.627,0 -22.762,10.028749 -23.5,22.468749 -6.17,0.593 -10.9605,5.238002 -12.0625,11.250002 -0.362,-0.038 -0.64825,-0.15625 -1.03125,-0.15625 -6.7074,0 -12.21875,5.4855 -12.21875,12.1875 0,3.353 1.5923,6.174 3.9375,7.75 2.3476,1.577 5.25525,2.09375 8.28125,2.09375 l 31.15625,0 16.96875,0 15.625005,0 C 91.337764,77.64035 100,68.9801 100,58.3591 100,47.738098 91.339764,39.077848 80.718766,39.077848 c -1.612,0 -3.06425,0.4345 -4.531255,0.8125 -2.683,-10.171 -11.628,-17.84375 -22.625,-17.84375 z" />
</svg>
