<?xml version="1.0" encoding="UTF-8" standalone="no"?>
<svg
   xmlns:dc="http://purl.org/dc/elements/1.1/"
   xmlns:cc="http://creativecommons.org/ns#"
   xmlns:rdf="http://www.w3.org/1999/02/22-rdf-syntax-ns#"
   xmlns:svg="http://www.w3.org/2000/svg"
   xmlns="http://www.w3.org/2000/svg"
   xmlns:sodipodi="http://sodipodi.sourceforge.net/DTD/sodipodi-0.dtd"
   xmlns:inkscape="http://www.inkscape.org/namespaces/inkscape"
   height="100"
   width="100"
   id="svg2"
   version="1.1"
   inkscape:version="0.48.5 r10040"
   sodipodi:docname="121.svg">
  <metadata
     id="metadata10">
    <rdf:RDF>
      <cc:Work
         rdf:about="">
        <dc:format>image/svg+xml</dc:format>
        <dc:type
           rdf:resource="http://purl.org/dc/dcmitype/StillImage" />
        <dc:title></dc:title>
      </cc:Work>
    </rdf:RDF>
  </metadata>
  <defs
     id="defs8" />
  <sodipodi:namedview
     pagecolor="#ffffff"
     bordercolor="#666666"
     borderopacity="1"
     objecttolerance="10"
     gridtolerance="10"
     guidetolerance="10"
     inkscape:pageopacity="0"
     inkscape:pageshadow="2"
     inkscape:window-width="959"
     inkscape:window-height="1013"
     id="namedview6"
     showgrid="false"
     inkscape:zoom="4.72"
     inkscape:cx="54.492947"
     inkscape:cy="14.528813"
     inkscape:window-x="959"
     inkscape:window-y="27"
     inkscape:window-maximized="0"
     inkscape:current-layer="svg2" />
  <path
     id="path4-6"
     style="fill:#000000;fill-opacity:1;stroke:none"
     d="m 57.116423,94.360832 c -0.778,0.039 -1.497,0.535 -1.781,1.313004 -0.379,1.037008 0.15,2.184014 1.187,2.563018 1.038,0.378002 2.184,-0.151002 2.563,-1.188008 0.379,-1.037008 -0.151,-2.184016 -1.188,-2.562014 -0.259,-0.095 -0.522,-0.138 -0.781,-0.126 z m -34.438,0 c -0.778,0.039 -1.497,0.535 -1.781,1.313004 -0.379,1.037008 0.151,2.184014 1.188,2.563018 1.037,0.378002 2.183,-0.151002 2.562,-1.188008 0.379,-1.037008 -0.15,-2.184016 -1.187,-2.562014 -0.26,-0.095 -0.522,-0.138 -0.782,-0.126 z m 52.126,-1 c -0.973,0.049 -1.864,0.684 -2.219,1.657 -0.474,1.296008 0.172,2.714018 1.469,3.187022 1.296,0.474002 2.745,-0.172002 3.218,-1.46801 0.474,-1.29701 -0.203,-2.746012 -1.5,-3.219012 -0.324,-0.119 -0.644,-0.173 -0.968,-0.157 z m -34.438,0 c -0.973,0.049 -1.864,0.684 -2.219,1.657 -0.473,1.296008 0.172,2.714018 1.469,3.187022 1.297,0.474002 2.745,-0.172002 3.219,-1.46801 0.473,-1.29701 -0.204,-2.746012 -1.5,-3.219012 -0.324,-0.119 -0.645,-0.173 -0.969,-0.157 z m 11,-2.281 c -1.105,0 -2,0.896 -2,2 0,1.105 0.895,2 2,2 1.105,0 2,-0.895 2,-2 0,-1.104 -0.895,-2 -2,-2 z m -34.438,0 c -1.1046,0 -2,0.896 -2,2 0,1.105 0.8954,2 2,2 1.1046,0 1.9995,-0.895 1.9995,-2 0,-1.104 -0.8949,-2 -1.9995,-2 z m 52.156,-1 c -1.381,0 -2.5,1.12 -2.5,2.5 0,1.381 1.119,2.5 2.5,2.5 1.38,0 2.5,-1.119 2.5,-2.5 0,-1.38 -1.12,-2.5 -2.5,-2.5 z m -34.438,0 c -1.38,0 -2.5,1.12 -2.5,2.5 0,1.381 1.12,2.5 2.5,2.5 1.381,0 2.5,-1.119 2.5,-2.5 0,-1.38 -1.119,-2.5 -2.5,-2.5 z m 24.844,-2.219 c -0.778,0.039 -1.497,0.535 -1.781,1.313 -0.379,1.037 0.15,2.184 1.187,2.563 1.038,0.378 2.184,-0.151 2.563,-1.188 0.379,-1.037 -0.151,-2.184 -1.188,-2.562 -0.259,-0.095 -0.522,-0.138 -0.781,-0.126 z m -34.437,0 c -0.779,0.039 -1.498,0.535 -1.782,1.313 -0.379,1.037 0.151,2.184 1.188,2.563 1.037,0.378 2.183,-0.151 2.562,-1.188 0.379,-1.037 -0.15,-2.184 -1.187,-2.562 -0.26,-0.095 -0.522,-0.138 -0.781,-0.126 z m 52.124,-1.000002 c -0.972,0.049 -1.863,0.653002 -2.218,1.626002 -0.474,1.296 0.172,2.745 1.468,3.218 1.297,0.474 2.746,-0.203 3.219,-1.5 0.474,-1.296 -0.203,-2.714 -1.5,-3.187 -0.324,-0.119 -0.644,-0.173002 -0.969,-0.157002 z m -34.437,0 c -0.973,0.049 -1.864,0.653002 -2.219,1.626002 -0.473,1.296 0.204,2.745 1.5,3.218 1.297,0.474 2.714,-0.203 3.188,-1.5 0.473,-1.296 -0.204,-2.714 -1.5,-3.187 -0.324,-0.119 -0.645,-0.173002 -0.969,-0.157002 z m 19.125,-5.531 c -0.778,0.039 -1.497,0.535 -1.781,1.313 -0.379,1.037 0.15,2.215 1.187,2.594 1.038,0.378 2.184,-0.182 2.563,-1.219 0.379,-1.038 -0.151,-2.184 -1.188,-2.563 -0.259,-0.094 -0.522,-0.138 -0.781,-0.125 z m -34.438,0 c -0.778,0.039 -1.497,0.535 -1.781,1.313 -0.379,1.037 0.151,2.215 1.188,2.594 1.037,0.378 2.183,-0.182 2.562,-1.219 0.379,-1.038 -0.15,-2.184 -1.187,-2.563 -0.26,-0.094 -0.522,-0.138 -0.782,-0.125 z m 52.126,-1 c -0.973,0.049 -1.864,0.684 -2.219,1.657 -0.474,1.296 0.172,2.745 1.469,3.218 1.296,0.474 2.745,-0.203 3.218,-1.5 0.474,-1.296 -0.203,-2.745 -1.5,-3.218 -0.324,-0.119 -0.644,-0.173 -0.968,-0.157 z m -34.438,0 c -0.973,0.049 -1.864,0.684 -2.219,1.657 -0.473,1.296 0.204,2.745 1.5,3.218 1.297,0.474 2.714,-0.203 3.188,-1.5 0.473,-1.296 -0.172,-2.745 -1.469,-3.218 -0.324,-0.119 -0.676,-0.173 -1,-0.157 z m 8.447082,-58.283232 c -12.627,0 -22.762,10.02875 -23.5,22.46875 -6.17,0.593 -10.9605,5.238 -12.0625,11.25 -0.362,-0.038 -0.64825,-0.15625 -1.03125,-0.15625 -6.7074,0 -12.21875,5.4855 -12.21875,12.1875 0,3.353 1.5923,6.174 3.9375,7.75 2.3476,1.577 5.25525,2.09375 8.28125,2.09375 l 31.15625,0 16.96875,0 15.625,0 c 10.619,0 19.281255,-8.66025 19.281255,-19.28125 0,-10.621 -8.660255,-19.28125 -19.281255,-19.28125 -1.612,0 -3.06425,0.4345 -4.53125,0.8125 -2.683,-10.171 -11.628,-17.84375 -22.625,-17.84375 z" />
</svg>
