<?xml version="1.0" encoding="UTF-8" standalone="no"?>
<svg
   xmlns:dc="http://purl.org/dc/elements/1.1/"
   xmlns:cc="http://creativecommons.org/ns#"
   xmlns:rdf="http://www.w3.org/1999/02/22-rdf-syntax-ns#"
   xmlns:svg="http://www.w3.org/2000/svg"
   xmlns="http://www.w3.org/2000/svg"
   xmlns:sodipodi="http://sodipodi.sourceforge.net/DTD/sodipodi-0.dtd"
   xmlns:inkscape="http://www.inkscape.org/namespaces/inkscape"
   height="100"
   width="100"
   id="svg2"
   version="1.1"
   inkscape:version="0.48.5 r10040"
   sodipodi:docname="101.svg">
  <metadata
     id="metadata10">
    <rdf:RDF>
      <cc:Work
         rdf:about="">
        <dc:format>image/svg+xml</dc:format>
        <dc:type
           rdf:resource="http://purl.org/dc/dcmitype/StillImage" />
        <dc:title></dc:title>
      </cc:Work>
    </rdf:RDF>
  </metadata>
  <defs
     id="defs8" />
  <sodipodi:namedview
     pagecolor="#ffffff"
     bordercolor="#666666"
     borderopacity="1"
     objecttolerance="10"
     gridtolerance="10"
     guidetolerance="10"
     inkscape:pageopacity="0"
     inkscape:pageshadow="2"
     inkscape:window-width="959"
     inkscape:window-height="1014"
     id="namedview6"
     showgrid="false"
     inkscape:zoom="2.36"
     inkscape:cx="-22.092902"
     inkscape:cy="16.101695"
     inkscape:window-x="960"
     inkscape:window-y="27"
     inkscape:window-maximized="0"
     inkscape:current-layer="svg2" />
  <g
     transform="matrix(0.04011701,0,0,-0.04011701,14.055159,78.242375)"
     id="g4"
     style="fill:none;fill-opacity:1;stroke:#000000;stroke-width:71.76110839999999769;stroke-linecap:round;stroke-linejoin:round;stroke-miterlimit:4;stroke-opacity:1;stroke-dasharray:none">
    <path
       id="path6"
       style="fill:none;fill-opacity:1;stroke:#000000;stroke-width:71.76110839999999769;stroke-linecap:round;stroke-linejoin:round;stroke-miterlimit:4;stroke-opacity:1;stroke-dasharray:none"
       d="m 1024,161 v 190 q 0,14 -9.5,23.5 Q 1005,384 992,384 H 800 q -13,0 -22.5,-9.5 Q 768,365 768,351 V 161 q 0,-14 9.5,-23.5 Q 787,128 800,128 h 192 q 13,0 22.5,9.5 9.5,9.5 9.5,23.5 z m -2,374 18,459 q 0,12 -10,19 -13,11 -24,11 H 786 q -11,0 -24,-11 -10,-7 -10,-21 l 17,-457 q 0,-10 10,-16.5 10,-6.5 24,-6.5 h 185 q 14,0 23.5,6.5 9.5,6.5 10.5,16.5 z m -14,934 768,-1408 q 35,-63 -2,-126 -17,-29 -46.5,-46 -29.5,-17 -63.5,-17 H 128 q -34,0 -63.5,17 Q 35,-94 18,-65 -19,-2 16,61 l 768,1408 q 17,31 47,49 30,18 65,18 35,0 65,-18 30,-18 47,-49 z" />
  </g>
</svg>
